<svg width="530" height="1046" viewBox="0 0 530 1046" fill="none" xmlns="http://www.w3.org/2000/svg">
<g clip-path="url(#clip0_639_439)">
<rect width="529.5" height="498" rx="24" fill="white"/>
<rect width="529.5" height="115" fill="#D9D9D9"/>
<path d="M107.504 75V41.1797H114.582V54.9141H129.817V41.1797H136.895V75H129.817V60.75H114.582V75H107.504ZM153.364 75.5156C145.677 75.5156 141.013 70.5234 141.013 62.4844V62.4609C141.013 54.4688 145.723 49.3594 153.083 49.3594C160.442 49.3594 165.059 54.3516 165.059 61.9453V64.0547H147.763C147.833 68.0625 150.013 70.4062 153.505 70.4062C156.317 70.4062 158.028 68.8594 158.52 67.4531L158.567 67.3125H164.848L164.778 67.5703C164.005 71.2734 160.536 75.5156 153.364 75.5156ZM153.2 54.4688C150.388 54.4688 148.278 56.3438 147.833 59.7422H158.497C158.075 56.2734 156.036 54.4688 153.2 54.4688ZM178.927 75.5156C171.966 75.5156 168.099 72.3047 167.56 67.5469L167.537 67.3359H174.216L174.263 67.5469C174.708 69.5156 176.185 70.6641 178.927 70.6641C181.505 70.6641 183.076 69.6562 183.076 68.0391V68.0156C183.076 66.6797 182.232 65.9062 179.771 65.3672L175.505 64.4766C170.63 63.4453 168.169 61.0078 168.169 57.2578V57.2344C168.169 52.4531 172.294 49.3594 178.693 49.3594C185.373 49.3594 189.099 52.8984 189.263 57.3047V57.5391H182.958L182.935 57.3516C182.701 55.5469 181.224 54.1875 178.693 54.1875C176.326 54.1875 174.849 55.2422 174.849 56.8594V56.8828C174.849 58.1719 175.716 59.0156 178.248 59.5547L182.513 60.4688C187.763 61.5703 189.919 63.6328 189.919 67.3359V67.3594C189.919 72.2812 185.396 75.5156 178.927 75.5156ZM193.287 75V49.875H200.131V54.0938H200.272C201.303 51.2344 203.928 49.3594 207.303 49.3594C210.818 49.3594 213.373 51.2344 214.217 54.5391H214.358C215.483 51.375 218.483 49.3594 222.162 49.3594C227.084 49.3594 230.389 52.7578 230.389 57.8203V75H223.545V59.5312C223.545 56.625 222.092 55.0312 219.443 55.0312C216.842 55.0312 215.131 56.9297 215.131 59.7188V75H208.545V59.3203C208.545 56.625 207.022 55.0312 204.49 55.0312C201.889 55.0312 200.131 57 200.131 59.8359V75H193.287ZM242.194 75.3984C237.155 75.3984 233.757 72.2344 233.757 67.8047V67.7578C233.757 63.1875 237.296 60.5156 243.53 60.1172L249.741 59.7422V58.1953C249.741 55.9688 248.288 54.5859 245.616 54.5859C243.061 54.5859 241.514 55.7812 241.186 57.3984L241.139 57.6094H234.882L234.905 57.3281C235.28 52.6875 239.264 49.3594 245.897 49.3594C252.389 49.3594 256.585 52.7109 256.585 57.7734V75H249.741V71.25H249.6C248.171 73.8281 245.499 75.3984 242.194 75.3984ZM240.53 67.4531C240.53 69.3047 242.053 70.4062 244.421 70.4062C247.491 70.4062 249.741 68.4375 249.741 65.8125V64.0078L244.561 64.3359C241.913 64.5 240.53 65.625 240.53 67.4062V67.4531ZM261.007 75V49.875H267.851V54H267.992C269.281 51.1172 271.859 49.3594 275.656 49.3594C281.187 49.3594 284.328 52.8984 284.328 58.7812V75H277.484V60.1875C277.484 56.9062 275.937 55.0312 272.867 55.0312C269.796 55.0312 267.851 57.2812 267.851 60.5625V75H261.007ZM309.649 75.5156C301.985 75.5156 297.251 70.5234 297.251 62.4141V62.3906C297.251 54.3516 302.055 49.3594 309.579 49.3594C316.399 49.3594 320.735 53.5547 320.993 58.9922V59.1562H314.641L314.594 58.9453C314.172 56.5547 312.508 54.7266 309.672 54.7266C306.321 54.7266 304.212 57.6094 304.212 62.4141V62.4375C304.212 67.3594 306.321 70.1484 309.696 70.1484C312.438 70.1484 314.149 68.4609 314.618 65.9297L314.641 65.7188H321.016V65.8594C320.688 71.3438 316.352 75.5156 309.649 75.5156ZM337.509 47.0625H332.915L337.181 39.0469H343.251L337.509 47.0625ZM335.845 75.5156C328.204 75.5156 323.4 70.6172 323.4 62.4375V62.3906C323.4 54.3047 328.322 49.3594 335.822 49.3594C343.345 49.3594 348.29 54.2578 348.29 62.3906V62.4375C348.29 70.6406 343.439 75.5156 335.845 75.5156ZM335.868 70.1484C339.197 70.1484 341.329 67.3359 341.329 62.4375V62.3906C341.329 57.5391 339.15 54.7266 335.822 54.7266C332.517 54.7266 330.361 57.5391 330.361 62.3906V62.4375C330.361 67.3594 332.493 70.1484 335.868 70.1484ZM373.073 83.7188C366.159 83.7188 361.799 80.6016 361.143 76.5703L361.12 76.3594H367.776L367.846 76.5234C368.385 77.7656 370.213 78.8438 373.073 78.8438C376.612 78.8438 378.487 77.0156 378.487 74.2031V70.3594H378.346C377.034 72.9844 374.221 74.6484 370.588 74.6484C364.307 74.6484 360.417 69.9609 360.417 62.1562V62.1328C360.417 54.1172 364.354 49.3594 370.706 49.3594C374.245 49.3594 376.987 51.2344 378.346 54.1641H378.487V49.875H385.331V74.2969C385.331 79.8984 380.62 83.7188 373.073 83.7188ZM372.956 69.6328C376.307 69.6328 378.51 66.8203 378.51 62.3203V62.2969C378.51 57.8203 376.284 55.0312 372.956 55.0312C369.557 55.0312 367.377 57.7969 367.377 62.2969V62.3203C367.377 66.8438 369.534 69.6328 372.956 69.6328ZM391.722 47.0625L385.98 39.0469H392.05L396.316 47.0625H391.722ZM389.964 75V49.875H396.808V75H389.964ZM407.722 64.0547L407.699 62.6953C407.465 59.3672 408.683 57.2344 411.918 55.3359C414.941 53.5312 415.855 52.3594 415.855 50.1797V50.1562C415.855 47.9062 414.051 46.3125 411.402 46.3125C408.707 46.3125 406.949 48.0703 406.808 50.4844L406.785 50.6719H400.433V50.4375C400.621 44.9297 404.629 40.875 411.824 40.875C418.504 40.875 422.957 44.5781 422.957 49.9453V49.9688C422.957 53.4844 421.246 55.9453 417.941 57.8906C414.824 59.6953 413.957 60.8672 413.957 63.0938V64.0547H407.722ZM410.933 75.2812C408.824 75.2812 407.113 73.6641 407.113 71.6016C407.113 69.5391 408.824 67.9219 410.933 67.9219C413.066 67.9219 414.777 69.5391 414.777 71.6016C414.777 73.6641 413.066 75.2812 410.933 75.2812Z" fill="black"/>
<path d="M94.1001 202.56C92.1401 204.46 90.0001 204.16 87.9401 203.26C85.7601 202.34 83.7601 202.3 81.4601 203.26C78.5801 204.5 77.0601 204.14 75.3401 202.56C65.5801 192.5 67.0201 177.18 78.1001 176.62C80.8001 176.76 82.6801 178.1 84.2601 178.22C86.6201 177.74 88.8801 176.36 91.4001 176.54C94.4201 176.78 96.7001 177.98 98.2001 180.14C91.9601 183.88 93.4401 192.1 99.1601 194.4C98.0201 197.4 96.5401 200.38 94.0801 202.58L94.1001 202.56ZM84.0601 176.5C83.7601 172.04 87.3801 168.36 91.5401 168C92.1201 173.16 86.8601 177 84.0601 176.5Z" fill="#888888"/>
<path d="M170.191 181V173.044H168.548V170.977H170.191V163.033H176.529C181.871 163.033 185.046 166.308 185.046 171.96V171.985C185.046 177.663 181.896 181 176.529 181H170.191ZM172.98 178.584H176.28C180.09 178.584 182.194 176.256 182.194 172.01V171.985C182.194 167.764 180.065 165.436 176.28 165.436H172.98V170.977H176.031V173.044H172.98V178.584ZM195.188 162.286L197.193 158.7H199.696L196.919 162.286H195.188ZM188.925 166.457L191.814 162.672H194.205L197.106 166.457H194.952L192.997 163.905L191.079 166.457H188.925ZM193.009 181.261C189.249 181.261 186.796 178.659 186.796 174.451V174.426C186.796 170.242 189.274 167.652 192.997 167.652C196.732 167.652 199.222 170.23 199.222 174.426V174.451C199.222 178.672 196.757 181.261 193.009 181.261ZM193.022 179.008C195.126 179.008 196.471 177.339 196.471 174.451V174.426C196.471 171.562 195.101 169.906 192.997 169.906C190.93 169.906 189.548 171.562 189.548 174.426V174.451C189.548 177.352 190.918 179.008 193.022 179.008ZM202.753 165.884C201.882 165.884 201.185 165.187 201.185 164.34C201.185 163.481 201.882 162.784 202.753 162.784C203.638 162.784 204.322 163.481 204.322 164.34C204.322 165.187 203.638 165.884 202.753 165.884ZM201.409 181V167.901H204.098V181H201.409ZM216.639 181.261C214.049 181.261 212.804 180.166 212.804 177.551V170.043H210.924V167.901H212.804V164.49H215.556V167.901H218.008V170.043H215.556V177.389C215.556 178.721 216.153 179.12 217.286 179.12C217.573 179.12 217.809 179.095 218.008 179.07V181.149C217.697 181.199 217.187 181.261 216.639 181.261ZM226.084 166.42H224.142L226.321 162.498H228.935L226.084 166.42ZM223.88 181.237C221.266 181.237 219.51 179.63 219.51 177.277V177.252C219.51 174.974 221.278 173.579 224.378 173.392L227.939 173.181V172.197C227.939 170.753 227.006 169.881 225.337 169.881C223.781 169.881 222.822 170.616 222.598 171.662L222.573 171.774H220.033L220.045 171.637C220.232 169.383 222.187 167.652 225.412 167.652C228.612 167.652 230.641 169.346 230.641 171.973V181H227.939V178.933H227.89C227.13 180.34 225.611 181.237 223.88 181.237ZM222.224 177.215C222.224 178.36 223.171 179.083 224.615 179.083C226.507 179.083 227.939 177.8 227.939 176.094V175.073L224.739 175.272C223.121 175.372 222.224 176.082 222.224 177.19V177.215ZM238.879 181.261C235.056 181.261 232.666 178.634 232.666 174.438V174.426C232.666 170.28 235.106 167.652 238.841 167.652C242.216 167.652 244.258 169.819 244.482 172.284L244.494 172.371H241.929L241.904 172.272C241.618 170.989 240.622 169.906 238.866 169.906C236.775 169.906 235.417 171.649 235.417 174.451V174.463C235.417 177.327 236.799 179.008 238.879 179.008C240.535 179.008 241.593 178.049 241.917 176.63L241.929 176.53H244.519L244.507 176.617C244.22 179.244 242.029 181.261 238.879 181.261ZM256.188 181.261C253.598 181.261 252.353 180.166 252.353 177.551V170.043H250.473V167.901H252.353V164.49H255.105V167.901H257.558V170.043H255.105V177.389C255.105 178.721 255.703 179.12 256.836 179.12C257.122 179.12 257.359 179.095 257.558 179.07V181.149C257.247 181.199 256.736 181.261 256.188 181.261ZM265.086 181.261C261.325 181.261 258.873 178.659 258.873 174.451V174.426C258.873 170.242 261.35 167.652 265.073 167.652C268.809 167.652 271.299 170.23 271.299 174.426V174.451C271.299 178.672 268.833 181.261 265.086 181.261ZM265.098 179.008C267.202 179.008 268.547 177.339 268.547 174.451V174.426C268.547 171.562 267.177 169.906 265.073 169.906C263.006 169.906 261.624 171.562 261.624 174.426V174.451C261.624 177.352 262.994 179.008 265.098 179.008ZM278.03 166.42L275.191 162.498H277.793L279.985 166.42H278.03ZM277.22 181.237C274.606 181.237 272.85 179.63 272.85 177.277V177.252C272.85 174.974 274.618 173.579 277.719 173.392L281.28 173.181V172.197C281.28 170.753 280.346 169.881 278.677 169.881C277.121 169.881 276.162 170.616 275.938 171.662L275.913 171.774H273.373L273.386 171.637C273.572 169.383 275.527 167.652 278.752 167.652C281.952 167.652 283.981 169.346 283.981 171.973V181H281.28V178.933H281.23C280.47 180.34 278.951 181.237 277.22 181.237ZM275.564 177.215C275.564 178.36 276.511 179.083 277.955 179.083C279.848 179.083 281.28 177.8 281.28 176.094V175.073L278.08 175.272C276.461 175.372 275.564 176.082 275.564 177.19V177.215ZM286.591 181V167.901H289.281V169.881H289.343C290.028 168.549 291.372 167.652 293.352 167.652C296.228 167.652 297.884 169.508 297.884 172.521V181H295.182V173.031C295.182 171.064 294.261 169.956 292.393 169.956C290.501 169.956 289.281 171.325 289.281 173.367V181H286.591ZM310.549 181.261C307.213 181.261 305.071 178.622 305.071 174.451V174.438C305.071 170.267 307.237 167.652 310.525 167.652C312.38 167.652 313.874 168.586 314.658 170.13H314.708V163.033H317.41V181H314.708V178.784H314.658C313.874 180.315 312.43 181.261 310.549 181.261ZM311.259 178.946C313.289 178.946 314.721 177.177 314.721 174.451V174.438C314.721 171.724 313.276 169.956 311.259 169.956C309.142 169.956 307.823 171.674 307.823 174.438V174.451C307.823 177.24 309.13 178.946 311.259 178.946ZM321.626 165.884C320.754 165.884 320.057 165.187 320.057 164.34C320.057 163.481 320.754 162.784 321.626 162.784C322.51 162.784 323.195 163.481 323.195 164.34C323.195 165.187 322.51 165.884 321.626 165.884ZM320.281 181V167.901H322.971V181H320.281ZM327.236 166.42L330.063 162.498H332.466L335.305 166.42H333.163L331.258 163.83L329.378 166.42H327.236ZM331.333 181.261C327.485 181.261 325.157 178.634 325.157 174.5V174.488C325.157 170.392 327.523 167.652 331.196 167.652C334.869 167.652 337.122 170.292 337.122 174.227V175.135H327.846C327.896 177.613 329.253 179.058 331.395 179.058C332.989 179.058 334.047 178.236 334.383 177.252L334.421 177.153H336.973L336.948 177.29C336.525 179.369 334.508 181.261 331.333 181.261ZM331.208 169.856C329.465 169.856 328.12 171.039 327.884 173.23H334.458C334.234 170.964 332.964 169.856 331.208 169.856ZM331.358 186.117C330.498 186.117 329.789 185.42 329.789 184.573C329.789 183.714 330.498 183.017 331.358 183.017C332.242 183.017 332.926 183.714 332.926 184.573C332.926 185.42 332.242 186.117 331.358 186.117ZM339.209 181V167.901H341.899V169.881H341.961C342.646 168.549 343.99 167.652 345.97 167.652C348.846 167.652 350.502 169.508 350.502 172.521V181H347.8V173.031C347.8 171.064 346.879 169.956 345.011 169.956C343.119 169.956 341.899 171.325 341.899 173.367V181H339.209ZM363.902 181.261C360.08 181.261 357.689 178.634 357.689 174.438V174.426C357.689 170.28 360.129 167.652 363.865 167.652C367.239 167.652 369.281 169.819 369.505 172.284L369.518 172.371H366.953L366.928 172.272C366.641 170.989 365.645 169.906 363.89 169.906C361.798 169.906 360.441 171.649 360.441 174.451V174.463C360.441 177.327 361.823 179.008 363.902 179.008C365.558 179.008 366.616 178.049 366.94 176.63L366.953 176.53H369.542L369.53 176.617C369.244 179.244 367.052 181.261 363.902 181.261ZM375.95 166.42V166.382C376.697 165.822 377.158 165.299 377.158 164.813C377.158 164.228 376.473 163.892 375.564 163.892C375.178 163.892 374.916 163.929 374.717 163.967V162.498C375.053 162.373 375.601 162.261 376.211 162.261C377.718 162.261 379.013 163.083 379.013 164.378C379.013 165.175 378.577 165.834 377.693 166.42H375.95ZM375.9 181.261C373.024 181.261 371.38 179.406 371.38 176.393V167.901H374.07V175.87C374.07 177.85 374.991 178.946 376.859 178.946C378.751 178.946 379.971 177.588 379.971 175.546V167.901H382.673V181H379.971V179.033H379.909C379.224 180.353 377.892 181.261 375.9 181.261ZM389.18 181.237C386.565 181.237 384.81 179.63 384.81 177.277V177.252C384.81 174.974 386.578 173.579 389.678 173.392L393.239 173.181V172.197C393.239 170.753 392.305 169.881 390.637 169.881C389.081 169.881 388.122 170.616 387.898 171.662L387.873 171.774H385.333L385.345 171.637C385.532 169.383 387.487 167.652 390.712 167.652C393.912 167.652 395.941 169.346 395.941 171.973V181H393.239V178.933H393.189C392.43 180.34 390.911 181.237 389.18 181.237ZM387.524 177.215C387.524 178.36 388.471 179.083 389.915 179.083C391.807 179.083 393.239 177.8 393.239 176.094V175.073L390.039 175.272C388.421 175.372 387.524 176.082 387.524 177.19V177.215ZM402.717 181L409.254 163.033H412.267L418.791 181H415.865L414.222 176.144H407.299L405.643 181H402.717ZM410.735 166.009L408.046 173.903H413.462L410.785 166.009H410.735ZM420.455 185.358V167.901H423.144V170.155H423.206C423.991 168.599 425.435 167.652 427.303 167.652C430.64 167.652 432.781 170.267 432.781 174.451V174.463C432.781 178.634 430.627 181.261 427.34 181.261C425.485 181.261 423.978 180.315 423.206 178.796H423.144V185.358H420.455ZM426.606 178.946C428.722 178.946 430.042 177.227 430.042 174.463V174.451C430.042 171.662 428.71 169.956 426.606 169.956C424.564 169.956 423.132 171.724 423.132 174.451V174.463C423.132 177.177 424.576 178.946 426.606 178.946ZM434.868 185.358V167.901H437.558V170.155H437.62C438.404 168.599 439.849 167.652 441.716 167.652C445.053 167.652 447.195 170.267 447.195 174.451V174.463C447.195 178.634 445.041 181.261 441.754 181.261C439.898 181.261 438.392 180.315 437.62 178.796H437.558V185.358H434.868ZM441.019 178.946C443.136 178.946 444.455 177.227 444.455 174.463V174.451C444.455 171.662 443.123 169.956 441.019 169.956C438.977 169.956 437.545 171.724 437.545 174.451V174.463C437.545 177.177 438.989 178.946 441.019 178.946ZM449.381 181V163.033H452.07V181H449.381ZM460.42 181.261C456.573 181.261 454.244 178.634 454.244 174.5V174.488C454.244 170.392 456.61 167.652 460.283 167.652C463.956 167.652 466.21 170.292 466.21 174.227V175.135H456.934C456.984 177.613 458.341 179.058 460.482 179.058C462.076 179.058 463.134 178.236 463.471 177.252L463.508 177.153H466.061L466.036 177.29C465.612 179.369 463.595 181.261 460.42 181.261ZM460.296 169.856C458.552 169.856 457.208 171.039 456.971 173.23H463.545C463.321 170.964 462.051 169.856 460.296 169.856ZM173.927 210.261C171.337 210.261 170.092 209.166 170.092 206.551V199.043H168.212V196.901H170.092V193.49H172.844V196.901H175.296V199.043H172.844V206.389C172.844 207.721 173.441 208.12 174.574 208.12C174.861 208.12 175.097 208.095 175.296 208.07V210.149C174.985 210.199 174.475 210.261 173.927 210.261ZM181.168 210.237C178.553 210.237 176.798 208.63 176.798 206.277V206.252C176.798 203.974 178.566 202.579 181.666 202.392L185.227 202.181V201.197C185.227 199.753 184.293 198.881 182.625 198.881C181.069 198.881 180.11 199.616 179.886 200.662L179.861 200.774H177.321L177.333 200.637C177.52 198.383 179.475 196.652 182.7 196.652C185.9 196.652 187.929 198.346 187.929 200.973V210H185.227V207.933H185.178C184.418 209.34 182.899 210.237 181.168 210.237ZM179.512 206.215C179.512 207.36 180.459 208.083 181.903 208.083C183.795 208.083 185.227 206.8 185.227 205.094V204.073L182.027 204.272C180.409 204.372 179.512 205.082 179.512 206.19V206.215ZM182.675 215.117C181.803 215.117 181.106 214.42 181.106 213.573C181.106 212.714 181.803 212.017 182.675 212.017C183.559 212.017 184.244 212.714 184.244 213.573C184.244 214.42 183.559 215.117 182.675 215.117ZM191.996 194.884C191.124 194.884 190.427 194.187 190.427 193.34C190.427 192.481 191.124 191.784 191.996 191.784C192.88 191.784 193.565 192.481 193.565 193.34C193.565 194.187 192.88 194.884 191.996 194.884ZM190.651 210V196.901H193.34V210H190.651ZM206.678 210L200.278 192.033H203.279L208.184 206.9H208.247L213.152 192.033H216.153L209.753 210H206.678ZM218.95 194.884C218.078 194.884 217.381 194.187 217.381 193.34C217.381 192.481 218.078 191.784 218.95 191.784C219.834 191.784 220.518 192.481 220.518 193.34C220.518 194.187 219.834 194.884 218.95 194.884ZM217.605 210V196.901H220.294V210H217.605ZM224.56 195.42L227.386 191.498H229.789L232.628 195.42H230.487L228.582 192.83L226.702 195.42H224.56ZM228.656 210.261C224.809 210.261 222.481 207.634 222.481 203.5V203.488C222.481 199.392 224.846 196.652 228.519 196.652C232.193 196.652 234.446 199.292 234.446 203.227V204.135H225.17C225.22 206.613 226.577 208.058 228.719 208.058C230.312 208.058 231.371 207.236 231.707 206.252L231.744 206.153H234.297L234.272 206.29C233.849 208.369 231.831 210.261 228.656 210.261ZM228.532 198.856C226.789 198.856 225.444 200.039 225.207 202.23H231.782C231.558 199.964 230.288 198.856 228.532 198.856ZM228.681 215.117C227.822 215.117 227.112 214.42 227.112 213.573C227.112 212.714 227.822 212.017 228.681 212.017C229.565 212.017 230.25 212.714 230.25 213.573C230.25 214.42 229.565 215.117 228.681 215.117ZM241.127 210.261C238.538 210.261 237.292 209.166 237.292 206.551V199.043H235.412V196.901H237.292V193.49H240.044V196.901H242.497V199.043H240.044V206.389C240.044 207.721 240.642 208.12 241.775 208.12C242.061 208.12 242.298 208.095 242.497 208.07V210.149C242.186 210.199 241.675 210.261 241.127 210.261ZM250.219 210V192.033H252.796L262.035 205.318H262.11V192.033H264.874V210H262.309L253.058 196.69H252.983V210H250.219ZM271.368 210.237C268.754 210.237 266.998 208.63 266.998 206.277V206.252C266.998 203.974 268.766 202.579 271.866 202.392L275.428 202.181V201.197C275.428 199.753 274.494 198.881 272.825 198.881C271.269 198.881 270.31 199.616 270.086 200.662L270.061 200.774H267.521L267.533 200.637C267.72 198.383 269.675 196.652 272.9 196.652C276.1 196.652 278.129 198.346 278.129 200.973V210H275.428V207.933H275.378C274.618 209.34 273.099 210.237 271.368 210.237ZM269.712 206.215C269.712 207.36 270.659 208.083 272.103 208.083C273.996 208.083 275.428 206.8 275.428 205.094V204.073L272.228 204.272C270.609 204.372 269.712 205.082 269.712 206.19V206.215ZM280.739 210V196.901H283.429V198.931H283.491C284.051 197.561 285.383 196.652 287.102 196.652C288.907 196.652 290.227 197.586 290.75 199.23H290.812C291.484 197.636 293.028 196.652 294.896 196.652C297.486 196.652 299.179 198.371 299.179 200.998V210H296.477V201.645C296.477 199.939 295.568 198.956 293.975 198.956C292.381 198.956 291.273 200.151 291.273 201.807V210H288.633V201.446C288.633 199.927 287.674 198.956 286.155 198.956C284.562 198.956 283.429 200.213 283.429 201.907V210H280.739Z" fill="#888888"/>
<path d="M74 304V302C74 299.348 75.0536 296.804 76.9289 294.929C78.8043 293.054 81.3478 292 84 292M84 292C86.6522 292 89.1957 293.054 91.0711 294.929C92.9464 296.804 94 299.348 94 302V304M84 292C85.5913 292 87.1174 291.368 88.2426 290.243C89.3679 289.117 90 287.591 90 286C90 284.409 89.3679 282.883 88.2426 281.757C87.1174 280.632 85.5913 280 84 280C82.4087 280 80.8826 280.632 79.7574 281.757C78.6321 282.883 78 284.409 78 286C78 287.591 78.6321 289.117 79.7574 290.243C80.8826 291.368 82.4087 292 84 292ZM62 304V302C62 300.409 62.6321 298.883 63.7574 297.757C64.8826 296.632 66.4087 296 68 296M68 296C69.0609 296 70.0783 295.579 70.8284 294.828C71.5786 294.078 72 293.061 72 292C72 290.939 71.5786 289.922 70.8284 289.172C70.0783 288.421 69.0609 288 68 288C66.9391 288 65.9217 288.421 65.1716 289.172C64.4214 289.922 64 290.939 64 292C64 293.061 64.4214 294.078 65.1716 294.828C65.9217 295.579 66.9391 296 68 296ZM106 304V302C106 300.409 105.368 298.883 104.243 297.757C103.117 296.632 101.591 296 100 296M100 296C101.061 296 102.078 295.579 102.828 294.828C103.579 294.078 104 293.061 104 292C104 290.939 103.579 289.922 102.828 289.172C102.078 288.421 101.061 288 100 288C98.9391 288 97.9217 288.421 97.1716 289.172C96.4214 289.922 96 290.939 96 292C96 293.061 96.4214 294.078 97.1716 294.828C97.9217 295.579 98.9391 296 100 296Z" stroke="#888888" stroke-width="3" stroke-linecap="round" stroke-linejoin="round"/>
<path d="M170.191 287V279.044H168.548V276.977H170.191V269.033H176.529C181.871 269.033 185.046 272.308 185.046 277.96V277.985C185.046 283.663 181.896 287 176.529 287H170.191ZM172.98 284.584H176.28C180.09 284.584 182.194 282.256 182.194 278.01V277.985C182.194 273.764 180.065 271.436 176.28 271.436H172.98V276.977H176.031V279.044H172.98V284.584ZM188.975 272.42L191.814 268.498H194.205L197.056 272.42H194.914L192.997 269.83L191.117 272.42H188.975ZM193.009 287.261C189.249 287.261 186.796 284.659 186.796 280.451V280.426C186.796 276.242 189.274 273.652 192.997 273.652C196.732 273.652 199.222 276.23 199.222 280.426V280.451C199.222 284.672 196.757 287.261 193.009 287.261ZM193.022 285.008C195.126 285.008 196.471 283.339 196.471 280.451V280.426C196.471 277.562 195.101 275.906 192.997 275.906C190.93 275.906 189.548 277.562 189.548 280.426V280.451C189.548 283.352 190.918 285.008 193.022 285.008ZM193.009 292.117C192.15 292.117 191.453 291.42 191.453 290.573C191.453 289.714 192.15 289.017 193.009 289.017C193.893 289.017 194.578 289.714 194.578 290.573C194.578 291.42 193.893 292.117 193.009 292.117ZM202.753 271.884C201.882 271.884 201.185 271.187 201.185 270.34C201.185 269.481 201.882 268.784 202.753 268.784C203.638 268.784 204.322 269.481 204.322 270.34C204.322 271.187 203.638 271.884 202.753 271.884ZM201.409 287V273.901H204.098V287H201.409ZM212.044 287V273.901H214.734V275.881H214.796C215.481 274.549 216.826 273.652 218.805 273.652C221.682 273.652 223.338 275.508 223.338 278.521V287H220.636V279.031C220.636 277.064 219.714 275.956 217.847 275.956C215.954 275.956 214.734 277.325 214.734 279.367V287H212.044ZM231.675 291.619C228.313 291.619 226.184 290.063 225.785 288.058L225.773 287.946H228.437L228.487 288.046C228.848 288.88 229.981 289.453 231.662 289.453C233.804 289.453 234.987 288.307 234.987 286.477V284.684H234.924C234.177 286.104 232.683 287.012 230.803 287.012C227.516 287.012 225.349 284.435 225.349 280.351V280.339C225.349 276.23 227.541 273.652 230.865 273.652C232.708 273.652 234.152 274.648 234.924 276.13H234.987V273.901H237.689V286.639C237.689 289.627 235.373 291.619 231.675 291.619ZM231.563 284.821C233.617 284.821 234.987 283.09 234.987 280.388V280.376C234.987 277.687 233.605 275.956 231.563 275.956C229.433 275.956 228.101 277.674 228.101 280.376V280.388C228.101 283.128 229.433 284.821 231.563 284.821ZM247.757 272.42C247.034 272.42 246.449 272.146 245.988 271.772L245.503 271.386C245.092 271.062 244.743 270.789 244.382 270.789C243.897 270.789 243.673 271.274 243.673 272.308V272.407H241.979V272.245C241.979 270.004 242.801 268.896 244.096 268.896C244.818 268.896 245.366 269.17 245.827 269.556L246.312 269.929C246.723 270.266 247.097 270.527 247.47 270.527C247.956 270.527 248.18 270.042 248.18 269.008V268.908H249.873V269.07C249.873 271.299 249.076 272.42 247.757 272.42ZM244.806 287.261C241.929 287.261 240.286 285.406 240.286 282.393V273.901H242.975V281.87C242.975 283.85 243.897 284.946 245.764 284.946C247.657 284.946 248.877 283.588 248.877 281.546V273.901H251.579V287H248.877V285.033H248.815C248.13 286.353 246.798 287.261 244.806 287.261ZM264.008 287.261C261.418 287.261 260.173 286.166 260.173 283.551V276.043H258.292V273.901H260.173V270.49H262.924V273.901H265.377V276.043H262.924V283.389C262.924 284.721 263.522 285.12 264.655 285.12C264.941 285.12 265.178 285.095 265.377 285.07V287.149C265.066 287.199 264.555 287.261 264.008 287.261ZM272.058 287.261C269.182 287.261 267.539 285.406 267.539 282.393V273.901H270.228V281.87C270.228 283.85 271.149 284.946 273.017 284.946C274.91 284.946 276.13 283.588 276.13 281.546V273.901C278.62 273.565 279.118 272.781 279.106 270.303H281.347C281.347 272.943 280.774 274.163 278.832 274.86V287H276.13V285.033H276.068C275.383 286.353 274.051 287.261 272.058 287.261ZM290.762 287L286.043 273.901H288.907L292.194 284.373H292.256L295.544 273.901H298.345L293.651 287H290.762ZM307.143 268.286L309.148 264.7H311.65L308.861 268.286H307.143ZM300.88 272.457L303.769 268.672H306.159L309.048 272.457H306.906L304.951 269.905L303.034 272.457H300.88ZM303.457 287.237C300.843 287.237 299.087 285.63 299.087 283.277V283.252C299.087 280.974 300.855 279.579 303.955 279.392L307.516 279.181V278.197C307.516 276.753 306.583 275.881 304.914 275.881C303.358 275.881 302.399 276.616 302.175 277.662L302.15 277.774H299.61L299.622 277.637C299.809 275.383 301.764 273.652 304.989 273.652C308.189 273.652 310.218 275.346 310.218 277.973V287H307.516V284.933H307.467C306.707 286.34 305.188 287.237 303.457 287.237ZM301.801 283.215C301.801 284.36 302.748 285.083 304.192 285.083C306.085 285.083 307.516 283.8 307.516 282.094V281.073L304.316 281.272C302.698 281.372 301.801 282.082 301.801 283.19V283.215ZM312.828 287V273.901H315.517V275.881H315.58C316.265 274.549 317.609 273.652 319.589 273.652C322.465 273.652 324.121 275.508 324.121 278.521V287H321.419V279.031C321.419 277.064 320.498 275.956 318.63 275.956C316.738 275.956 315.517 277.325 315.517 279.367V287H312.828ZM337.521 287.261C333.698 287.261 331.308 284.634 331.308 280.438V280.426C331.308 276.28 333.748 273.652 337.484 273.652C340.858 273.652 342.9 275.819 343.124 278.284L343.136 278.371H340.571L340.547 278.272C340.26 276.989 339.264 275.906 337.508 275.906C335.417 275.906 334.059 277.649 334.059 280.451V280.463C334.059 283.327 335.442 285.008 337.521 285.008C339.177 285.008 340.235 284.049 340.559 282.63L340.571 282.53H343.161L343.149 282.617C342.862 285.244 340.671 287.261 337.521 287.261ZM345.161 287V269.033H347.85V276.055H347.913C348.61 274.536 350.017 273.652 351.972 273.652C354.773 273.652 356.616 275.744 356.616 278.907V287H353.926V279.417C353.926 277.251 352.831 275.956 350.938 275.956C349.083 275.956 347.85 277.375 347.85 279.417V287H345.161ZM363.683 287.261C360.807 287.261 359.163 285.406 359.163 282.393V273.901H361.853V281.87C361.853 283.85 362.774 284.946 364.642 284.946C366.534 284.946 367.755 283.588 367.755 281.546V273.901H370.457V287H367.755V285.033H367.692C367.008 286.353 365.675 287.261 363.683 287.261ZM374.66 291.37C374.137 291.37 373.577 291.308 373.253 291.246V289.142C373.465 289.191 373.776 289.241 374.137 289.241C375.407 289.241 376.104 288.905 376.552 287.635L376.777 287.012L372.008 273.901H374.921L378.221 284.56H378.308L381.608 273.901H384.447L379.566 287.61C378.594 290.324 377.225 291.37 374.66 291.37ZM387.131 272.42L389.957 268.498H392.36L395.199 272.42H393.058L391.153 269.83L389.272 272.42H387.131ZM391.227 287.261C387.38 287.261 385.052 284.634 385.052 280.5V280.488C385.052 276.392 387.417 273.652 391.09 273.652C394.763 273.652 397.017 276.292 397.017 280.227V281.135H387.741C387.791 283.613 389.148 285.058 391.29 285.058C392.883 285.058 393.942 284.236 394.278 283.252L394.315 283.153H396.868L396.843 283.29C396.419 285.369 394.402 287.261 391.227 287.261ZM391.103 275.856C389.36 275.856 388.015 277.039 387.778 279.23H394.353C394.128 276.964 392.858 275.856 391.103 275.856ZM399.104 287V273.901H401.793V275.881H401.856C402.54 274.549 403.885 273.652 405.865 273.652C408.741 273.652 410.397 275.508 410.397 278.521V287H407.695V279.031C407.695 277.064 406.774 275.956 404.906 275.956C403.013 275.956 401.793 277.325 401.793 279.367V287H399.104ZM169.332 316V302.901H172.022V304.881H172.084C172.769 303.549 174.114 302.652 176.093 302.652C178.969 302.652 180.625 304.508 180.625 307.521V316H177.924V308.031C177.924 306.064 177.002 304.956 175.135 304.956C173.242 304.956 172.022 306.325 172.022 308.367V316H169.332ZM188.963 320.619C185.601 320.619 183.472 319.063 183.073 317.058L183.061 316.946H185.725L185.775 317.046C186.136 317.88 187.269 318.453 188.95 318.453C191.092 318.453 192.275 317.307 192.275 315.477V313.684H192.212C191.465 315.104 189.971 316.012 188.091 316.012C184.804 316.012 182.637 313.435 182.637 309.351V309.339C182.637 305.23 184.829 302.652 188.153 302.652C189.996 302.652 191.44 303.648 192.212 305.13H192.275V302.901H194.977V315.639C194.977 318.627 192.661 320.619 188.963 320.619ZM188.851 313.821C190.905 313.821 192.275 312.09 192.275 309.388V309.376C192.275 306.687 190.893 304.956 188.851 304.956C186.721 304.956 185.389 306.674 185.389 309.376V309.388C185.389 312.128 186.721 313.821 188.851 313.821ZM197.736 316V298.033H200.425V305.055H200.487C201.185 303.536 202.592 302.652 204.546 302.652C207.348 302.652 209.191 304.744 209.191 307.907V316H206.501V308.417C206.501 306.251 205.406 304.956 203.513 304.956C201.658 304.956 200.425 306.375 200.425 308.417V316H197.736ZM213.257 300.884C212.386 300.884 211.688 300.187 211.688 299.34C211.688 298.481 212.386 297.784 213.257 297.784C214.141 297.784 214.826 298.481 214.826 299.34C214.826 300.187 214.141 300.884 213.257 300.884ZM211.912 316V302.901H214.602V316H211.912ZM218.868 301.42L221.694 297.498H224.097L226.936 301.42H224.794L222.889 298.83L221.009 301.42H218.868ZM222.964 316.261C219.117 316.261 216.788 313.634 216.788 309.5V309.488C216.788 305.392 219.154 302.652 222.827 302.652C226.5 302.652 228.754 305.292 228.754 309.227V310.135H219.478C219.527 312.613 220.885 314.058 223.026 314.058C224.62 314.058 225.678 313.236 226.015 312.252L226.052 312.153H228.604L228.579 312.29C228.156 314.369 226.139 316.261 222.964 316.261ZM222.839 304.856C221.096 304.856 219.752 306.039 219.515 308.23H226.089C225.865 305.964 224.595 304.856 222.839 304.856ZM222.989 321.117C222.13 321.117 221.42 320.42 221.42 319.573C221.42 318.714 222.13 318.017 222.989 318.017C223.873 318.017 224.558 318.714 224.558 319.573C224.558 320.42 223.873 321.117 222.989 321.117ZM230.84 320.358V302.901H233.53V305.155H233.592C234.377 303.599 235.821 302.652 237.689 302.652C241.026 302.652 243.167 305.267 243.167 309.451V309.463C243.167 313.634 241.013 316.261 237.726 316.261C235.871 316.261 234.364 315.315 233.592 313.796H233.53V320.358H230.84ZM236.991 313.946C239.108 313.946 240.428 312.227 240.428 309.463V309.451C240.428 306.662 239.096 304.956 236.991 304.956C234.949 304.956 233.517 306.724 233.517 309.451V309.463C233.517 312.177 234.962 313.946 236.991 313.946Z" fill="#888888"/>
<path d="M76 406.5V398.5C76 394.08 79.59 390.5 84 390.5C88.42 390.5 92 394.09 92 398.5V406.5M68 402.5H100V434.5H68V402.5Z" stroke="#888888" stroke-width="3" stroke-linecap="round"/>
<path d="M89.2979 426.778C88.3287 427.728 87.2705 427.578 86.2518 427.128C85.1739 426.668 84.1849 426.648 83.0475 427.128C81.6234 427.748 80.8718 427.568 80.0212 426.778C75.195 421.748 75.9071 414.089 81.386 413.809C82.7212 413.879 83.6508 414.549 84.4321 414.609C85.5991 414.369 86.7167 413.679 87.9628 413.769C89.4562 413.889 90.5836 414.489 91.3253 415.569C88.2397 417.439 88.9716 421.548 91.8 422.698C91.2363 424.198 90.5045 425.688 89.288 426.788L89.2979 426.778ZM84.3332 413.749C84.1849 411.52 85.9749 409.68 88.032 409.5C88.3188 412.08 85.7178 413.999 84.3332 413.749Z" fill="#888888"/>
<path d="M169.656 393V375.033H172.445V382.628H181.671V375.033H184.46V393H181.671V385.044H172.445V393H169.656ZM188.925 378.42L191.752 374.498H194.155L196.994 378.42H194.852L192.947 375.83L191.067 378.42H188.925ZM193.022 393.261C189.174 393.261 186.846 390.634 186.846 386.5V386.488C186.846 382.392 189.212 379.652 192.885 379.652C196.558 379.652 198.812 382.292 198.812 386.227V387.135H189.535C189.585 389.613 190.942 391.058 193.084 391.058C194.678 391.058 195.736 390.236 196.072 389.252L196.11 389.153H198.662L198.637 389.29C198.214 391.369 196.197 393.261 193.022 393.261ZM192.897 381.856C191.154 381.856 189.809 383.039 189.573 385.23H196.147C195.923 382.964 194.653 381.856 192.897 381.856ZM193.047 398.117C192.188 398.117 191.478 397.42 191.478 396.573C191.478 395.714 192.188 395.017 193.047 395.017C193.931 395.017 194.616 395.714 194.616 396.573C194.616 397.42 193.931 398.117 193.047 398.117ZM210.667 393.261C208.077 393.261 206.832 392.166 206.832 389.551V382.043H204.952V379.901H206.832V376.49H209.584V379.901H212.037V382.043H209.584V389.389C209.584 390.721 210.182 391.12 211.315 391.12C211.601 391.12 211.838 391.095 212.037 391.07V393.149C211.726 393.199 211.215 393.261 210.667 393.261ZM214.36 393V375.033H217.05V382.055H217.112C217.809 380.536 219.216 379.652 221.171 379.652C223.973 379.652 225.815 381.744 225.815 384.907V393H223.126V385.417C223.126 383.251 222.03 381.956 220.138 381.956C218.282 381.956 217.05 383.375 217.05 385.417V393H214.36ZM236.232 374.286L238.236 370.7H240.739L237.963 374.286H236.232ZM229.969 378.457L232.858 374.672H235.248L238.149 378.457H235.995L234.04 375.905L232.123 378.457H229.969ZM234.053 393.261C230.293 393.261 227.84 390.659 227.84 386.451V386.426C227.84 382.242 230.318 379.652 234.04 379.652C237.776 379.652 240.266 382.23 240.266 386.426V386.451C240.266 390.672 237.801 393.261 234.053 393.261ZM234.065 391.008C236.17 391.008 237.514 389.339 237.514 386.451V386.426C237.514 383.562 236.145 381.906 234.04 381.906C231.974 381.906 230.591 383.562 230.591 386.426V386.451C230.591 389.352 231.961 391.008 234.065 391.008ZM242.34 393V379.901H245.03V381.881H245.092C245.777 380.549 247.121 379.652 249.101 379.652C251.977 379.652 253.633 381.508 253.633 384.521V393H250.932V385.031C250.932 383.064 250.01 381.956 248.142 381.956C246.25 381.956 245.03 383.325 245.03 385.367V393H242.34ZM261.971 397.619C258.609 397.619 256.48 396.063 256.081 394.058L256.069 393.946H258.733L258.783 394.046C259.144 394.88 260.277 395.453 261.958 395.453C264.1 395.453 265.283 394.307 265.283 392.477V390.684H265.22C264.473 392.104 262.979 393.012 261.099 393.012C257.812 393.012 255.645 390.435 255.645 386.351V386.339C255.645 382.23 257.837 379.652 261.161 379.652C263.004 379.652 264.448 380.648 265.22 382.13H265.283V379.901H267.985V392.639C267.985 395.627 265.669 397.619 261.971 397.619ZM261.859 390.821C263.913 390.821 265.283 389.09 265.283 386.388V386.376C265.283 383.687 263.901 381.956 261.859 381.956C259.729 381.956 258.397 383.674 258.397 386.376V386.388C258.397 389.128 259.729 390.821 261.859 390.821ZM281.447 393.261C277.624 393.261 275.233 390.634 275.233 386.438V386.426C275.233 382.28 277.674 379.652 281.409 379.652C284.783 379.652 286.825 381.819 287.05 384.284L287.062 384.371H284.497L284.472 384.272C284.186 382.989 283.19 381.906 281.434 381.906C279.342 381.906 277.985 383.649 277.985 386.451V386.463C277.985 389.327 279.367 391.008 281.447 391.008C283.103 391.008 284.161 390.049 284.485 388.63L284.497 388.53H287.087L287.074 388.617C286.788 391.244 284.597 393.261 281.447 393.261ZM293.494 378.42V378.382C294.241 377.822 294.702 377.299 294.702 376.813C294.702 376.228 294.017 375.892 293.108 375.892C292.722 375.892 292.461 375.929 292.261 375.967V374.498C292.598 374.373 293.146 374.261 293.756 374.261C295.262 374.261 296.557 375.083 296.557 376.378C296.557 377.175 296.121 377.834 295.237 378.42H293.494ZM293.444 393.261C290.568 393.261 288.925 391.406 288.925 388.393V379.901H291.614V387.87C291.614 389.85 292.535 390.946 294.403 390.946C296.296 390.946 297.516 389.588 297.516 387.546V379.901C300.006 379.565 300.504 378.781 300.492 376.303H302.733C302.733 378.943 302.16 380.163 300.218 380.86V393H297.516V391.033H297.454C296.769 392.353 295.437 393.261 293.444 393.261ZM307.223 393.237C304.608 393.237 302.852 391.63 302.852 389.277V389.252C302.852 386.974 304.62 385.579 307.721 385.392L311.282 385.181V384.197C311.282 382.753 310.348 381.881 308.679 381.881C307.123 381.881 306.164 382.616 305.94 383.662L305.915 383.774H303.375L303.388 383.637C303.575 381.383 305.529 379.652 308.754 379.652C311.954 379.652 313.984 381.346 313.984 383.973V393H311.282V390.933H311.232C310.472 392.34 308.953 393.237 307.223 393.237ZM305.567 389.215C305.567 390.36 306.513 391.083 307.957 391.083C309.85 391.083 311.282 389.8 311.282 388.094V387.073L308.082 387.272C306.463 387.372 305.567 388.082 305.567 389.19V389.215ZM321.868 393V375.033H324.557V382.055H324.619C325.317 380.536 326.723 379.652 328.678 379.652C331.48 379.652 333.323 381.744 333.323 384.907V393H330.633V385.417C330.633 383.251 329.537 381.956 327.645 381.956C325.79 381.956 324.557 383.375 324.557 385.417V393H321.868ZM340.589 378.42L337.75 374.498H340.352L342.544 378.42H340.589ZM339.78 393.237C337.165 393.237 335.409 391.63 335.409 389.277V389.252C335.409 386.974 337.177 385.579 340.278 385.392L343.839 385.181V384.197C343.839 382.753 342.905 381.881 341.236 381.881C339.68 381.881 338.721 382.616 338.497 383.662L338.472 383.774H335.932L335.945 383.637C336.131 381.383 338.086 379.652 341.311 379.652C344.511 379.652 346.541 381.346 346.541 383.973V393H343.839V390.933H343.789C343.029 392.34 341.51 393.237 339.78 393.237ZM338.124 389.215C338.124 390.36 339.07 391.083 340.514 391.083C342.407 391.083 343.839 389.8 343.839 388.094V387.073L340.639 387.272C339.02 387.372 338.124 388.082 338.124 389.19V389.215ZM349.15 393V379.901H351.84V381.881H351.902C352.587 380.549 353.932 379.652 355.911 379.652C358.788 379.652 360.444 381.508 360.444 384.521V393H357.742V385.031C357.742 383.064 356.82 381.956 354.953 381.956C353.06 381.956 351.84 383.325 351.84 385.367V393H349.15ZM368.781 397.619C365.419 397.619 363.29 396.063 362.891 394.058L362.879 393.946H365.543L365.593 394.046C365.954 394.88 367.087 395.453 368.768 395.453C370.91 395.453 372.093 394.307 372.093 392.477V390.684H372.03C371.283 392.104 369.789 393.012 367.909 393.012C364.622 393.012 362.456 390.435 362.456 386.351V386.339C362.456 382.23 364.647 379.652 367.971 379.652C369.814 379.652 371.258 380.648 372.03 382.13H372.093V379.901H374.795V392.639C374.795 395.627 372.479 397.619 368.781 397.619ZM368.669 390.821C370.723 390.821 372.093 389.09 372.093 386.388V386.376C372.093 383.687 370.711 381.956 368.669 381.956C366.539 381.956 365.207 383.674 365.207 386.376V386.388C365.207 389.128 366.539 390.821 368.669 390.821ZM386.227 393L381.508 379.901H384.372L387.659 390.373H387.721L391.008 379.901H393.81L389.116 393H386.227ZM399.731 378.42L396.893 374.498H399.495L401.686 378.42H399.731ZM398.922 393.237C396.307 393.237 394.552 391.63 394.552 389.277V389.252C394.552 386.974 396.32 385.579 399.42 385.392L402.981 385.181V384.197C402.981 382.753 402.047 381.881 400.379 381.881C398.823 381.881 397.864 382.616 397.64 383.662L397.615 383.774H395.075L395.087 383.637C395.274 381.383 397.229 379.652 400.454 379.652C403.654 379.652 405.683 381.346 405.683 383.973V393H402.981V390.933H402.931C402.172 392.34 400.653 393.237 398.922 393.237ZM397.266 389.215C397.266 390.36 398.212 391.083 399.657 391.083C401.549 391.083 402.981 389.8 402.981 388.094V387.073L399.781 387.272C398.163 387.372 397.266 388.082 397.266 389.19V389.215ZM173.927 422.261C171.337 422.261 170.092 421.166 170.092 418.551V411.043H168.212V408.901H170.092V405.49H172.844V408.901H175.296V411.043H172.844V418.389C172.844 419.721 173.441 420.12 174.574 420.12C174.861 420.12 175.097 420.095 175.296 420.07V422.149C174.985 422.199 174.475 422.261 173.927 422.261ZM177.52 422V408.901H180.209V411.143H180.272C180.695 409.611 181.791 408.652 183.285 408.652C183.671 408.652 184.007 408.715 184.219 408.752V411.255C184.007 411.167 183.534 411.105 183.011 411.105C181.28 411.105 180.209 412.238 180.209 414.193V422H177.52ZM190.34 422.261C187.463 422.261 185.82 420.406 185.82 417.393V408.901H188.509V416.87C188.509 418.85 189.431 419.946 191.298 419.946C193.191 419.946 194.411 418.588 194.411 416.546V408.901H197.113V422H194.411V420.033H194.349C193.664 421.353 192.332 422.261 190.34 422.261ZM199.773 422V408.901H202.462V410.881H202.524C203.209 409.549 204.554 408.652 206.534 408.652C209.41 408.652 211.066 410.508 211.066 413.521V422H208.364V414.031C208.364 412.064 207.442 410.956 205.575 410.956C203.682 410.956 202.462 412.325 202.462 414.367V422H199.773ZM219.403 426.619C216.041 426.619 213.912 425.063 213.514 423.058L213.501 422.946H216.166L216.215 423.046C216.577 423.88 217.71 424.453 219.39 424.453C221.532 424.453 222.715 423.307 222.715 421.477V419.684H222.653C221.906 421.104 220.411 422.012 218.531 422.012C215.244 422.012 213.078 419.435 213.078 415.351V415.339C213.078 411.23 215.269 408.652 218.594 408.652C220.436 408.652 221.881 409.648 222.653 411.13H222.715V408.901H225.417V421.639C225.417 424.627 223.101 426.619 219.403 426.619ZM219.291 419.821C221.345 419.821 222.715 418.09 222.715 415.388V415.376C222.715 412.687 221.333 410.956 219.291 410.956C217.162 410.956 215.829 412.674 215.829 415.376V415.388C215.829 418.128 217.162 419.821 219.291 419.821ZM237.845 422.261C235.256 422.261 234.01 421.166 234.01 418.551V411.043H232.13V408.901H234.01V405.49H236.762V408.901H239.215V411.043H236.762V418.389C236.762 419.721 237.36 420.12 238.493 420.12C238.779 420.12 239.016 420.095 239.215 420.07V422.149C238.904 422.199 238.393 422.261 237.845 422.261ZM242.659 407.42L245.498 403.498H247.888L250.727 407.42H248.586L246.681 404.83L244.8 407.42H242.659ZM245.186 422.237C242.572 422.237 240.816 420.63 240.816 418.277V418.252C240.816 415.974 242.584 414.579 245.685 414.392L249.246 414.181V413.197C249.246 411.753 248.312 410.881 246.643 410.881C245.087 410.881 244.128 411.616 243.904 412.662L243.879 412.774H241.339L241.352 412.637C241.538 410.383 243.493 408.652 246.718 408.652C249.918 408.652 251.947 410.346 251.947 412.973V422H249.246V419.933H249.196C248.436 421.34 246.917 422.237 245.186 422.237ZM243.53 418.215C243.53 419.36 244.477 420.083 245.921 420.083C247.814 420.083 249.246 418.8 249.246 417.094V416.073L246.046 416.272C244.427 416.372 243.53 417.082 243.53 418.19V418.215ZM254.557 422V408.901H257.247V410.931H257.309C257.869 409.561 259.201 408.652 260.92 408.652C262.725 408.652 264.045 409.586 264.568 411.23H264.63C265.302 409.636 266.846 408.652 268.714 408.652C271.304 408.652 272.997 410.371 272.997 412.998V422H270.295V413.645C270.295 411.939 269.386 410.956 267.793 410.956C266.199 410.956 265.091 412.151 265.091 413.807V422H262.451V413.446C262.451 411.927 261.492 410.956 259.973 410.956C258.38 410.956 257.247 412.213 257.247 413.907V422H254.557ZM287.729 422.261C285.849 422.261 284.392 421.315 283.62 419.784H283.558V422H280.869V404.033H283.558V411.13H283.62C284.405 409.586 285.899 408.652 287.754 408.652C291.041 408.652 293.208 411.267 293.208 415.438V415.451C293.208 419.622 291.054 422.261 287.729 422.261ZM287.02 419.946C289.136 419.946 290.456 418.24 290.456 415.451V415.438C290.456 412.674 289.136 410.956 287.02 410.956C284.99 410.956 283.546 412.724 283.546 415.438V415.451C283.546 418.177 284.978 419.946 287.02 419.946ZM299.578 407.42V407.382C300.325 406.822 300.773 406.299 300.773 405.813C300.773 405.228 300.088 404.892 299.192 404.892C298.793 404.892 298.532 404.929 298.333 404.967V403.498C298.669 403.373 299.217 403.261 299.827 403.261C301.346 403.261 302.628 404.083 302.628 405.378C302.628 406.175 302.192 406.834 301.308 407.42H299.578ZM299.129 422.237C296.515 422.237 294.759 420.63 294.759 418.277V418.252C294.759 415.974 296.527 414.579 299.627 414.392L303.189 414.181V413.197C303.189 411.753 302.255 410.881 300.586 410.881C299.03 410.881 298.071 411.616 297.847 412.662L297.822 412.774H295.282L295.294 412.637C295.481 410.383 297.436 408.652 300.661 408.652C303.861 408.652 305.89 410.346 305.89 412.973V422H303.189V419.933H303.139C302.379 421.34 300.86 422.237 299.129 422.237ZM297.473 418.215C297.473 419.36 298.42 420.083 299.864 420.083C301.757 420.083 303.189 418.8 303.189 417.094V416.073L299.989 416.272C298.37 416.372 297.473 417.082 297.473 418.19V418.215ZM314.128 422.261C310.368 422.261 307.915 419.659 307.915 415.451V415.426C307.915 411.242 310.393 408.652 314.116 408.652C317.851 408.652 320.341 411.23 320.341 415.426V415.451C320.341 419.672 317.876 422.261 314.128 422.261ZM314.14 420.008C316.245 420.008 317.589 418.339 317.589 415.451V415.426C317.589 412.562 316.22 410.906 314.116 410.906C312.049 410.906 310.667 412.562 310.667 415.426V415.451C310.667 418.352 312.036 420.008 314.14 420.008ZM327.69 422V404.033H330.379V411.055H330.441C331.139 409.536 332.546 408.652 334.5 408.652C337.302 408.652 339.145 410.744 339.145 413.907V422H336.455V414.417C336.455 412.251 335.36 410.956 333.467 410.956C331.612 410.956 330.379 412.375 330.379 414.417V422H327.69ZM346.411 407.42L343.572 403.498H346.174L348.366 407.42H346.411ZM345.602 422.237C342.987 422.237 341.231 420.63 341.231 418.277V418.252C341.231 415.974 342.999 414.579 346.1 414.392L349.661 414.181V413.197C349.661 411.753 348.727 410.881 347.059 410.881C345.502 410.881 344.543 411.616 344.319 412.662L344.294 412.774H341.754L341.767 412.637C341.954 410.383 343.908 408.652 347.133 408.652C350.333 408.652 352.363 410.346 352.363 412.973V422H349.661V419.933H349.611C348.851 421.34 347.332 422.237 345.602 422.237ZM343.946 418.215C343.946 419.36 344.892 420.083 346.336 420.083C348.229 420.083 349.661 418.8 349.661 417.094V416.073L346.461 416.272C344.842 416.372 343.946 417.082 343.946 418.19V418.215ZM354.972 422V408.901H357.662V410.881H357.724C358.409 409.549 359.754 408.652 361.733 408.652C364.61 408.652 366.266 410.508 366.266 413.521V422H363.564V414.031C363.564 412.064 362.642 410.956 360.775 410.956C358.882 410.956 357.662 412.325 357.662 414.367V422H354.972ZM368.962 422V404.033H371.652V411.055H371.714C372.411 409.536 373.818 408.652 375.773 408.652C378.575 408.652 380.417 410.744 380.417 413.907V422H377.728V414.417C377.728 412.251 376.632 410.956 374.74 410.956C372.884 410.956 371.652 412.375 371.652 414.417V422H368.962ZM393.83 422.261C390.007 422.261 387.616 419.634 387.616 415.438V415.426C387.616 411.28 390.057 408.652 393.792 408.652C397.167 408.652 399.209 410.819 399.433 413.284L399.445 413.371H396.88L396.855 413.272C396.569 411.989 395.573 410.906 393.817 410.906C391.725 410.906 390.368 412.649 390.368 415.451V415.463C390.368 418.327 391.75 420.008 393.83 420.008C395.486 420.008 396.544 419.049 396.868 417.63L396.88 417.53H399.47L399.458 417.617C399.171 420.244 396.98 422.261 393.83 422.261ZM401.47 422V404.033H404.159V411.055H404.221C404.919 409.536 406.325 408.652 408.28 408.652C411.082 408.652 412.925 410.744 412.925 413.907V422H410.235V414.417C410.235 412.251 409.139 410.956 407.247 410.956C405.392 410.956 404.159 412.375 404.159 414.417V422H401.47ZM419.992 422.261C417.116 422.261 415.472 420.406 415.472 417.393V408.901H418.161V416.87C418.161 418.85 419.083 419.946 420.951 419.946C422.843 419.946 424.063 418.588 424.063 416.546V408.901H426.765V422H424.063V420.033H424.001C423.316 421.353 421.984 422.261 419.992 422.261ZM436.883 403.323V403.273C437.555 402.788 437.904 402.315 437.904 401.891C437.904 401.393 437.319 401.082 436.534 401.082C436.148 401.082 435.899 401.119 435.737 401.157V399.75C436.061 399.625 436.584 399.526 437.169 399.526C438.539 399.526 439.709 400.273 439.709 401.456C439.709 402.178 439.361 402.813 438.564 403.323H436.883ZM430.695 407.457L433.583 403.672H435.974L438.863 407.457H436.721L434.766 404.905L432.849 407.457H430.695ZM433.272 422.237C430.657 422.237 428.902 420.63 428.902 418.277V418.252C428.902 415.974 430.67 414.579 433.77 414.392L437.331 414.181V413.197C437.331 411.753 436.397 410.881 434.729 410.881C433.172 410.881 432.214 411.616 431.99 412.662L431.965 412.774H429.425L429.437 412.637C429.624 410.383 431.579 408.652 434.804 408.652C438.004 408.652 440.033 410.346 440.033 412.973V422H437.331V419.933H437.281C436.522 421.34 435.003 422.237 433.272 422.237ZM431.616 418.215C431.616 419.36 432.562 420.083 434.007 420.083C435.899 420.083 437.331 418.8 437.331 417.094V416.073L434.131 416.272C432.513 416.372 431.616 417.082 431.616 418.19V418.215ZM442.643 422V408.901H445.332V410.881H445.394C446.079 409.549 447.424 408.652 449.404 408.652C452.28 408.652 453.936 410.508 453.936 413.521V422H451.234V414.031C451.234 412.064 450.313 410.956 448.445 410.956C446.552 410.956 445.332 412.325 445.332 414.367V422H442.643ZM168.324 451L174.861 433.033H177.874L184.398 451H181.472L179.829 446.144H172.906L171.25 451H168.324ZM176.342 436.009L173.653 443.903H179.069L176.392 436.009H176.342ZM186.062 455.358V437.901H188.751V440.155H188.813C189.598 438.599 191.042 437.652 192.91 437.652C196.247 437.652 198.388 440.267 198.388 444.451V444.463C198.388 448.634 196.234 451.261 192.947 451.261C191.092 451.261 189.585 450.315 188.813 448.796H188.751V455.358H186.062ZM192.212 448.946C194.329 448.946 195.649 447.227 195.649 444.463V444.451C195.649 441.662 194.317 439.956 192.212 439.956C190.17 439.956 188.739 441.724 188.739 444.451V444.463C188.739 447.177 190.183 448.946 192.212 448.946ZM200.475 455.358V437.901H203.164V440.155H203.227C204.011 438.599 205.455 437.652 207.323 437.652C210.66 437.652 212.802 440.267 212.802 444.451V444.463C212.802 448.634 210.648 451.261 207.36 451.261C205.505 451.261 203.999 450.315 203.227 448.796H203.164V455.358H200.475ZM206.626 448.946C208.742 448.946 210.062 447.227 210.062 444.463V444.451C210.062 441.662 208.73 439.956 206.626 439.956C204.584 439.956 203.152 441.724 203.152 444.451V444.463C203.152 447.177 204.596 448.946 206.626 448.946ZM214.988 451V433.033H217.677V451H214.988ZM226.027 451.261C222.18 451.261 219.851 448.634 219.851 444.5V444.488C219.851 440.392 222.217 437.652 225.89 437.652C229.563 437.652 231.817 440.292 231.817 444.227V445.135H222.541C222.59 447.613 223.948 449.058 226.089 449.058C227.683 449.058 228.741 448.236 229.077 447.252L229.115 447.153H231.667L231.642 447.29C231.219 449.369 229.202 451.261 226.027 451.261ZM225.902 439.856C224.159 439.856 222.815 441.039 222.578 443.23H229.152C228.928 440.964 227.658 439.856 225.902 439.856Z" fill="#888888"/>
</g>
<rect x="1.5" y="1.5" width="526.5" height="495" rx="22.5" stroke="#D9D9D9" stroke-width="3"/>
<g clip-path="url(#clip1_639_439)">
<rect y="522" width="529.5" height="524" rx="24" fill="white"/>
<rect width="529.5" height="170" transform="translate(0 522)" fill="#D9D9D9"/>
<path d="M150.555 597L139.235 563.18H147.063L154.797 589.758H154.938L162.649 563.18H170.501L159.18 597H150.555ZM176.587 569.062L170.845 561.047H176.915L181.181 569.062H176.587ZM174.829 597V571.875H181.673V597H174.829ZM206.104 597.516C199.143 597.516 195.276 594.305 194.737 589.547L194.713 589.336H201.393L201.44 589.547C201.885 591.516 203.362 592.664 206.104 592.664C208.682 592.664 210.252 591.656 210.252 590.039V590.016C210.252 588.68 209.409 587.906 206.948 587.367L202.682 586.477C197.807 585.445 195.346 583.008 195.346 579.258V579.234C195.346 574.453 199.471 571.359 205.87 571.359C212.549 571.359 216.276 574.898 216.44 579.305V579.539H210.135L210.112 579.352C209.877 577.547 208.401 576.188 205.87 576.188C203.502 576.188 202.026 577.242 202.026 578.859V578.883C202.026 580.172 202.893 581.016 205.424 581.555L209.69 582.469C214.94 583.57 217.096 585.633 217.096 589.336V589.359C217.096 594.281 212.573 597.516 206.104 597.516ZM227.94 597.398C222.901 597.398 219.503 594.234 219.503 589.805V589.758C219.503 585.188 223.042 582.516 229.276 582.117L235.487 581.742V580.195C235.487 577.969 234.034 576.586 231.362 576.586C228.808 576.586 227.261 577.781 226.933 579.398L226.886 579.609H220.628L220.651 579.328C221.026 574.688 225.011 571.359 231.644 571.359C238.136 571.359 242.331 574.711 242.331 579.773V597H235.487V593.25H235.347C233.917 595.828 231.245 597.398 227.94 597.398ZM226.276 589.453C226.276 591.305 227.8 592.406 230.167 592.406C233.237 592.406 235.487 590.438 235.487 587.812V586.008L230.308 586.336C227.659 586.5 226.276 587.625 226.276 589.406V589.453ZM258.285 597.516C250.644 597.516 245.84 592.617 245.84 584.438V584.391C245.84 576.305 250.761 571.359 258.261 571.359C265.785 571.359 270.73 576.258 270.73 584.391V584.438C270.73 592.641 265.879 597.516 258.285 597.516ZM258.308 592.148C261.636 592.148 263.769 589.336 263.769 584.438V584.391C263.769 579.539 261.59 576.727 258.261 576.727C254.957 576.727 252.8 579.539 252.8 584.391V584.438C252.8 589.359 254.933 592.148 258.308 592.148ZM295.255 597.516C287.591 597.516 282.856 592.523 282.856 584.414V584.391C282.856 576.352 287.661 571.359 295.185 571.359C302.005 571.359 306.341 575.555 306.599 580.992V581.156H300.247L300.2 580.945C299.778 578.555 298.114 576.727 295.278 576.727C291.927 576.727 289.817 579.609 289.817 584.414V584.438C289.817 589.359 291.927 592.148 295.302 592.148C298.044 592.148 299.755 590.461 300.224 587.93L300.247 587.719H306.622V587.859C306.294 593.344 301.958 597.516 295.255 597.516ZM310.084 597V563.18H316.927V576.211H317.068C318.357 573.094 321.005 571.359 324.779 571.359C330.216 571.359 333.591 575.156 333.591 581.227V597H326.748V582.633C326.748 579.117 325.013 577.031 321.896 577.031C318.873 577.031 316.927 579.328 316.927 582.609V597H310.084ZM349.522 597.516C341.881 597.516 337.076 592.617 337.076 584.438V584.391C337.076 576.305 341.998 571.359 349.498 571.359C357.022 571.359 361.967 576.258 361.967 584.391V584.438C361.967 592.641 357.115 597.516 349.522 597.516ZM349.545 592.148C352.873 592.148 355.006 589.336 355.006 584.438V584.391C355.006 579.539 352.826 576.727 349.498 576.727C346.194 576.727 344.037 579.539 344.037 584.391V584.438C344.037 589.359 346.17 592.148 349.545 592.148ZM349.522 607.336C347.483 607.336 345.865 605.719 345.865 603.773C345.865 601.828 347.483 600.211 349.522 600.211C351.584 600.211 353.178 601.828 353.178 603.773C353.178 605.719 351.584 607.336 349.522 607.336ZM365.499 597V571.875H372.343V576H372.483C373.772 573.117 376.35 571.359 380.147 571.359C385.679 571.359 388.819 574.898 388.819 580.781V597H381.975V582.188C381.975 578.906 380.429 577.031 377.358 577.031C374.288 577.031 372.343 579.281 372.343 582.562V597H365.499ZM163.873 652V618.18H170.951V631.914H186.186V618.18H193.264V652H186.186V637.75H170.951V652H163.873ZM209.733 652.516C202.046 652.516 197.382 647.523 197.382 639.484V639.461C197.382 631.469 202.093 626.359 209.452 626.359C216.811 626.359 221.428 631.352 221.428 638.945V641.055H204.132C204.202 645.062 206.382 647.406 209.874 647.406C212.686 647.406 214.397 645.859 214.889 644.453L214.936 644.312H221.218L221.147 644.57C220.374 648.273 216.905 652.516 209.733 652.516ZM209.569 631.469C206.757 631.469 204.647 633.344 204.202 636.742H214.866C214.444 633.273 212.405 631.469 209.569 631.469ZM235.296 652.516C228.335 652.516 224.468 649.305 223.929 644.547L223.906 644.336H230.585L230.632 644.547C231.078 646.516 232.554 647.664 235.296 647.664C237.874 647.664 239.445 646.656 239.445 645.039V645.016C239.445 643.68 238.601 642.906 236.14 642.367L231.874 641.477C226.999 640.445 224.538 638.008 224.538 634.258V634.234C224.538 629.453 228.663 626.359 235.062 626.359C241.742 626.359 245.468 629.898 245.632 634.305V634.539H239.328L239.304 634.352C239.07 632.547 237.593 631.188 235.062 631.188C232.695 631.188 231.218 632.242 231.218 633.859V633.883C231.218 635.172 232.085 636.016 234.617 636.555L238.882 637.469C244.132 638.57 246.288 640.633 246.288 644.336V644.359C246.288 649.281 241.765 652.516 235.296 652.516ZM249.656 652V626.875H256.5V631.094H256.641C257.672 628.234 260.297 626.359 263.672 626.359C267.188 626.359 269.742 628.234 270.586 631.539H270.727C271.852 628.375 274.852 626.359 278.531 626.359C283.453 626.359 286.758 629.758 286.758 634.82V652H279.914V636.531C279.914 633.625 278.461 632.031 275.812 632.031C273.211 632.031 271.5 633.93 271.5 636.719V652H264.914V636.32C264.914 633.625 263.391 632.031 260.859 632.031C258.258 632.031 256.5 634 256.5 636.836V652H249.656ZM298.563 652.398C293.524 652.398 290.126 649.234 290.126 644.805V644.758C290.126 640.188 293.665 637.516 299.899 637.117L306.11 636.742V635.195C306.11 632.969 304.657 631.586 301.985 631.586C299.43 631.586 297.883 632.781 297.555 634.398L297.508 634.609H291.251L291.274 634.328C291.649 629.688 295.633 626.359 302.266 626.359C308.758 626.359 312.954 629.711 312.954 634.773V652H306.11V648.25H305.969C304.54 650.828 301.868 652.398 298.563 652.398ZM296.899 644.453C296.899 646.305 298.422 647.406 300.79 647.406C303.86 647.406 306.11 645.438 306.11 642.812V641.008L300.93 641.336C298.282 641.5 296.899 642.625 296.899 644.406V644.453ZM317.376 652V626.875H324.22V631H324.361C325.65 628.117 328.228 626.359 332.025 626.359C337.556 626.359 340.697 629.898 340.697 635.781V652H333.853V637.188C333.853 633.906 332.306 632.031 329.236 632.031C326.165 632.031 324.22 634.281 324.22 637.562V652H317.376ZM351.353 641.055L351.33 639.695C351.096 636.367 352.314 634.234 355.549 632.336C358.572 630.531 359.486 629.359 359.486 627.18V627.156C359.486 624.906 357.682 623.312 355.033 623.312C352.338 623.312 350.58 625.07 350.439 627.484L350.416 627.672H344.064V627.438C344.252 621.93 348.26 617.875 355.455 617.875C362.135 617.875 366.588 621.578 366.588 626.945V626.969C366.588 630.484 364.877 632.945 361.572 634.891C358.455 636.695 357.588 637.867 357.588 640.094V641.055H351.353ZM354.564 652.281C352.455 652.281 350.744 650.664 350.744 648.602C350.744 646.539 352.455 644.922 354.564 644.922C356.697 644.922 358.408 646.539 358.408 648.602C358.408 650.664 356.697 652.281 354.564 652.281Z" fill="black"/>
<path d="M105 766C105.003 764.498 104.63 763.019 103.915 761.698C103.2 760.377 102.166 759.256 100.907 758.437C99.6478 757.618 98.2037 757.127 96.7064 757.01C95.209 756.892 93.7059 757.15 92.3341 757.762C90.9623 758.374 89.7655 759.319 88.8527 760.512C87.9399 761.705 87.3401 763.107 87.1081 764.591C86.876 766.075 87.0191 767.594 87.5242 769.008C88.0293 770.423 88.8805 771.689 90 772.69V784L96 781.16L102 784V772.69C102.943 771.849 103.698 770.818 104.215 769.666C104.732 768.513 104.999 767.264 105 766ZM99 779.26L96 777.84L93 779.26V774.475C94.939 775.174 97.061 775.174 99 774.475V779.26ZM96 772C94.8133 772 93.6533 771.648 92.6666 770.989C91.6799 770.33 90.9108 769.392 90.4567 768.296C90.0026 767.2 89.8838 765.993 90.1153 764.829C90.3468 763.666 90.9182 762.596 91.7574 761.757C92.5965 760.918 93.6656 760.347 94.8295 760.115C95.9933 759.884 97.1997 760.003 98.2961 760.457C99.3925 760.911 100.33 761.68 100.989 762.667C101.648 763.653 102 764.813 102 766C101.998 767.591 101.365 769.116 100.24 770.24C99.1157 771.365 97.5907 771.998 96 772ZM73.5 760H84V763H73.5V760ZM73.5 751H88.5V754H73.5V751Z" fill="#888888"/>
<path d="M69 784C68.2044 784 67.4413 783.684 66.8787 783.121C66.3161 782.559 66 781.796 66 781V745C66 744.204 66.3161 743.441 66.8787 742.879C67.4413 742.316 68.2044 742 69 742H93C93.7956 742 94.5587 742.316 95.1213 742.879C95.6839 743.441 96 744.204 96 745V751H93V745H69V781H84V784H69Z" fill="#888888"/>
<path d="M177.338 758.299C172.246 758.299 169.009 754.713 169.009 749.01V748.998C169.009 743.295 172.246 739.734 177.338 739.734C181.298 739.734 184.274 742.175 184.834 745.723L184.859 745.835H182.095L182.02 745.586C181.422 743.482 179.754 742.199 177.338 742.199C174.001 742.199 171.86 744.839 171.86 748.998V749.01C171.86 753.169 174.014 755.833 177.338 755.833C179.729 755.833 181.385 754.588 182.057 752.31L182.095 752.198H184.859L184.846 752.322C184.286 755.896 181.31 758.299 177.338 758.299ZM187.157 758V740.033H189.847V747.055H189.909C190.606 745.536 192.013 744.652 193.968 744.652C196.77 744.652 198.612 746.744 198.612 749.907V758H195.923V750.417C195.923 748.251 194.827 746.956 192.935 746.956C191.079 746.956 189.847 748.375 189.847 750.417V758H187.157ZM203.376 743.42H201.434L203.613 739.498H206.215L203.376 743.42ZM201.334 758V744.901H204.023V758H201.334ZM206.795 758V744.901H209.484V746.881H209.547C210.232 745.549 211.576 744.652 213.556 744.652C216.432 744.652 218.088 746.508 218.088 749.521V758H215.386V750.031C215.386 748.064 214.465 746.956 212.597 746.956C210.705 746.956 209.484 748.325 209.484 750.367V758H206.795ZM220.785 758V740.033H223.474V747.055H223.537C224.234 745.536 225.641 744.652 227.596 744.652C230.397 744.652 232.24 746.744 232.24 749.907V758H229.551V750.417C229.551 748.251 228.455 746.956 226.562 746.956C224.707 746.956 223.474 748.375 223.474 750.417V758H220.785ZM244.93 758.261C241.655 758.261 239.738 756.643 239.464 754.252L239.452 754.14H242.116L242.141 754.265C242.39 755.472 243.287 756.182 244.943 756.182C246.561 756.182 247.532 755.51 247.532 754.451V754.439C247.532 753.592 247.059 753.107 245.652 752.771L243.511 752.285C241.02 751.712 239.788 750.517 239.788 748.612V748.599C239.788 746.259 241.83 744.652 244.843 744.652C247.943 744.652 249.811 746.383 249.948 748.612L249.96 748.761H247.433L247.42 748.674C247.258 747.529 246.362 746.732 244.843 746.732C243.399 746.732 242.49 747.417 242.49 748.462V748.475C242.49 749.284 243.025 749.832 244.432 750.168L246.561 750.654C249.238 751.276 250.259 752.335 250.259 754.215V754.227C250.259 756.618 248.018 758.261 244.93 758.261ZM258.397 743.42H256.455L258.634 739.498H261.248L258.397 743.42ZM256.193 758.237C253.579 758.237 251.823 756.63 251.823 754.277V754.252C251.823 751.974 253.591 750.579 256.691 750.392L260.252 750.181V749.197C260.252 747.753 259.319 746.881 257.65 746.881C256.094 746.881 255.135 747.616 254.911 748.662L254.886 748.774H252.346L252.358 748.637C252.545 746.383 254.5 744.652 257.725 744.652C260.925 744.652 262.954 746.346 262.954 748.973V758H260.252V755.933H260.203C259.443 757.34 257.924 758.237 256.193 758.237ZM254.537 754.215C254.537 755.36 255.484 756.083 256.928 756.083C258.821 756.083 260.252 754.8 260.252 753.094V752.073L257.052 752.272C255.434 752.372 254.537 753.082 254.537 754.19V754.215ZM271.192 758.261C267.369 758.261 264.979 755.634 264.979 751.438V751.426C264.979 747.28 267.419 744.652 271.155 744.652C274.529 744.652 276.571 746.819 276.795 749.284L276.807 749.371H274.242L274.217 749.272C273.931 747.989 272.935 746.906 271.179 746.906C269.088 746.906 267.73 748.649 267.73 751.451V751.463C267.73 754.327 269.113 756.008 271.192 756.008C272.848 756.008 273.906 755.049 274.23 753.63L274.242 753.53H276.832L276.82 753.617C276.533 756.244 274.342 758.261 271.192 758.261ZM278.832 758V740.033H281.521V747.055H281.583C282.281 745.536 283.688 744.652 285.643 744.652C288.444 744.652 290.287 746.744 290.287 749.907V758H287.597V750.417C287.597 748.251 286.502 746.956 284.609 746.956C282.754 746.956 281.521 748.375 281.521 750.417V758H278.832ZM305.031 758.261C303.151 758.261 301.694 757.315 300.922 755.784H300.86V758H298.171V740.033H300.86V747.13H300.922C301.707 745.586 303.201 744.652 305.056 744.652C308.343 744.652 310.51 747.267 310.51 751.438V751.451C310.51 755.622 308.356 758.261 305.031 758.261ZM304.322 755.946C306.438 755.946 307.758 754.24 307.758 751.451V751.438C307.758 748.674 306.438 746.956 304.322 746.956C302.292 746.956 300.848 748.724 300.848 751.438V751.451C300.848 754.177 302.28 755.946 304.322 755.946ZM318.635 743.42H316.693L318.872 739.498H321.487L318.635 743.42ZM316.431 758.237C313.817 758.237 312.061 756.63 312.061 754.277V754.252C312.061 751.974 313.829 750.579 316.93 750.392L320.491 750.181V749.197C320.491 747.753 319.557 746.881 317.888 746.881C316.332 746.881 315.373 747.616 315.149 748.662L315.124 748.774H312.584L312.597 748.637C312.783 746.383 314.738 744.652 317.963 744.652C321.163 744.652 323.192 746.346 323.192 748.973V758H320.491V755.933H320.441C319.681 757.34 318.162 758.237 316.431 758.237ZM314.775 754.215C314.775 755.36 315.722 756.083 317.166 756.083C319.059 756.083 320.491 754.8 320.491 753.094V752.073L317.291 752.272C315.672 752.372 314.775 753.082 314.775 754.19V754.215ZM325.802 758V744.901H328.492V746.881H328.554C329.239 745.549 330.583 744.652 332.563 744.652C335.439 744.652 337.095 746.508 337.095 749.521V758H334.393V750.031C334.393 748.064 333.472 746.956 331.604 746.956C329.712 746.956 328.492 748.325 328.492 750.367V758H325.802ZM344.967 758V740.033H347.656V747.055H347.718C348.416 745.536 349.823 744.652 351.777 744.652C354.579 744.652 356.422 746.744 356.422 749.907V758H353.732V750.417C353.732 748.251 352.637 746.956 350.744 746.956C348.889 746.956 347.656 748.375 347.656 750.417V758H344.967ZM363.688 743.42L360.849 739.498H363.452L365.643 743.42H363.688ZM362.879 758.237C360.264 758.237 358.508 756.63 358.508 754.277V754.252C358.508 751.974 360.277 750.579 363.377 750.392L366.938 750.181V749.197C366.938 747.753 366.004 746.881 364.336 746.881C362.779 746.881 361.82 747.616 361.596 748.662L361.571 748.774H359.031L359.044 748.637C359.231 746.383 361.185 744.652 364.41 744.652C367.61 744.652 369.64 746.346 369.64 748.973V758H366.938V755.933H366.888C366.129 757.34 364.61 758.237 362.879 758.237ZM361.223 754.215C361.223 755.36 362.169 756.083 363.613 756.083C365.506 756.083 366.938 754.8 366.938 753.094V752.073L363.738 752.272C362.119 752.372 361.223 753.082 361.223 754.19V754.215ZM372.249 758V744.901H374.939V746.881H375.001C375.686 745.549 377.031 744.652 379.01 744.652C381.887 744.652 383.543 746.508 383.543 749.521V758H380.841V750.031C380.841 748.064 379.919 746.956 378.052 746.956C376.159 746.956 374.939 748.325 374.939 750.367V758H372.249ZM391.88 762.619C388.518 762.619 386.389 761.063 385.99 759.058L385.978 758.946H388.643L388.692 759.046C389.053 759.88 390.187 760.453 391.867 760.453C394.009 760.453 395.192 759.307 395.192 757.477V755.684H395.13C394.383 757.104 392.888 758.012 391.008 758.012C387.721 758.012 385.555 755.435 385.555 751.351V751.339C385.555 747.23 387.746 744.652 391.071 744.652C392.913 744.652 394.358 745.648 395.13 747.13H395.192V744.901H397.894V757.639C397.894 760.627 395.578 762.619 391.88 762.619ZM391.768 755.821C393.822 755.821 395.192 754.09 395.192 751.388V751.376C395.192 748.687 393.81 746.956 391.768 746.956C389.639 746.956 388.306 748.674 388.306 751.376V751.388C388.306 754.128 389.639 755.821 391.768 755.821ZM405.827 758V740.033H408.517V758H405.827ZM415.733 758.261C412.857 758.261 411.214 756.406 411.214 753.393V744.901H413.903V752.87C413.903 754.85 414.825 755.946 416.692 755.946C418.585 755.946 419.805 754.588 419.805 752.546V744.901H422.507V758H419.805V756.033H419.743C419.058 757.353 417.726 758.261 415.733 758.261ZM426.76 743.42L429.599 739.498H431.99L434.841 743.42H432.699L430.782 740.83L428.902 743.42H426.76ZM430.794 758.261C427.034 758.261 424.581 755.659 424.581 751.451V751.426C424.581 747.242 427.059 744.652 430.782 744.652C434.517 744.652 437.007 747.23 437.007 751.426V751.451C437.007 755.672 434.542 758.261 430.794 758.261ZM430.807 756.008C432.911 756.008 434.256 754.339 434.256 751.451V751.426C434.256 748.562 432.886 746.906 430.782 746.906C428.715 746.906 427.333 748.562 427.333 751.426V751.451C427.333 754.352 428.702 756.008 430.807 756.008ZM439.082 758V744.901H441.771V746.881H441.833C442.518 745.549 443.863 744.652 445.843 744.652C448.719 744.652 450.375 746.508 450.375 749.521V758H447.673V750.031C447.673 748.064 446.752 746.956 444.884 746.956C442.991 746.956 441.771 748.325 441.771 750.367V758H439.082ZM173.927 787.261C171.337 787.261 170.092 786.166 170.092 783.551V776.043H168.212V773.901H170.092V770.49H172.844V773.901H175.296V776.043H172.844V783.389C172.844 784.721 173.441 785.12 174.574 785.12C174.861 785.12 175.097 785.095 175.296 785.07V787.149C174.985 787.199 174.475 787.261 173.927 787.261ZM185.003 768.286L187.008 764.7H189.511L186.734 768.286H185.003ZM178.74 772.457L181.629 768.672H184.02L186.921 772.457H184.767L182.812 769.905L180.894 772.457H178.74ZM182.824 787.261C179.064 787.261 176.611 784.659 176.611 780.451V780.426C176.611 776.242 179.089 773.652 182.812 773.652C186.547 773.652 189.037 776.23 189.037 780.426V780.451C189.037 784.672 186.572 787.261 182.824 787.261ZM182.837 785.008C184.941 785.008 186.286 783.339 186.286 780.451V780.426C186.286 777.562 184.916 775.906 182.812 775.906C180.745 775.906 179.363 777.562 179.363 780.426V780.451C179.363 783.352 180.732 785.008 182.837 785.008ZM195.706 787.261C193.116 787.261 191.871 786.166 191.871 783.551V776.043H189.991V773.901H191.871V770.49H194.623V773.901H197.076V776.043H194.623V783.389C194.623 784.721 195.221 785.12 196.354 785.12C196.64 785.12 196.877 785.095 197.076 785.07V787.149C196.764 787.199 196.254 787.261 195.706 787.261ZM204.474 787V773.901H207.163V775.881H207.226C207.911 774.549 209.255 773.652 211.235 773.652C214.111 773.652 215.767 775.508 215.767 778.521V787H213.065V779.031C213.065 777.064 212.144 775.956 210.276 775.956C208.384 775.956 207.163 777.325 207.163 779.367V787H204.474ZM218.464 787V769.033H221.153V776.055H221.216C221.913 774.536 223.32 773.652 225.275 773.652C228.076 773.652 229.919 775.744 229.919 778.907V787H227.23V779.417C227.23 777.251 226.134 775.956 224.241 775.956C222.386 775.956 221.153 777.375 221.153 779.417V787H218.464ZM240.062 768.286L242.066 764.7H244.569L241.78 768.286H240.062ZM233.799 772.457L236.687 768.672H239.078L241.967 772.457H239.825L237.87 769.905L235.953 772.457H233.799ZM236.376 787.237C233.761 787.237 232.006 785.63 232.006 783.277V783.252C232.006 780.974 233.774 779.579 236.874 779.392L240.435 779.181V778.197C240.435 776.753 239.501 775.881 237.833 775.881C236.277 775.881 235.318 776.616 235.094 777.662L235.069 777.774H232.529L232.541 777.637C232.728 775.383 234.683 773.652 237.908 773.652C241.108 773.652 243.137 775.346 243.137 777.973V787H240.435V784.933H240.385C239.626 786.34 238.107 787.237 236.376 787.237ZM234.72 783.215C234.72 784.36 235.666 785.083 237.111 785.083C239.003 785.083 240.435 783.8 240.435 782.094V781.073L237.235 781.272C235.617 781.372 234.72 782.082 234.72 783.19V783.215ZM250.341 787.261C247.751 787.261 246.506 786.166 246.506 783.551V776.043H244.626V773.901H246.506V770.49H249.258V773.901H251.711V776.043H249.258V783.389C249.258 784.721 249.856 785.12 250.989 785.12C251.275 785.12 251.512 785.095 251.711 785.07V787.149C251.4 787.199 250.889 787.261 250.341 787.261ZM255.466 787.187C254.545 787.187 253.822 786.465 253.822 785.556C253.822 784.634 254.545 783.925 255.466 783.925C256.375 783.925 257.097 784.634 257.097 785.556C257.097 786.465 256.375 787.187 255.466 787.187Z" fill="#888888"/>
<path d="M66 869H84V872H66V869ZM63 861.5H78V864.5H63V861.5Z" fill="#888888"/>
<path d="M104.879 869.909L100.379 859.409C100.263 859.139 100.071 858.909 99.8256 858.748C99.5806 858.586 99.2935 858.5 99 858.5H94.5V855.5C94.5 855.102 94.342 854.721 94.0607 854.439C93.7794 854.158 93.3978 854 93 854H69V857H91.5V875.834C90.8169 876.231 90.2191 876.76 89.7408 877.389C89.2625 878.018 88.9132 878.736 88.713 879.5H79.287C78.9219 878.086 78.0537 876.854 76.845 876.034C75.6363 875.214 74.1702 874.864 72.7215 875.048C71.2728 875.232 69.9409 875.938 68.9755 877.034C68.0101 878.129 67.4775 879.54 67.4775 881C67.4775 882.46 68.0101 883.871 68.9755 884.966C69.9409 886.062 71.2728 886.768 72.7215 886.952C74.1702 887.136 75.6363 886.786 76.845 885.966C78.0537 885.146 78.9219 883.914 79.287 882.5H88.713C89.0393 883.787 89.7856 884.929 90.8337 885.745C91.8818 886.56 93.1719 887.003 94.5 887.003C95.8281 887.003 97.1182 886.56 98.1663 885.745C99.2145 884.929 99.9607 883.787 100.287 882.5H103.5C103.898 882.5 104.279 882.342 104.561 882.061C104.842 881.779 105 881.398 105 881V870.5C105 870.297 104.959 870.096 104.879 869.909ZM73.5 884C72.9067 884 72.3267 883.824 71.8333 883.494C71.34 883.165 70.9554 882.696 70.7284 882.148C70.5013 881.6 70.4419 880.997 70.5577 880.415C70.6734 879.833 70.9591 879.298 71.3787 878.879C71.7983 878.459 72.3328 878.173 72.9147 878.058C73.4967 877.942 74.0999 878.001 74.6481 878.228C75.1962 878.455 75.6648 878.84 75.9944 879.333C76.3241 879.827 76.5 880.407 76.5 881C76.5 881.796 76.1839 882.559 75.6213 883.121C75.0587 883.684 74.2957 884 73.5 884ZM94.5 861.5H98.01L101.226 869H94.5V861.5ZM94.5 884C93.9067 884 93.3267 883.824 92.8333 883.494C92.34 883.165 91.9554 882.696 91.7284 882.148C91.5013 881.6 91.4419 880.997 91.5577 880.415C91.6734 879.833 91.9591 879.298 92.3787 878.879C92.7983 878.459 93.3328 878.173 93.9147 878.058C94.4967 877.942 95.0999 878.001 95.6481 878.228C96.1962 878.455 96.6648 878.84 96.9944 879.333C97.3241 879.827 97.5 880.407 97.5 881C97.5 881.796 97.1839 882.559 96.6213 883.121C96.0587 883.684 95.2957 884 94.5 884ZM102 879.5H100.287C99.9566 878.215 99.2092 877.076 98.1619 876.262C97.1146 875.448 95.8267 875.004 94.5 875V872H102V879.5Z" fill="#888888"/>
<path d="M177.388 864.299C172.246 864.299 169.009 860.713 169.009 854.936V854.923C169.009 849.258 172.246 845.734 177.351 845.734C181.559 845.734 184.199 848.162 184.946 851.399L184.996 851.624H182.132L182.095 851.487C181.335 849.407 179.704 848.199 177.363 848.199C173.927 848.199 171.847 850.702 171.847 854.911V854.923C171.847 859.219 173.989 861.833 177.413 861.833C180.327 861.833 182.344 859.991 182.381 857.264V856.965H177.662V854.687H185.133V856.529C185.133 861.398 182.257 864.299 177.388 864.299ZM188.988 848.884C188.116 848.884 187.419 848.187 187.419 847.34C187.419 846.481 188.116 845.784 188.988 845.784C189.872 845.784 190.556 846.481 190.556 847.34C190.556 848.187 189.872 848.884 188.988 848.884ZM187.643 864V850.901H190.332V864H187.643ZM196.951 864.237C194.336 864.237 192.581 862.63 192.581 860.277V860.252C192.581 857.974 194.349 856.579 197.449 856.392L201.01 856.181V855.197C201.01 853.753 200.076 852.881 198.408 852.881C196.852 852.881 195.893 853.616 195.669 854.662L195.644 854.774H193.104L193.116 854.637C193.303 852.383 195.258 850.652 198.483 850.652C201.683 850.652 203.712 852.346 203.712 854.973V864H201.01V861.933H200.961C200.201 863.34 198.682 864.237 196.951 864.237ZM195.295 860.215C195.295 861.36 196.242 862.083 197.686 862.083C199.578 862.083 201.01 860.8 201.01 859.094V858.073L197.81 858.272C196.192 858.372 195.295 859.082 195.295 860.19V860.215ZM211.95 864.261C208.19 864.261 205.737 861.659 205.737 857.451V857.426C205.737 853.242 208.214 850.652 211.937 850.652C215.673 850.652 218.163 853.23 218.163 857.426V857.451C218.163 861.672 215.698 864.261 211.95 864.261ZM211.962 862.008C214.066 862.008 215.411 860.339 215.411 857.451V857.426C215.411 854.562 214.042 852.906 211.937 852.906C209.87 852.906 208.488 854.562 208.488 857.426V857.451C208.488 860.352 209.858 862.008 211.962 862.008ZM225.511 864V846.033H228.201V853.055H228.263C228.96 851.536 230.367 850.652 232.322 850.652C235.124 850.652 236.966 852.744 236.966 855.907V864H234.277V856.417C234.277 854.251 233.181 852.956 231.289 852.956C229.433 852.956 228.201 854.375 228.201 856.417V864H225.511ZM244.233 849.42L241.394 845.498H243.996L246.188 849.42H244.233ZM243.424 864.237C240.809 864.237 239.053 862.63 239.053 860.277V860.252C239.053 857.974 240.821 856.579 243.922 856.392L247.483 856.181V855.197C247.483 853.753 246.549 852.881 244.88 852.881C243.324 852.881 242.365 853.616 242.141 854.662L242.116 854.774H239.576L239.589 854.637C239.775 852.383 241.73 850.652 244.955 850.652C248.155 850.652 250.184 852.346 250.184 854.973V864H247.483V861.933H247.433C246.673 863.34 245.154 864.237 243.424 864.237ZM241.767 860.215C241.767 861.36 242.714 862.083 244.158 862.083C246.051 862.083 247.483 860.8 247.483 859.094V858.073L244.283 858.272C242.664 858.372 241.767 859.082 241.767 860.19V860.215ZM252.794 864V850.901H255.484V852.881H255.546C256.231 851.549 257.575 850.652 259.555 850.652C262.431 850.652 264.087 852.508 264.087 855.521V864H261.385V856.031C261.385 854.064 260.464 852.956 258.596 852.956C256.704 852.956 255.484 854.325 255.484 856.367V864H252.794ZM272.425 868.619C269.063 868.619 266.934 867.063 266.535 865.058L266.523 864.946H269.187L269.237 865.046C269.598 865.88 270.731 866.453 272.412 866.453C274.554 866.453 275.737 865.307 275.737 863.477V861.684H275.674C274.927 863.104 273.433 864.012 271.553 864.012C268.266 864.012 266.099 861.435 266.099 857.351V857.339C266.099 853.23 268.291 850.652 271.615 850.652C273.458 850.652 274.902 851.648 275.674 853.13H275.737V850.901H278.438V863.639C278.438 866.627 276.123 868.619 272.425 868.619ZM272.312 861.821C274.367 861.821 275.737 860.09 275.737 857.388V857.376C275.737 854.687 274.354 852.956 272.312 852.956C270.183 852.956 268.851 854.674 268.851 857.376V857.388C268.851 860.128 270.183 861.821 272.312 861.821ZM289.871 864L285.152 850.901H288.016L291.303 861.373H291.365L294.652 850.901H297.454L292.76 864H289.871ZM303.375 849.42L300.536 845.498H303.139L305.33 849.42H303.375ZM302.566 864.237C299.951 864.237 298.196 862.63 298.196 860.277V860.252C298.196 857.974 299.964 856.579 303.064 856.392L306.625 856.181V855.197C306.625 853.753 305.691 852.881 304.023 852.881C302.466 852.881 301.508 853.616 301.283 854.662L301.259 854.774H298.719L298.731 854.637C298.918 852.383 300.873 850.652 304.097 850.652C307.297 850.652 309.327 852.346 309.327 854.973V864H306.625V861.933H306.575C305.816 863.34 304.297 864.237 302.566 864.237ZM300.91 860.215C300.91 861.36 301.856 862.083 303.301 862.083C305.193 862.083 306.625 860.8 306.625 859.094V858.073L303.425 858.272C301.806 858.372 300.91 859.082 300.91 860.19V860.215ZM317.211 864V846.033H319.9V864H317.211ZM327.079 844.875L329.084 841.289H331.587L328.798 844.875H327.079ZM328.013 849.507C325.573 849.507 324.016 848 324.016 845.821V845.697H325.822V845.747C325.822 846.867 326.644 847.813 328.013 847.813C329.383 847.813 330.217 846.867 330.217 845.747V845.697H332.023V845.821C332.023 848 330.454 849.507 328.013 849.507ZM326.507 864.237C323.892 864.237 322.136 862.63 322.136 860.277V860.252C322.136 857.974 323.904 856.579 327.005 856.392L330.566 856.181V855.197C330.566 853.753 329.632 852.881 327.964 852.881C326.407 852.881 325.448 853.616 325.224 854.662L325.199 854.774H322.659L322.672 854.637C322.859 852.383 324.813 850.652 328.038 850.652C331.238 850.652 333.268 852.346 333.268 854.973V864H330.566V861.933H330.516C329.756 863.34 328.237 864.237 326.507 864.237ZM324.851 860.215C324.851 861.36 325.797 862.083 327.241 862.083C329.134 862.083 330.566 860.8 330.566 859.094V858.073L327.366 858.272C325.747 858.372 324.851 859.082 324.851 860.19V860.215ZM335.877 868.358V850.901H338.567V853.155H338.629C339.413 851.599 340.858 850.652 342.725 850.652C346.062 850.652 348.204 853.267 348.204 857.451V857.463C348.204 861.634 346.05 864.261 342.763 864.261C340.908 864.261 339.401 863.315 338.629 861.796H338.567V868.358H335.877ZM342.028 861.946C344.145 861.946 345.465 860.227 345.465 857.463V857.451C345.465 854.662 344.132 852.956 342.028 852.956C339.986 852.956 338.554 854.724 338.554 857.451V857.463C338.554 860.177 339.999 861.946 342.028 861.946ZM360.359 864.261C357.022 864.261 354.88 861.622 354.88 857.451V857.438C354.88 853.267 357.047 850.652 360.334 850.652C362.189 850.652 363.683 851.586 364.467 853.13H364.517V849.407H362.127V847.714H364.517V846.033H367.219V847.714H368.639V849.407H367.219V864H364.517V861.784H364.467C363.683 863.315 362.239 864.261 360.359 864.261ZM361.068 861.946C363.098 861.946 364.53 860.177 364.53 857.451V857.438C364.53 854.724 363.085 852.956 361.068 852.956C358.952 852.956 357.632 854.674 357.632 857.438V857.451C357.632 860.24 358.939 861.946 361.068 861.946ZM375.781 849.457C373.353 849.457 371.796 847.926 371.796 845.709V845.585H373.626V845.647C373.626 846.78 374.436 847.751 375.781 847.751C377.138 847.751 377.947 846.78 377.947 845.647V845.585H379.777V845.709C379.777 847.926 378.208 849.457 375.781 849.457ZM374.274 864.237C371.659 864.237 369.904 862.63 369.904 860.277V860.252C369.904 857.974 371.672 856.579 374.772 856.392L378.333 856.181V855.197C378.333 853.753 377.399 852.881 375.731 852.881C374.174 852.881 373.216 853.616 372.991 854.662L372.967 854.774H370.427L370.439 854.637C370.626 852.383 372.581 850.652 375.805 850.652C379.005 850.652 381.035 852.346 381.035 854.973V864H378.333V861.933H378.283C377.524 863.34 376.005 864.237 374.274 864.237ZM372.618 860.215C372.618 861.36 373.564 862.083 375.009 862.083C376.901 862.083 378.333 860.8 378.333 859.094V858.073L375.133 858.272C373.514 858.372 372.618 859.082 372.618 860.19V860.215ZM375.781 869.117C374.909 869.117 374.212 868.42 374.212 867.573C374.212 866.714 374.909 866.017 375.781 866.017C376.665 866.017 377.349 866.714 377.349 867.573C377.349 868.42 376.665 869.117 375.781 869.117ZM388.239 864.261C385.649 864.261 384.404 863.166 384.404 860.551V853.043H382.524V850.901H384.404V847.49H387.156V850.901H389.609V853.043H387.156V860.389C387.156 861.721 387.753 862.12 388.887 862.12C389.173 862.12 389.409 862.095 389.609 862.07V864.149C389.297 864.199 388.787 864.261 388.239 864.261ZM401.601 864.261C399.012 864.261 397.766 863.166 397.766 860.551V853.043H395.886V850.901H397.766V847.49H400.518V850.901H402.971V853.043H400.518V860.389C400.518 861.721 401.116 862.12 402.249 862.12C402.535 862.12 402.772 862.095 402.971 862.07V864.149C402.66 864.199 402.149 864.261 401.601 864.261ZM405.294 864V846.033H407.984V853.055H408.046C408.743 851.536 410.15 850.652 412.105 850.652C414.907 850.652 416.749 852.744 416.749 855.907V864H414.06V856.417C414.06 854.251 412.964 852.956 411.072 852.956C409.216 852.956 407.984 854.375 407.984 856.417V864H405.294ZM424.95 864.261C421.102 864.261 418.774 861.634 418.774 857.5V857.488C418.774 853.392 421.14 850.652 424.813 850.652C428.486 850.652 430.739 853.292 430.739 857.227V858.135H421.463C421.513 860.613 422.87 862.058 425.012 862.058C426.606 862.058 427.664 861.236 428 860.252L428.037 860.153H430.59L430.565 860.29C430.142 862.369 428.125 864.261 424.95 864.261ZM424.825 852.856C423.082 852.856 421.737 854.039 421.501 856.23H428.075C427.851 853.964 426.581 852.856 424.825 852.856ZM438.454 864.261C434.694 864.261 432.241 861.659 432.241 857.451V857.426C432.241 853.242 434.719 850.652 438.442 850.652C442.177 850.652 444.667 853.23 444.667 857.426V857.451C444.667 861.672 442.202 864.261 438.454 864.261ZM438.466 862.008C440.571 862.008 441.915 860.339 441.915 857.451V857.426C441.915 854.562 440.546 852.906 438.442 852.906C436.375 852.906 434.993 854.562 434.993 857.426V857.451C434.993 860.352 436.362 862.008 438.466 862.008ZM170.876 897.37C170.353 897.37 169.793 897.308 169.469 897.246V895.142C169.681 895.191 169.992 895.241 170.353 895.241C171.623 895.241 172.321 894.905 172.769 893.635L172.993 893.012L168.224 879.901H171.138L174.437 890.56H174.524L177.824 879.901H180.663L175.782 893.61C174.811 896.324 173.441 897.37 170.876 897.37ZM183.347 878.42L186.174 874.498H188.577L191.416 878.42H189.274L187.369 875.83L185.489 878.42H183.347ZM187.444 893.261C183.596 893.261 181.268 890.634 181.268 886.5V886.488C181.268 882.392 183.634 879.652 187.307 879.652C190.98 879.652 193.233 882.292 193.233 886.227V887.135H183.957C184.007 889.613 185.364 891.058 187.506 891.058C189.1 891.058 190.158 890.236 190.494 889.252L190.532 889.153H193.084L193.059 889.29C192.636 891.369 190.619 893.261 187.444 893.261ZM187.319 881.856C185.576 881.856 184.231 883.039 183.995 885.23H190.569C190.345 882.964 189.075 881.856 187.319 881.856ZM199.778 893.261C196.901 893.261 195.258 891.406 195.258 888.393V879.901H197.947V887.87C197.947 889.85 198.869 890.946 200.736 890.946C202.629 890.946 203.849 889.588 203.849 887.546V879.901H206.551V893H203.849V891.033H203.787C203.102 892.353 201.77 893.261 199.778 893.261ZM220.013 893.261C216.191 893.261 213.8 890.634 213.8 886.438V886.426C213.8 882.28 216.24 879.652 219.976 879.652C223.35 879.652 225.392 881.819 225.616 884.284L225.629 884.371H223.064L223.039 884.272C222.752 882.989 221.756 881.906 220.001 881.906C217.909 881.906 216.552 883.649 216.552 886.451V886.463C216.552 889.327 217.934 891.008 220.013 891.008C221.669 891.008 222.727 890.049 223.051 888.63L223.064 888.53H225.653L225.641 888.617C225.355 891.244 223.163 893.261 220.013 893.261ZM235.248 874.286L232.459 870.7H234.962L236.966 874.286H235.248ZM228.412 878.457L231.301 874.672H233.692L236.58 878.457H234.439L232.484 875.905L230.567 878.457H228.412ZM231.401 893.237C228.786 893.237 227.03 891.63 227.03 889.277V889.252C227.03 886.974 228.798 885.579 231.899 885.392L235.46 885.181V884.197C235.46 882.753 234.526 881.881 232.858 881.881C231.301 881.881 230.342 882.616 230.118 883.662L230.093 883.774H227.553L227.566 883.637C227.753 881.383 229.707 879.652 232.932 879.652C236.132 879.652 238.162 881.346 238.162 883.973V893H235.46V890.933H235.41C234.651 892.34 233.131 893.237 231.401 893.237ZM229.745 889.215C229.745 890.36 230.691 891.083 232.135 891.083C234.028 891.083 235.46 889.8 235.46 888.094V887.073L232.26 887.272C230.641 887.372 229.745 888.082 229.745 889.19V889.215ZM245.229 893.261C242.353 893.261 240.709 891.406 240.709 888.393V879.901H243.399V887.87C243.399 889.85 244.32 890.946 246.188 890.946C248.08 890.946 249.3 889.588 249.3 887.546V879.901H252.002V893H249.3V891.033H249.238C248.553 892.353 247.221 893.261 245.229 893.261ZM256.193 893.187C255.272 893.187 254.55 892.465 254.55 891.556C254.55 890.634 255.272 889.925 256.193 889.925C257.102 889.925 257.824 890.634 257.824 891.556C257.824 892.465 257.102 893.187 256.193 893.187Z" fill="#888888"/>
<path d="M97.44 980.52C98.14 978.82 98.52 977 98.52 975C98.52 973.56 98.3 972.18 97.92 970.9C96.62 971.2 95.26 971.36 93.84 971.36C90.9319 971.363 88.0658 970.667 85.4831 969.33C82.9004 967.994 80.6769 966.056 79 963.68C77.2079 968.021 73.8234 971.513 69.54 973.44C69.46 973.94 69.46 974.48 69.46 975C69.46 976.909 69.8361 978.8 70.5668 980.564C71.2975 982.328 72.3685 983.931 73.7187 985.281C76.4454 988.008 80.1438 989.54 84 989.54C86.1 989.54 88.12 989.08 89.94 988.26C91.08 990.44 91.6 991.52 91.56 991.52C88.28 992.62 85.74 993.16 84 993.16C79.16 993.16 74.54 991.26 71.14 987.84C69.0701 985.78 67.5325 983.247 66.66 980.46H64V971.36H66.18C66.8405 968.145 68.359 965.169 70.5744 962.747C72.7898 960.325 75.6194 958.549 78.7631 957.605C81.9067 956.662 85.2471 956.587 88.4297 957.389C91.6124 958.191 94.5186 959.84 96.84 962.16C99.3596 964.671 101.079 967.872 101.78 971.36H104V980.46H103.88L96.76 987L86.16 985.8V982.46H95.82L97.44 980.52ZM78.54 974.54C79.14 974.54 79.72 974.78 80.14 975.22C80.5621 975.645 80.7989 976.221 80.7989 976.82C80.7989 977.419 80.5621 977.994 80.14 978.42C79.72 978.84 79.14 979.08 78.54 979.08C77.28 979.08 76.26 978.08 76.26 976.82C76.26 975.56 77.28 974.54 78.54 974.54ZM89.44 974.54C90.7 974.54 91.7 975.56 91.7 976.82C91.7 978.08 90.7 979.08 89.44 979.08C88.18 979.08 87.16 978.08 87.16 976.82C87.16 976.215 87.4002 975.635 87.8278 975.208C88.2554 974.78 88.8353 974.54 89.44 974.54Z" fill="#888888"/>
<path d="M169.656 970V952.033H172.445V959.628H181.671V952.033H184.46V970H181.671V962.044H172.445V970H169.656ZM195.001 950.726C194.23 950.726 193.619 950.439 193.121 950.053L192.648 949.692C192.25 949.381 191.851 949.132 191.49 949.132C190.967 949.132 190.743 949.593 190.743 950.589V950.701H189.037V950.526C189.037 948.41 189.822 947.351 191.142 947.351C191.901 947.351 192.549 947.638 193.034 948.024L193.507 948.372C193.906 948.696 194.279 948.945 194.653 948.945C195.151 948.945 195.412 948.484 195.412 947.488V947.376H197.118V947.538C197.118 949.667 196.296 950.726 195.001 950.726ZM188.975 955.457L191.864 951.672H194.254L197.156 955.457H195.001L193.047 952.905L191.129 955.457H188.975ZM193.059 970.261C189.299 970.261 186.846 967.659 186.846 963.451V963.426C186.846 959.242 189.324 956.652 193.047 956.652C196.782 956.652 199.272 959.23 199.272 963.426V963.451C199.272 967.672 196.807 970.261 193.059 970.261ZM193.072 968.008C195.176 968.008 196.521 966.339 196.521 963.451V963.426C196.521 960.562 195.151 958.906 193.047 958.906C190.98 958.906 189.598 960.562 189.598 963.426V963.451C189.598 966.352 190.967 968.008 193.072 968.008ZM211.116 970.261C208.526 970.261 207.281 969.166 207.281 966.551V959.043H205.4V956.901H207.281V953.49H210.032V956.901H212.485V959.043H210.032V966.389C210.032 967.721 210.63 968.12 211.763 968.12C212.049 968.12 212.286 968.095 212.485 968.07V970.149C212.174 970.199 211.663 970.261 211.116 970.261ZM214.709 970V956.901H217.398V959.143H217.461C217.884 957.611 218.98 956.652 220.474 956.652C220.86 956.652 221.196 956.715 221.408 956.752V959.255C221.196 959.167 220.723 959.105 220.2 959.105C218.469 959.105 217.398 960.238 217.398 962.193V970H214.709ZM228.126 970.261C224.366 970.261 221.913 967.659 221.913 963.451V963.426C221.913 959.242 224.391 956.652 228.114 956.652H228.126C231.463 956.453 232.285 955.669 232.335 953.303H234.576C234.526 955.756 233.854 956.989 231.6 957.599C233.318 958.707 234.339 960.736 234.339 963.426V963.451C234.339 967.672 231.874 970.261 228.126 970.261ZM228.139 968.008C230.243 968.008 231.588 966.339 231.588 963.451V963.426C231.588 960.562 230.218 958.906 228.114 958.906C226.047 958.906 224.665 960.562 224.665 963.426V963.451C224.665 966.352 226.034 968.008 228.139 968.008ZM228.126 975.117C227.267 975.117 226.57 974.42 226.57 973.573C226.57 972.714 227.267 972.017 228.126 972.017C229.01 972.017 229.695 972.714 229.695 973.573C229.695 974.42 229.01 975.117 228.126 975.117ZM241.737 970V952.033H244.427V962.492H244.489L249.744 956.901H252.906L247.527 962.554L253.118 970H249.993L245.548 964.173L244.427 965.281V970H241.737ZM257.732 955.42C257.01 955.42 256.437 955.146 255.964 954.772L255.491 954.386C255.08 954.062 254.731 953.789 254.37 953.789C253.885 953.789 253.661 954.274 253.661 955.308V955.407H251.967V955.245C251.967 953.004 252.789 951.896 254.084 951.896C254.794 951.896 255.342 952.17 255.815 952.556L256.3 952.929C256.711 953.266 257.072 953.527 257.446 953.527C257.944 953.527 258.155 953.042 258.155 952.008V951.908H259.849V952.07C259.849 954.299 259.064 955.42 257.732 955.42ZM254.57 970V956.901H257.259V970H254.57ZM269.8 970.261C267.21 970.261 265.965 969.166 265.965 966.551V959.043H264.084V956.901H265.965V953.49H268.716V956.901H271.169V959.043H268.716V966.389C268.716 967.721 269.314 968.12 270.447 968.12C270.733 968.12 270.97 968.095 271.169 968.07V970.149C270.858 970.199 270.347 970.261 269.8 970.261ZM273.492 970V952.033H276.182V959.055H276.244C276.941 957.536 278.348 956.652 280.303 956.652C283.105 956.652 284.948 958.744 284.948 961.907V970H282.258V962.417C282.258 960.251 281.162 958.956 279.27 958.956C277.415 958.956 276.182 960.375 276.182 962.417V970H273.492ZM292.015 970.261C289.139 970.261 287.495 968.406 287.495 965.393V956.901H290.184V964.87C290.184 966.85 291.106 967.946 292.973 967.946C294.866 967.946 296.086 966.588 296.086 964.546V956.901H298.788V970H296.086V968.033H296.024C295.339 969.353 294.007 970.261 292.015 970.261ZM302.767 955.42L305.606 951.498H307.997L310.836 955.42H308.694L306.789 952.83L304.909 955.42H302.767ZM305.295 970.237C302.68 970.237 300.925 968.63 300.925 966.277V966.252C300.925 963.974 302.693 962.579 305.793 962.392L309.354 962.181V961.197C309.354 959.753 308.42 958.881 306.752 958.881C305.195 958.881 304.237 959.616 304.013 960.662L303.988 960.774H301.448L301.46 960.637C301.647 958.383 303.602 956.652 306.827 956.652C310.026 956.652 312.056 958.346 312.056 960.973V970H309.354V967.933H309.304C308.545 969.34 307.026 970.237 305.295 970.237ZM303.639 966.215C303.639 967.36 304.585 968.083 306.03 968.083C307.922 968.083 309.354 966.8 309.354 965.094V964.073L306.154 964.272C304.536 964.372 303.639 965.082 303.639 966.19V966.215ZM306.802 975.117C305.93 975.117 305.233 974.42 305.233 973.573C305.233 972.714 305.93 972.017 306.802 972.017C307.686 972.017 308.37 972.714 308.37 973.573C308.37 974.42 307.686 975.117 306.802 975.117ZM319.26 970.261C316.67 970.261 315.425 969.166 315.425 966.551V959.043H313.545V956.901H315.425V953.49H318.177V956.901H320.63V959.043H318.177V966.389C318.177 967.721 318.775 968.12 319.908 968.12C320.194 968.12 320.431 968.095 320.63 968.07V970.149C320.318 970.199 319.808 970.261 319.26 970.261ZM331.626 970L326.907 956.901H329.771L333.058 967.373H333.121L336.408 956.901H339.209L334.515 970H331.626ZM345.131 955.42L342.292 951.498H344.894L347.086 955.42H345.131ZM344.322 970.237C341.707 970.237 339.951 968.63 339.951 966.277V966.252C339.951 963.974 341.719 962.579 344.82 962.392L348.381 962.181V961.197C348.381 959.753 347.447 958.881 345.778 958.881C344.222 958.881 343.263 959.616 343.039 960.662L343.014 960.774H340.474L340.487 960.637C340.673 958.383 342.628 956.652 345.853 956.652C349.053 956.652 351.082 958.346 351.082 960.973V970H348.381V967.933H348.331C347.571 969.34 346.052 970.237 344.322 970.237ZM342.665 966.215C342.665 967.36 343.612 968.083 345.056 968.083C346.949 968.083 348.381 966.8 348.381 965.094V964.073L345.181 964.272C343.562 964.372 342.665 965.082 342.665 966.19V966.215ZM365.827 970.261C363.947 970.261 362.49 969.315 361.718 967.784H361.656V970H358.966V952.033H361.656V959.13H361.718C362.502 957.586 363.997 956.652 365.852 956.652C369.139 956.652 371.305 959.267 371.305 963.438V963.451C371.305 967.622 369.151 970.261 365.827 970.261ZM365.117 967.946C367.234 967.946 368.554 966.24 368.554 963.451V963.438C368.554 960.674 367.234 958.956 365.117 958.956C363.088 958.956 361.643 960.724 361.643 963.438V963.451C361.643 966.177 363.075 967.946 365.117 967.946ZM377.675 955.42V955.382C378.422 954.822 378.871 954.299 378.871 953.813C378.871 953.228 378.186 952.892 377.289 952.892C376.891 952.892 376.629 952.929 376.43 952.967V951.498C376.766 951.373 377.314 951.261 377.924 951.261C379.443 951.261 380.726 952.083 380.726 953.378C380.726 954.175 380.29 954.834 379.406 955.42H377.675ZM377.227 970.237C374.612 970.237 372.857 968.63 372.857 966.277V966.252C372.857 963.974 374.625 962.579 377.725 962.392L381.286 962.181V961.197C381.286 959.753 380.352 958.881 378.684 958.881C377.127 958.881 376.169 959.616 375.945 960.662L375.92 960.774H373.38L373.392 960.637C373.579 958.383 375.534 956.652 378.759 956.652C381.959 956.652 383.988 958.346 383.988 960.973V970H381.286V967.933H381.236C380.477 969.34 378.958 970.237 377.227 970.237ZM375.571 966.215C375.571 967.36 376.517 968.083 377.962 968.083C379.854 968.083 381.286 966.8 381.286 965.094V964.073L378.086 964.272C376.468 964.372 375.571 965.082 375.571 966.19V966.215ZM392.226 970.261C388.465 970.261 386.013 967.659 386.013 963.451V963.426C386.013 959.242 388.49 956.652 392.213 956.652C395.949 956.652 398.439 959.23 398.439 963.426V963.451C398.439 967.672 395.973 970.261 392.226 970.261ZM392.238 968.008C394.342 968.008 395.687 966.339 395.687 963.451V963.426C395.687 960.562 394.317 958.906 392.213 958.906C390.146 958.906 388.764 960.562 388.764 963.426V963.451C388.764 966.352 390.134 968.008 392.238 968.008ZM405.787 970V952.033H408.477V959.055H408.539C409.236 957.536 410.643 956.652 412.598 956.652C415.4 956.652 417.242 958.744 417.242 961.907V970H414.553V962.417C414.553 960.251 413.457 958.956 411.565 958.956C409.709 958.956 408.477 960.375 408.477 962.417V970H405.787ZM424.509 955.42L421.67 951.498H424.272L426.464 955.42H424.509ZM423.699 970.237C421.085 970.237 419.329 968.63 419.329 966.277V966.252C419.329 963.974 421.097 962.579 424.197 962.392L427.758 962.181V961.197C427.758 959.753 426.825 958.881 425.156 958.881C423.6 958.881 422.641 959.616 422.417 960.662L422.392 960.774H419.852L419.864 960.637C420.051 958.383 422.006 956.652 425.231 956.652C428.431 956.652 430.46 958.346 430.46 960.973V970H427.758V967.933H427.709C426.949 969.34 425.43 970.237 423.699 970.237ZM422.043 966.215C422.043 967.36 422.99 968.083 424.434 968.083C426.327 968.083 427.758 966.8 427.758 965.094V964.073L424.559 964.272C422.94 964.372 422.043 965.082 422.043 966.19V966.215ZM433.07 970V956.901H435.759V958.881H435.822C436.507 957.549 437.851 956.652 439.831 956.652C442.707 956.652 444.363 958.508 444.363 961.521V970H441.661V962.031C441.661 960.064 440.74 958.956 438.872 958.956C436.98 958.956 435.759 960.325 435.759 962.367V970H433.07ZM447.06 970V952.033H449.749V959.055H449.812C450.509 957.536 451.916 956.652 453.871 956.652C456.672 956.652 458.515 958.744 458.515 961.907V970H455.826V962.417C455.826 960.251 454.73 958.956 452.837 958.956C450.982 958.956 449.749 960.375 449.749 962.417V970H447.06ZM173.927 999.261C171.337 999.261 170.092 998.166 170.092 995.551V988.043H168.212V985.901H170.092V982.49H172.844V985.901H175.296V988.043H172.844V995.389C172.844 996.721 173.441 997.12 174.574 997.12C174.861 997.12 175.097 997.095 175.296 997.07V999.149C174.985 999.199 174.475 999.261 173.927 999.261ZM177.52 999V985.901H180.209V988.143H180.272C180.695 986.611 181.791 985.652 183.285 985.652C183.671 985.652 184.007 985.715 184.219 985.752V988.255C184.007 988.167 183.534 988.105 183.011 988.105C181.28 988.105 180.209 989.238 180.209 991.193V999H177.52ZM190.937 999.261C187.177 999.261 184.724 996.659 184.724 992.451V992.426C184.724 988.242 187.202 985.652 190.925 985.652C194.66 985.652 197.15 988.23 197.15 992.426V992.451C197.15 996.672 194.685 999.261 190.937 999.261ZM190.95 997.008C193.054 997.008 194.399 995.339 194.399 992.451V992.426C194.399 989.562 193.029 987.906 190.925 987.906C188.858 987.906 187.476 989.562 187.476 992.426V992.451C187.476 995.352 188.846 997.008 190.95 997.008ZM190.937 1004.12C190.078 1004.12 189.381 1003.42 189.381 1002.57C189.381 1001.71 190.078 1001.02 190.937 1001.02C191.821 1001.02 192.506 1001.71 192.506 1002.57C192.506 1003.42 191.821 1004.12 190.937 1004.12ZM199.225 999V985.901H201.914V987.881H201.976C202.661 986.549 204.006 985.652 205.986 985.652C208.862 985.652 210.518 987.508 210.518 990.521V999H207.816V991.031C207.816 989.064 206.895 987.956 205.027 987.956C203.134 987.956 201.914 989.325 201.914 991.367V999H199.225ZM224.03 1003.62C220.668 1003.62 218.539 1002.06 218.14 1000.06L218.128 999.946H220.792L220.842 1000.05C221.203 1000.88 222.336 1001.45 224.017 1001.45C226.159 1001.45 227.342 1000.31 227.342 998.477V996.684H227.279C226.532 998.104 225.038 999.012 223.158 999.012C219.871 999.012 217.704 996.435 217.704 992.351V992.339C217.704 988.23 219.896 985.652 223.22 985.652C225.063 985.652 226.507 986.648 227.279 988.13H227.342V985.901H230.044V998.639C230.044 1001.63 227.728 1003.62 224.03 1003.62ZM223.918 996.821C225.972 996.821 227.342 995.09 227.342 992.388V992.376C227.342 989.687 225.96 987.956 223.918 987.956C221.788 987.956 220.456 989.674 220.456 992.376V992.388C220.456 995.128 221.788 996.821 223.918 996.821ZM239.041 984.42H237.086L239.265 980.498H241.88L239.041 984.42ZM238.331 999.261C234.571 999.261 232.118 996.659 232.118 992.451V992.426C232.118 988.242 234.596 985.652 238.319 985.652C242.054 985.652 244.544 988.23 244.544 992.426V992.451C244.544 996.672 242.079 999.261 238.331 999.261ZM238.343 997.008C240.448 997.008 241.792 995.339 241.792 992.451V992.426C241.792 989.562 240.423 987.906 238.319 987.906C236.252 987.906 234.87 989.562 234.87 992.426V992.451C234.87 995.352 236.239 997.008 238.343 997.008ZM248.075 983.884C247.204 983.884 246.506 983.187 246.506 982.34C246.506 981.481 247.204 980.784 248.075 980.784C248.959 980.784 249.644 981.481 249.644 982.34C249.644 983.187 248.959 983.884 248.075 983.884ZM246.73 999V985.901H249.42V999H246.73ZM253.723 999.187C252.801 999.187 252.079 998.465 252.079 997.556C252.079 996.634 252.801 995.925 253.723 995.925C254.632 995.925 255.354 996.634 255.354 997.556C255.354 998.465 254.632 999.187 253.723 999.187Z" fill="#888888"/>
</g>
<rect x="1.5" y="523.5" width="526.5" height="521" rx="22.5" stroke="#D9D9D9" stroke-width="3"/>
<defs>
<clipPath id="clip0_639_439">
<rect width="529.5" height="498" rx="24" fill="white"/>
</clipPath>
<clipPath id="clip1_639_439">
<rect y="522" width="529.5" height="524" rx="24" fill="white"/>
</clipPath>
</defs>
</svg>
