<svg width="1728" height="592" viewBox="0 0 1728 592" fill="none" xmlns="http://www.w3.org/2000/svg">
<g clip-path="url(#clip0_237_493)">
<rect width="848" height="592" rx="32" fill="white"/>
<rect width="848" height="128" fill="#D9D9D9"/>
<path d="M43.2541 81V47.1797H50.3323V60.9141H65.5666V47.1797H72.6448V81H65.5666V66.75H50.3323V81H43.2541ZM89.1141 81.5156C81.4266 81.5156 76.7626 76.5234 76.7626 68.4844V68.4609C76.7626 60.4688 81.4735 55.3594 88.8329 55.3594C96.1922 55.3594 100.809 60.3516 100.809 67.9453V70.0547H83.5126C83.5829 74.0625 85.7626 76.4062 89.2547 76.4062C92.0672 76.4062 93.7782 74.8594 94.2704 73.4531L94.3172 73.3125H100.598L100.528 73.5703C99.7547 77.2734 96.286 81.5156 89.1141 81.5156ZM88.9501 60.4688C86.1376 60.4688 84.0282 62.3438 83.5829 65.7422H94.2469C93.8251 62.2734 91.786 60.4688 88.9501 60.4688ZM114.677 81.5156C107.716 81.5156 103.849 78.3047 103.31 73.5469L103.287 73.3359H109.966L110.013 73.5469C110.458 75.5156 111.935 76.6641 114.677 76.6641C117.255 76.6641 118.826 75.6562 118.826 74.0391V74.0156C118.826 72.6797 117.982 71.9062 115.521 71.3672L111.255 70.4766C106.38 69.4453 103.919 67.0078 103.919 63.2578V63.2344C103.919 58.4531 108.044 55.3594 114.443 55.3594C121.123 55.3594 124.849 58.8984 125.013 63.3047V63.5391H118.708L118.685 63.3516C118.451 61.5469 116.974 60.1875 114.443 60.1875C112.076 60.1875 110.599 61.2422 110.599 62.8594V62.8828C110.599 64.1719 111.466 65.0156 113.998 65.5547L118.263 66.4688C123.513 67.5703 125.669 69.6328 125.669 73.3359V73.3594C125.669 78.2812 121.146 81.5156 114.677 81.5156ZM129.037 81V55.875H135.881V60.0938H136.022C137.053 57.2344 139.678 55.3594 143.053 55.3594C146.568 55.3594 149.123 57.2344 149.967 60.5391H150.108C151.233 57.375 154.233 55.3594 157.912 55.3594C162.834 55.3594 166.139 58.7578 166.139 63.8203V81H159.295V65.5312C159.295 62.625 157.842 61.0312 155.193 61.0312C152.592 61.0312 150.881 62.9297 150.881 65.7188V81H144.295V65.3203C144.295 62.625 142.772 61.0312 140.24 61.0312C137.639 61.0312 135.881 63 135.881 65.8359V81H129.037ZM177.944 81.3984C172.905 81.3984 169.507 78.2344 169.507 73.8047V73.7578C169.507 69.1875 173.046 66.5156 179.28 66.1172L185.491 65.7422V64.1953C185.491 61.9688 184.038 60.5859 181.366 60.5859C178.811 60.5859 177.264 61.7812 176.936 63.3984L176.889 63.6094H170.632L170.655 63.3281C171.03 58.6875 175.014 55.3594 181.647 55.3594C188.139 55.3594 192.335 58.7109 192.335 63.7734V81H185.491V77.25H185.35C183.921 79.8281 181.249 81.3984 177.944 81.3984ZM176.28 73.4531C176.28 75.3047 177.803 76.4062 180.171 76.4062C183.241 76.4062 185.491 74.4375 185.491 71.8125V70.0078L180.311 70.3359C177.663 70.5 176.28 71.625 176.28 73.4062V73.4531ZM196.757 81V55.875H203.601V60H203.742C205.031 57.1172 207.609 55.3594 211.406 55.3594C216.937 55.3594 220.078 58.8984 220.078 64.7812V81H213.234V66.1875C213.234 62.9062 211.687 61.0312 208.617 61.0312C205.546 61.0312 203.601 63.2812 203.601 66.5625V81H196.757ZM245.399 81.5156C237.735 81.5156 233.001 76.5234 233.001 68.4141V68.3906C233.001 60.3516 237.805 55.3594 245.329 55.3594C252.149 55.3594 256.485 59.5547 256.743 64.9922V65.1562H250.391L250.344 64.9453C249.922 62.5547 248.258 60.7266 245.422 60.7266C242.071 60.7266 239.962 63.6094 239.962 68.4141V68.4375C239.962 73.3594 242.071 76.1484 245.446 76.1484C248.188 76.1484 249.899 74.4609 250.368 71.9297L250.391 71.7188H256.766V71.8594C256.438 77.3438 252.102 81.5156 245.399 81.5156ZM273.259 53.0625H268.665L272.931 45.0469H279.001L273.259 53.0625ZM271.595 81.5156C263.954 81.5156 259.15 76.6172 259.15 68.4375V68.3906C259.15 60.3047 264.072 55.3594 271.572 55.3594C279.095 55.3594 284.04 60.2578 284.04 68.3906V68.4375C284.04 76.6406 279.189 81.5156 271.595 81.5156ZM271.618 76.1484C274.947 76.1484 277.079 73.3359 277.079 68.4375V68.3906C277.079 63.5391 274.9 60.7266 271.572 60.7266C268.267 60.7266 266.111 63.5391 266.111 68.3906V68.4375C266.111 73.3594 268.243 76.1484 271.618 76.1484ZM308.823 89.7188C301.909 89.7188 297.549 86.6016 296.893 82.5703L296.87 82.3594H303.526L303.596 82.5234C304.135 83.7656 305.963 84.8438 308.823 84.8438C312.362 84.8438 314.237 83.0156 314.237 80.2031V76.3594H314.096C312.784 78.9844 309.971 80.6484 306.338 80.6484C300.057 80.6484 296.167 75.9609 296.167 68.1562V68.1328C296.167 60.1172 300.104 55.3594 306.456 55.3594C309.995 55.3594 312.737 57.2344 314.096 60.1641H314.237V55.875H321.081V80.2969C321.081 85.8984 316.37 89.7188 308.823 89.7188ZM308.706 75.6328C312.057 75.6328 314.26 72.8203 314.26 68.3203V68.2969C314.26 63.8203 312.034 61.0312 308.706 61.0312C305.307 61.0312 303.127 63.7969 303.127 68.2969V68.3203C303.127 72.8438 305.284 75.6328 308.706 75.6328ZM327.472 53.0625L321.73 45.0469H327.8L332.066 53.0625H327.472ZM325.714 81V55.875H332.558V81H325.714ZM343.472 70.0547L343.449 68.6953C343.215 65.3672 344.433 63.2344 347.668 61.3359C350.691 59.5312 351.605 58.3594 351.605 56.1797V56.1562C351.605 53.9062 349.801 52.3125 347.152 52.3125C344.457 52.3125 342.699 54.0703 342.558 56.4844L342.535 56.6719H336.183V56.4375C336.371 50.9297 340.379 46.875 347.574 46.875C354.254 46.875 358.707 50.5781 358.707 55.9453V55.9688C358.707 59.4844 356.996 61.9453 353.691 63.8906C350.574 65.6953 349.707 66.8672 349.707 69.0938V70.0547H343.472ZM346.683 81.2812C344.574 81.2812 342.863 79.6641 342.863 77.6016C342.863 75.5391 344.574 73.9219 346.683 73.9219C348.816 73.9219 350.527 75.5391 350.527 77.6016C350.527 79.6641 348.816 81.2812 346.683 81.2812Z" fill="black"/>
<path d="M96.8336 263.6C93.5669 266.767 90.0002 266.267 86.5669 264.767C82.9336 263.233 79.6002 263.167 75.7669 264.767C70.9669 266.833 68.4336 266.233 65.5669 263.6C49.3002 246.833 51.7002 221.3 70.1669 220.367C74.6669 220.6 77.8002 222.833 80.4336 223.033C84.3669 222.233 88.1336 219.933 92.3336 220.233C97.3669 220.633 101.167 222.633 103.667 226.233C93.2669 232.467 95.7336 246.167 105.267 250C103.367 255 100.9 259.967 96.8002 263.633L96.8336 263.6ZM80.1002 220.167C79.6002 212.733 85.6336 206.6 92.5669 206C93.5336 214.6 84.7669 221 80.1002 220.167Z" fill="#888888"/>
<path d="M162.75 247V237.016H160.688V234.422H162.75V224.453H170.703C177.406 224.453 181.391 228.562 181.391 235.656V235.688C181.391 242.812 177.438 247 170.703 247H162.75ZM166.25 243.969H170.391C175.172 243.969 177.812 241.047 177.812 235.719V235.688C177.812 230.391 175.141 227.469 170.391 227.469H166.25V234.422H170.078V237.016H166.25V243.969ZM194.119 223.516L196.634 219.016H199.775L196.29 223.516H194.119ZM186.259 228.75L189.884 224H192.884L196.525 228.75H193.822L191.369 225.547L188.962 228.75H186.259ZM191.384 247.328C186.665 247.328 183.587 244.062 183.587 238.781V238.75C183.587 233.5 186.697 230.25 191.369 230.25C196.056 230.25 199.181 233.484 199.181 238.75V238.781C199.181 244.078 196.087 247.328 191.384 247.328ZM191.4 244.5C194.04 244.5 195.728 242.406 195.728 238.781V238.75C195.728 235.156 194.009 233.078 191.369 233.078C188.775 233.078 187.04 235.156 187.04 238.75V238.781C187.04 242.422 188.759 244.5 191.4 244.5ZM203.612 228.031C202.518 228.031 201.643 227.156 201.643 226.094C201.643 225.016 202.518 224.141 203.612 224.141C204.722 224.141 205.581 225.016 205.581 226.094C205.581 227.156 204.722 228.031 203.612 228.031ZM201.925 247V230.562H205.3V247H201.925ZM221.037 247.328C217.787 247.328 216.224 245.953 216.224 242.672V233.25H213.865V230.562H216.224V226.281H219.678V230.562H222.756V233.25H219.678V242.469C219.678 244.141 220.428 244.641 221.849 244.641C222.209 244.641 222.506 244.609 222.756 244.578V247.188C222.365 247.25 221.724 247.328 221.037 247.328ZM232.89 228.703H230.452L233.187 223.781H236.468L232.89 228.703ZM230.124 247.297C226.843 247.297 224.64 245.281 224.64 242.328V242.297C224.64 239.438 226.859 237.688 230.749 237.453L235.218 237.188V235.953C235.218 234.141 234.046 233.047 231.952 233.047C229.999 233.047 228.796 233.969 228.515 235.281L228.484 235.422H225.296L225.312 235.25C225.546 232.422 227.999 230.25 232.046 230.25C236.062 230.25 238.609 232.375 238.609 235.672V247H235.218V244.406H235.155C234.202 246.172 232.296 247.297 230.124 247.297ZM228.046 242.25C228.046 243.688 229.234 244.594 231.046 244.594C233.421 244.594 235.218 242.984 235.218 240.844V239.562L231.202 239.812C229.171 239.938 228.046 240.828 228.046 242.219V242.25ZM248.946 247.328C244.149 247.328 241.149 244.031 241.149 238.766V238.75C241.149 233.547 244.212 230.25 248.899 230.25C253.133 230.25 255.696 232.969 255.977 236.062L255.993 236.172H252.774L252.743 236.047C252.383 234.438 251.133 233.078 248.93 233.078C246.305 233.078 244.602 235.266 244.602 238.781V238.797C244.602 242.391 246.337 244.5 248.946 244.5C251.024 244.5 252.352 243.297 252.758 241.516L252.774 241.391H256.024L256.008 241.5C255.649 244.797 252.899 247.328 248.946 247.328ZM270.668 247.328C267.418 247.328 265.855 245.953 265.855 242.672V233.25H263.496V230.562H265.855V226.281H269.308V230.562H272.386V233.25H269.308V242.469C269.308 244.141 270.058 244.641 271.48 244.641C271.839 244.641 272.136 244.609 272.386 244.578V247.188C271.996 247.25 271.355 247.328 270.668 247.328ZM281.833 247.328C277.114 247.328 274.036 244.062 274.036 238.781V238.75C274.036 233.5 277.146 230.25 281.817 230.25C286.505 230.25 289.63 233.484 289.63 238.75V238.781C289.63 244.078 286.536 247.328 281.833 247.328ZM281.849 244.5C284.489 244.5 286.177 242.406 286.177 238.781V238.75C286.177 235.156 284.458 233.078 281.817 233.078C279.224 233.078 277.489 235.156 277.489 238.75V238.781C277.489 242.422 279.208 244.5 281.849 244.5ZM298.077 228.703L294.514 223.781H297.78L300.53 228.703H298.077ZM297.061 247.297C293.78 247.297 291.577 245.281 291.577 242.328V242.297C291.577 239.438 293.795 237.688 297.686 237.453L302.155 237.188V235.953C302.155 234.141 300.983 233.047 298.889 233.047C296.936 233.047 295.733 233.969 295.452 235.281L295.42 235.422H292.233L292.249 235.25C292.483 232.422 294.936 230.25 298.983 230.25C302.999 230.25 305.545 232.375 305.545 235.672V247H302.155V244.406H302.092C301.139 246.172 299.233 247.297 297.061 247.297ZM294.983 242.25C294.983 243.688 296.17 244.594 297.983 244.594C300.358 244.594 302.155 242.984 302.155 240.844V239.562L298.139 239.812C296.108 239.938 294.983 240.828 294.983 242.219V242.25ZM308.82 247V230.562H312.195V233.047H312.273C313.133 231.375 314.82 230.25 317.305 230.25C320.914 230.25 322.992 232.578 322.992 236.359V247H319.601V237C319.601 234.531 318.445 233.141 316.101 233.141C313.726 233.141 312.195 234.859 312.195 237.422V247H308.82ZM338.886 247.328C334.698 247.328 332.011 244.016 332.011 238.781V238.766C332.011 233.531 334.729 230.25 338.854 230.25C341.182 230.25 343.057 231.422 344.042 233.359H344.104V224.453H347.495V247H344.104V244.219H344.042C343.057 246.141 341.245 247.328 338.886 247.328ZM339.776 244.422C342.323 244.422 344.12 242.203 344.12 238.781V238.766C344.12 235.359 342.307 233.141 339.776 233.141C337.12 233.141 335.464 235.297 335.464 238.766V238.781C335.464 242.281 337.104 244.422 339.776 244.422ZM352.785 228.031C351.692 228.031 350.817 227.156 350.817 226.094C350.817 225.016 351.692 224.141 352.785 224.141C353.895 224.141 354.754 225.016 354.754 226.094C354.754 227.156 353.895 228.031 352.785 228.031ZM351.098 247V230.562H354.473V247H351.098ZM359.826 228.703L363.373 223.781H366.388L369.951 228.703H367.263L364.873 225.453L362.513 228.703H359.826ZM364.967 247.328C360.138 247.328 357.217 244.031 357.217 238.844V238.828C357.217 233.688 360.185 230.25 364.795 230.25C369.404 230.25 372.232 233.562 372.232 238.5V239.641H360.592C360.654 242.75 362.357 244.562 365.045 244.562C367.045 244.562 368.373 243.531 368.795 242.297L368.842 242.172H372.045L372.013 242.344C371.482 244.953 368.951 247.328 364.967 247.328ZM364.81 233.016C362.623 233.016 360.935 234.5 360.638 237.25H368.888C368.607 234.406 367.013 233.016 364.81 233.016ZM364.998 253.422C363.92 253.422 363.029 252.547 363.029 251.484C363.029 250.406 363.92 249.531 364.998 249.531C366.107 249.531 366.967 250.406 366.967 251.484C366.967 252.547 366.107 253.422 364.998 253.422ZM374.851 247V230.562H378.226V233.047H378.304C379.163 231.375 380.851 230.25 383.335 230.25C386.944 230.25 389.023 232.578 389.023 236.359V247H385.632V237C385.632 234.531 384.476 233.141 382.132 233.141C379.757 233.141 378.226 234.859 378.226 237.422V247H374.851ZM405.838 247.328C401.041 247.328 398.041 244.031 398.041 238.766V238.75C398.041 233.547 401.104 230.25 405.791 230.25C410.025 230.25 412.588 232.969 412.869 236.062L412.885 236.172H409.666L409.635 236.047C409.275 234.438 408.025 233.078 405.822 233.078C403.197 233.078 401.494 235.266 401.494 238.781V238.797C401.494 242.391 403.229 244.5 405.838 244.5C407.916 244.5 409.244 243.297 409.65 241.516L409.666 241.391H412.916L412.9 241.5C412.541 244.797 409.791 247.328 405.838 247.328ZM420.957 228.703V228.656C421.894 227.953 422.472 227.297 422.472 226.688C422.472 225.953 421.613 225.531 420.472 225.531C419.988 225.531 419.66 225.578 419.41 225.625V223.781C419.832 223.625 420.519 223.484 421.285 223.484C423.175 223.484 424.8 224.516 424.8 226.141C424.8 227.141 424.253 227.969 423.144 228.703H420.957ZM420.894 247.328C417.285 247.328 415.222 245 415.222 241.219V230.562H418.597V240.562C418.597 243.047 419.753 244.422 422.097 244.422C424.472 244.422 426.003 242.719 426.003 240.156V230.562H429.394V247H426.003V244.531H425.925C425.066 246.188 423.394 247.328 420.894 247.328ZM437.56 247.297C434.278 247.297 432.075 245.281 432.075 242.328V242.297C432.075 239.438 434.294 237.688 438.185 237.453L442.653 237.188V235.953C442.653 234.141 441.481 233.047 439.388 233.047C437.435 233.047 436.231 233.969 435.95 235.281L435.919 235.422H432.731L432.747 235.25C432.981 232.422 435.435 230.25 439.481 230.25C443.497 230.25 446.044 232.375 446.044 235.672V247H442.653V244.406H442.591C441.638 246.172 439.731 247.297 437.56 247.297ZM435.481 242.25C435.481 243.688 436.669 244.594 438.481 244.594C440.856 244.594 442.653 242.984 442.653 240.844V239.562L438.638 239.812C436.606 239.938 435.481 240.828 435.481 242.219V242.25ZM454.547 247L462.75 224.453H466.531L474.719 247H471.047L468.984 240.906H460.297L458.219 247H454.547ZM464.609 228.188L461.234 238.094H468.031L464.672 228.188H464.609ZM476.806 252.469V230.562H480.181V233.391H480.259C481.243 231.438 483.056 230.25 485.4 230.25C489.587 230.25 492.275 233.531 492.275 238.781V238.797C492.275 244.031 489.572 247.328 485.447 247.328C483.118 247.328 481.228 246.141 480.259 244.234H480.181V252.469H476.806ZM484.525 244.422C487.181 244.422 488.837 242.266 488.837 238.797V238.781C488.837 235.281 487.165 233.141 484.525 233.141C481.962 233.141 480.165 235.359 480.165 238.781V238.797C480.165 242.203 481.978 244.422 484.525 244.422ZM494.893 252.469V230.562H498.268V233.391H498.346C499.331 231.438 501.143 230.25 503.487 230.25C507.675 230.25 510.362 233.531 510.362 238.781V238.797C510.362 244.031 507.659 247.328 503.534 247.328C501.206 247.328 499.315 246.141 498.346 244.234H498.268V252.469H494.893ZM502.612 244.422C505.268 244.422 506.925 242.266 506.925 238.797V238.781C506.925 235.281 505.253 233.141 502.612 233.141C500.05 233.141 498.253 235.359 498.253 238.781V238.797C498.253 242.203 500.065 244.422 502.612 244.422ZM513.106 247V224.453H516.481V247H513.106ZM526.959 247.328C522.13 247.328 519.209 244.031 519.209 238.844V238.828C519.209 233.688 522.177 230.25 526.787 230.25C531.396 230.25 534.224 233.562 534.224 238.5V239.641H522.584C522.646 242.75 524.349 244.562 527.037 244.562C529.037 244.562 530.365 243.531 530.787 242.297L530.834 242.172H534.037L534.005 242.344C533.474 244.953 530.943 247.328 526.959 247.328ZM526.802 233.016C524.615 233.016 522.927 234.5 522.63 237.25H530.88C530.599 234.406 529.005 233.016 526.802 233.016ZM549.102 247.328C545.852 247.328 544.29 245.953 544.29 242.672V233.25H541.93V230.562H544.29V226.281H547.743V230.562H550.821V233.25H547.743V242.469C547.743 244.141 548.493 244.641 549.915 244.641C550.274 244.641 550.571 244.609 550.821 244.578V247.188C550.43 247.25 549.79 247.328 549.102 247.328ZM558.189 247.297C554.908 247.297 552.705 245.281 552.705 242.328V242.297C552.705 239.438 554.924 237.688 558.814 237.453L563.283 237.188V235.953C563.283 234.141 562.111 233.047 560.018 233.047C558.064 233.047 556.861 233.969 556.58 235.281L556.549 235.422H553.361L553.377 235.25C553.611 232.422 556.064 230.25 560.111 230.25C564.127 230.25 566.674 232.375 566.674 235.672V247H563.283V244.406H563.221C562.268 246.172 560.361 247.297 558.189 247.297ZM556.111 242.25C556.111 243.688 557.299 244.594 559.111 244.594C561.486 244.594 563.283 242.984 563.283 240.844V239.562L559.268 239.812C557.236 239.938 556.111 240.828 556.111 242.219V242.25ZM560.08 253.422C558.986 253.422 558.111 252.547 558.111 251.484C558.111 250.406 558.986 249.531 560.08 249.531C561.189 249.531 562.049 250.406 562.049 251.484C562.049 252.547 561.189 253.422 560.08 253.422ZM571.777 228.031C570.683 228.031 569.808 227.156 569.808 226.094C569.808 225.016 570.683 224.141 571.777 224.141C572.886 224.141 573.746 225.016 573.746 226.094C573.746 227.156 572.886 228.031 571.777 228.031ZM570.089 247V230.562H573.464V247H570.089ZM590.201 247L582.17 224.453H585.936L592.092 243.109H592.17L598.326 224.453H602.092L594.061 247H590.201ZM605.601 228.031C604.508 228.031 603.633 227.156 603.633 226.094C603.633 225.016 604.508 224.141 605.601 224.141C606.711 224.141 607.57 225.016 607.57 226.094C607.57 227.156 606.711 228.031 605.601 228.031ZM603.914 247V230.562H607.289V247H603.914ZM612.642 228.703L616.189 223.781H619.204L622.767 228.703H620.079L617.689 225.453L615.329 228.703H612.642ZM617.782 247.328C612.954 247.328 610.032 244.031 610.032 238.844V238.828C610.032 233.688 613.001 230.25 617.611 230.25C622.22 230.25 625.048 233.562 625.048 238.5V239.641H613.407C613.47 242.75 615.173 244.562 617.861 244.562C619.861 244.562 621.189 243.531 621.611 242.297L621.657 242.172H624.861L624.829 242.344C624.298 244.953 621.767 247.328 617.782 247.328ZM617.626 233.016C615.439 233.016 613.751 234.5 613.454 237.25H621.704C621.423 234.406 619.829 233.016 617.626 233.016ZM617.814 253.422C616.736 253.422 615.845 252.547 615.845 251.484C615.845 250.406 616.736 249.531 617.814 249.531C618.923 249.531 619.782 250.406 619.782 251.484C619.782 252.547 618.923 253.422 617.814 253.422ZM633.432 247.328C630.182 247.328 628.62 245.953 628.62 242.672V233.25H626.26V230.562H628.62V226.281H632.073V230.562H635.151V233.25H632.073V242.469C632.073 244.141 632.823 244.641 634.245 244.641C634.604 244.641 634.901 244.609 635.151 244.578V247.188C634.76 247.25 634.12 247.328 633.432 247.328ZM644.841 247V224.453H648.076L659.669 241.125H659.763V224.453H663.232V247H660.013L648.404 230.297H648.31V247H644.841ZM671.382 247.297C668.101 247.297 665.897 245.281 665.897 242.328V242.297C665.897 239.438 668.116 237.688 672.007 237.453L676.476 237.188V235.953C676.476 234.141 675.304 233.047 673.21 233.047C671.257 233.047 670.054 233.969 669.772 235.281L669.741 235.422H666.554L666.569 235.25C666.804 232.422 669.257 230.25 673.304 230.25C677.319 230.25 679.866 232.375 679.866 235.672V247H676.476V244.406H676.413C675.46 246.172 673.554 247.297 671.382 247.297ZM669.304 242.25C669.304 243.688 670.491 244.594 672.304 244.594C674.679 244.594 676.476 242.984 676.476 240.844V239.562L672.46 239.812C670.429 239.938 669.304 240.828 669.304 242.219V242.25ZM683.141 247V230.562H686.516V233.109H686.594C687.297 231.391 688.969 230.25 691.125 230.25C693.391 230.25 695.047 231.422 695.704 233.484H695.782C696.625 231.484 698.563 230.25 700.907 230.25C704.157 230.25 706.282 232.406 706.282 235.703V247H702.891V236.516C702.891 234.375 701.75 233.141 699.75 233.141C697.75 233.141 696.36 234.641 696.36 236.719V247H693.047V236.266C693.047 234.359 691.844 233.141 689.938 233.141C687.938 233.141 686.516 234.719 686.516 236.844V247H683.141Z" fill="#888888"/>
<path d="M63.3335 392V388.667C63.3335 384.246 65.0894 380.007 68.2151 376.882C71.3407 373.756 75.5799 372 80.0002 372M80.0002 372C84.4204 372 88.6597 373.756 91.7853 376.882C94.9109 380.007 96.6668 384.246 96.6668 388.667V392M80.0002 372C82.6523 372 85.1959 370.946 87.0712 369.071C88.9466 367.196 90.0002 364.652 90.0002 362C90.0002 359.348 88.9466 356.804 87.0712 354.929C85.1959 353.054 82.6523 352 80.0002 352C77.348 352 74.8045 353.054 72.9291 354.929C71.0537 356.804 70.0002 359.348 70.0002 362C70.0002 364.652 71.0537 367.196 72.9291 369.071C74.8045 370.946 77.348 372 80.0002 372ZM43.3335 392V388.667C43.3335 386.015 44.3871 383.471 46.2624 381.596C48.1378 379.72 50.6813 378.667 53.3335 378.667M53.3335 378.667C55.1016 378.667 56.7973 377.964 58.0475 376.714C59.2978 375.464 60.0002 373.768 60.0002 372C60.0002 370.232 59.2978 368.536 58.0475 367.286C56.7973 366.036 55.1016 365.333 53.3335 365.333C51.5654 365.333 49.8697 366.036 48.6195 367.286C47.3692 368.536 46.6668 370.232 46.6668 372C46.6668 373.768 47.3692 375.464 48.6195 376.714C49.8697 377.964 51.5654 378.667 53.3335 378.667ZM116.667 392V388.667C116.667 386.015 115.613 383.471 113.738 381.596C111.863 379.72 109.319 378.667 106.667 378.667M106.667 378.667C108.435 378.667 110.131 377.964 111.381 376.714C112.631 375.464 113.333 373.768 113.333 372C113.333 370.232 112.631 368.536 111.381 367.286C110.131 366.036 108.435 365.333 106.667 365.333C104.899 365.333 103.203 366.036 101.953 367.286C100.703 368.536 100 370.232 100 372C100 373.768 100.703 375.464 101.953 376.714C103.203 377.964 104.899 378.667 106.667 378.667Z" stroke="#888888" stroke-width="4" stroke-linecap="round" stroke-linejoin="round"/>
<path d="M162.75 383V373.016H160.688V370.422H162.75V360.453H170.703C177.406 360.453 181.391 364.562 181.391 371.656V371.688C181.391 378.812 177.438 383 170.703 383H162.75ZM166.25 379.969H170.391C175.172 379.969 177.812 377.047 177.812 371.719V371.688C177.812 366.391 175.141 363.469 170.391 363.469H166.25V370.422H170.078V373.016H166.25V379.969ZM186.322 364.703L189.884 359.781H192.884L196.462 364.703H193.775L191.369 361.453L189.009 364.703H186.322ZM191.384 383.328C186.665 383.328 183.587 380.062 183.587 374.781V374.75C183.587 369.5 186.697 366.25 191.369 366.25C196.056 366.25 199.181 369.484 199.181 374.75V374.781C199.181 380.078 196.087 383.328 191.384 383.328ZM191.4 380.5C194.04 380.5 195.728 378.406 195.728 374.781V374.75C195.728 371.156 194.009 369.078 191.369 369.078C188.775 369.078 187.04 371.156 187.04 374.75V374.781C187.04 378.422 188.759 380.5 191.4 380.5ZM191.384 389.422C190.306 389.422 189.431 388.547 189.431 387.484C189.431 386.406 190.306 385.531 191.384 385.531C192.494 385.531 193.353 386.406 193.353 387.484C193.353 388.547 192.494 389.422 191.384 389.422ZM203.612 364.031C202.518 364.031 201.643 363.156 201.643 362.094C201.643 361.016 202.518 360.141 203.612 360.141C204.722 360.141 205.581 361.016 205.581 362.094C205.581 363.156 204.722 364.031 203.612 364.031ZM201.925 383V366.562H205.3V383H201.925ZM215.271 383V366.562H218.646V369.047H218.724C219.584 367.375 221.271 366.25 223.756 366.25C227.365 366.25 229.443 368.578 229.443 372.359V383H226.053V373C226.053 370.531 224.896 369.141 222.553 369.141C220.178 369.141 218.646 370.859 218.646 373.422V383H215.271ZM239.906 388.797C235.687 388.797 233.015 386.844 232.515 384.328L232.499 384.188H235.843L235.906 384.312C236.359 385.359 237.781 386.078 239.89 386.078C242.577 386.078 244.062 384.641 244.062 382.344V380.094H243.984C243.046 381.875 241.171 383.016 238.812 383.016C234.687 383.016 231.968 379.781 231.968 374.656V374.641C231.968 369.484 234.718 366.25 238.89 366.25C241.202 366.25 243.015 367.5 243.984 369.359H244.062V366.562H247.452V382.547C247.452 386.297 244.546 388.797 239.906 388.797ZM239.765 380.266C242.343 380.266 244.062 378.094 244.062 374.703V374.688C244.062 371.312 242.327 369.141 239.765 369.141C237.093 369.141 235.421 371.297 235.421 374.688V374.703C235.421 378.141 237.093 380.266 239.765 380.266ZM260.087 364.703C259.18 364.703 258.446 364.359 257.868 363.891L257.258 363.406C256.743 363 256.305 362.656 255.852 362.656C255.243 362.656 254.962 363.266 254.962 364.562V364.688H252.837V364.484C252.837 361.672 253.868 360.281 255.493 360.281C256.399 360.281 257.087 360.625 257.665 361.109L258.274 361.578C258.79 362 259.258 362.328 259.727 362.328C260.337 362.328 260.618 361.719 260.618 360.422V360.297H262.743V360.5C262.743 363.297 261.743 364.703 260.087 364.703ZM256.383 383.328C252.774 383.328 250.712 381 250.712 377.219V366.562H254.087V376.562C254.087 379.047 255.243 380.422 257.587 380.422C259.962 380.422 261.493 378.719 261.493 376.156V366.562H264.883V383H261.493V380.531H261.415C260.555 382.188 258.883 383.328 256.383 383.328ZM280.48 383.328C277.23 383.328 275.668 381.953 275.668 378.672V369.25H273.308V366.562H275.668V362.281H279.121V366.562H282.199V369.25H279.121V378.469C279.121 380.141 279.871 380.641 281.293 380.641C281.652 380.641 281.949 380.609 282.199 380.578V383.188C281.808 383.25 281.168 383.328 280.48 383.328ZM290.583 383.328C286.974 383.328 284.911 381 284.911 377.219V366.562H288.286V376.562C288.286 379.047 289.442 380.422 291.786 380.422C294.161 380.422 295.692 378.719 295.692 376.156V366.562C298.817 366.141 299.442 365.156 299.427 362.047H302.239C302.239 365.359 301.521 366.891 299.083 367.766V383H295.692V380.531H295.614C294.755 382.188 293.083 383.328 290.583 383.328ZM314.055 383L308.133 366.562H311.726L315.851 379.703H315.93L320.055 366.562H323.57L317.68 383H314.055ZM334.611 359.516L337.126 355.016H340.267L336.767 359.516H334.611ZM326.751 364.75L330.376 360H333.376L337.001 364.75H334.314L331.861 361.547L329.454 364.75H326.751ZM329.986 383.297C326.704 383.297 324.501 381.281 324.501 378.328V378.297C324.501 375.438 326.72 373.688 330.611 373.453L335.079 373.188V371.953C335.079 370.141 333.908 369.047 331.814 369.047C329.861 369.047 328.658 369.969 328.376 371.281L328.345 371.422H325.158L325.173 371.25C325.408 368.422 327.861 366.25 331.908 366.25C335.923 366.25 338.47 368.375 338.47 371.672V383H335.079V380.406H335.017C334.064 382.172 332.158 383.297 329.986 383.297ZM327.908 378.25C327.908 379.688 329.095 380.594 330.908 380.594C333.283 380.594 335.079 378.984 335.079 376.844V375.562L331.064 375.812C329.033 375.938 327.908 376.828 327.908 378.219V378.25ZM341.745 383V366.562H345.12V369.047H345.198C346.057 367.375 347.745 366.25 350.229 366.25C353.839 366.25 355.917 368.578 355.917 372.359V383H352.526V373C352.526 370.531 351.37 369.141 349.026 369.141C346.651 369.141 345.12 370.859 345.12 373.422V383H341.745ZM372.732 383.328C367.935 383.328 364.935 380.031 364.935 374.766V374.75C364.935 369.547 367.998 366.25 372.685 366.25C376.92 366.25 379.482 368.969 379.763 372.062L379.779 372.172H376.56L376.529 372.047C376.17 370.438 374.92 369.078 372.717 369.078C370.092 369.078 368.388 371.266 368.388 374.781V374.797C368.388 378.391 370.123 380.5 372.732 380.5C374.81 380.5 376.138 379.297 376.545 377.516L376.56 377.391H379.81L379.795 377.5C379.435 380.797 376.685 383.328 372.732 383.328ZM382.319 383V360.453H385.694V369.266H385.773C386.648 367.359 388.413 366.25 390.866 366.25C394.382 366.25 396.694 368.875 396.694 372.844V383H393.319V373.484C393.319 370.766 391.944 369.141 389.569 369.141C387.241 369.141 385.694 370.922 385.694 373.484V383H382.319ZM405.563 383.328C401.954 383.328 399.891 381 399.891 377.219V366.562H403.266V376.562C403.266 379.047 404.422 380.422 406.766 380.422C409.141 380.422 410.672 378.719 410.672 376.156V366.562H414.063V383H410.672V380.531H410.594C409.735 382.188 408.063 383.328 405.563 383.328ZM419.338 388.484C418.682 388.484 417.979 388.406 417.572 388.328V385.688C417.838 385.75 418.229 385.812 418.682 385.812C420.275 385.812 421.15 385.391 421.713 383.797L421.994 383.016L416.01 366.562H419.666L423.807 379.938H423.916L428.057 366.562H431.619L425.494 383.766C424.275 387.172 422.557 388.484 419.338 388.484ZM434.988 364.703L438.535 359.781H441.55L445.113 364.703H442.425L440.035 361.453L437.675 364.703H434.988ZM440.128 383.328C435.3 383.328 432.378 380.031 432.378 374.844V374.828C432.378 369.688 435.347 366.25 439.957 366.25C444.566 366.25 447.394 369.562 447.394 374.5V375.641H435.753C435.816 378.75 437.519 380.562 440.207 380.562C442.207 380.562 443.535 379.531 443.957 378.297L444.003 378.172H447.207L447.175 378.344C446.644 380.953 444.113 383.328 440.128 383.328ZM439.972 369.016C437.785 369.016 436.097 370.5 435.8 373.25H444.05C443.769 370.406 442.175 369.016 439.972 369.016ZM450.013 383V366.562H453.388V369.047H453.466C454.325 367.375 456.013 366.25 458.497 366.25C462.106 366.25 464.185 368.578 464.185 372.359V383H460.794V373C460.794 370.531 459.638 369.141 457.294 369.141C454.919 369.141 453.388 370.859 453.388 373.422V383H450.013ZM473.937 383V366.562H477.312V369.047H477.39C478.25 367.375 479.937 366.25 482.422 366.25C486.031 366.25 488.109 368.578 488.109 372.359V383H484.719V373C484.719 370.531 483.562 369.141 481.219 369.141C478.844 369.141 477.312 370.859 477.312 373.422V383H473.937ZM498.572 388.797C494.353 388.797 491.681 386.844 491.181 384.328L491.165 384.188H494.509L494.572 384.312C495.025 385.359 496.447 386.078 498.556 386.078C501.243 386.078 502.728 384.641 502.728 382.344V380.094H502.65C501.712 381.875 499.837 383.016 497.478 383.016C493.353 383.016 490.634 379.781 490.634 374.656V374.641C490.634 369.484 493.384 366.25 497.556 366.25C499.868 366.25 501.681 367.5 502.65 369.359H502.728V366.562H506.118V382.547C506.118 386.297 503.212 388.797 498.572 388.797ZM498.431 380.266C501.009 380.266 502.728 378.094 502.728 374.703V374.688C502.728 371.312 500.993 369.141 498.431 369.141C495.759 369.141 494.087 371.297 494.087 374.688V374.703C494.087 378.141 495.759 380.266 498.431 380.266ZM509.581 383V360.453H512.956V369.266H513.034C513.909 367.359 515.675 366.25 518.128 366.25C521.643 366.25 523.956 368.875 523.956 372.844V383H520.581V373.484C520.581 370.766 519.206 369.141 516.831 369.141C514.503 369.141 512.956 370.922 512.956 373.484V383H509.581ZM529.059 364.031C527.965 364.031 527.09 363.156 527.09 362.094C527.09 361.016 527.965 360.141 529.059 360.141C530.168 360.141 531.027 361.016 531.027 362.094C531.027 363.156 530.168 364.031 529.059 364.031ZM527.371 383V366.562H530.746V383H527.371ZM536.099 364.703L539.646 359.781H542.662L546.224 364.703H543.537L541.146 361.453L538.787 364.703H536.099ZM541.24 383.328C536.412 383.328 533.49 380.031 533.49 374.844V374.828C533.49 369.688 536.459 366.25 541.068 366.25C545.677 366.25 548.505 369.562 548.505 374.5V375.641H536.865C536.927 378.75 538.63 380.562 541.318 380.562C543.318 380.562 544.646 379.531 545.068 378.297L545.115 378.172H548.318L548.287 378.344C547.755 380.953 545.224 383.328 541.24 383.328ZM541.084 369.016C538.896 369.016 537.209 370.5 536.912 373.25H545.162C544.88 370.406 543.287 369.016 541.084 369.016ZM541.271 389.422C540.193 389.422 539.302 388.547 539.302 387.484C539.302 386.406 540.193 385.531 541.271 385.531C542.38 385.531 543.24 386.406 543.24 387.484C543.24 388.547 542.38 389.422 541.271 389.422ZM551.124 388.469V366.562H554.499V369.391H554.577C555.562 367.438 557.374 366.25 559.718 366.25C563.905 366.25 566.593 369.531 566.593 374.781V374.797C566.593 380.031 563.89 383.328 559.765 383.328C557.437 383.328 555.546 382.141 554.577 380.234H554.499V388.469H551.124ZM558.843 380.422C561.499 380.422 563.155 378.266 563.155 374.797V374.781C563.155 371.281 561.483 369.141 558.843 369.141C556.28 369.141 554.483 371.359 554.483 374.781V374.797C554.483 378.203 556.296 380.422 558.843 380.422Z" fill="#888888"/>
<path d="M66.6668 506V492.667C66.6668 485.3 72.6502 479.333 80.0002 479.333C87.3668 479.333 93.3335 485.317 93.3335 492.667V506M53.3335 499.333H106.667V552.667H53.3335V499.333Z" stroke="#888888" stroke-width="4" stroke-linecap="round"/>
<path d="M88.8298 539.796C87.2144 541.379 85.4508 541.13 83.753 540.38C81.9563 539.613 80.308 539.58 78.4125 540.38C76.0389 541.413 74.7862 541.113 73.3687 539.796C65.3249 531.414 66.5117 518.649 75.6433 518.182C77.8685 518.299 79.418 519.416 80.7201 519.516C82.6651 519.116 84.5277 517.966 86.6046 518.116C89.0935 518.316 90.9726 519.316 92.2088 521.115C87.0661 524.232 88.2858 531.081 93 532.997C92.0605 535.497 90.8407 537.98 88.8133 539.813L88.8298 539.796ZM80.5553 518.082C80.308 514.366 83.2915 511.3 86.72 511C87.198 515.299 82.8629 518.499 80.5553 518.082Z" fill="#888888"/>
<path d="M162.078 503V480.453H165.578V489.984H177.156V480.453H180.656V503H177.156V493.016H165.578V503H162.078ZM186.259 484.703L189.806 479.781H192.822L196.384 484.703H193.697L191.306 481.453L188.947 484.703H186.259ZM191.4 503.328C186.572 503.328 183.65 500.031 183.65 494.844V494.828C183.65 489.688 186.619 486.25 191.228 486.25C195.837 486.25 198.665 489.562 198.665 494.5V495.641H187.025C187.087 498.75 188.79 500.562 191.478 500.562C193.478 500.562 194.806 499.531 195.228 498.297L195.275 498.172H198.478L198.447 498.344C197.915 500.953 195.384 503.328 191.4 503.328ZM191.244 489.016C189.056 489.016 187.369 490.5 187.072 493.25H195.322C195.04 490.406 193.447 489.016 191.244 489.016ZM191.431 509.422C190.353 509.422 189.462 508.547 189.462 507.484C189.462 506.406 190.353 505.531 191.431 505.531C192.54 505.531 193.4 506.406 193.4 507.484C193.4 508.547 192.54 509.422 191.431 509.422ZM213.543 503.328C210.293 503.328 208.731 501.953 208.731 498.672V489.25H206.371V486.562H208.731V482.281H212.184V486.562H215.262V489.25H212.184V498.469C212.184 500.141 212.934 500.641 214.356 500.641C214.715 500.641 215.012 500.609 215.262 500.578V503.188C214.871 503.25 214.231 503.328 213.543 503.328ZM218.178 503V480.453H221.553V489.266H221.631C222.506 487.359 224.271 486.25 226.724 486.25C230.24 486.25 232.553 488.875 232.553 492.844V503H229.178V493.484C229.178 490.766 227.803 489.141 225.428 489.141C223.099 489.141 221.553 490.922 221.553 493.484V503H218.178ZM245.624 479.516L248.14 475.016H251.281L247.796 479.516H245.624ZM237.765 484.75L241.39 480H244.39L248.031 484.75H245.327L242.874 481.547L240.468 484.75H237.765ZM242.89 503.328C238.171 503.328 235.093 500.062 235.093 494.781V494.75C235.093 489.5 238.202 486.25 242.874 486.25C247.562 486.25 250.687 489.484 250.687 494.75V494.781C250.687 500.078 247.593 503.328 242.89 503.328ZM242.906 500.5C245.546 500.5 247.234 498.406 247.234 494.781V494.75C247.234 491.156 245.515 489.078 242.874 489.078C240.281 489.078 238.546 491.156 238.546 494.75V494.781C238.546 498.422 240.265 500.5 242.906 500.5ZM253.29 503V486.562H256.665V489.047H256.743C257.602 487.375 259.29 486.25 261.774 486.25C265.383 486.25 267.462 488.578 267.462 492.359V503H264.071V493C264.071 490.531 262.915 489.141 260.571 489.141C258.196 489.141 256.665 490.859 256.665 493.422V503H253.29ZM277.924 508.797C273.705 508.797 271.033 506.844 270.533 504.328L270.518 504.188H273.861L273.924 504.312C274.377 505.359 275.799 506.078 277.908 506.078C280.596 506.078 282.08 504.641 282.08 502.344V500.094H282.002C281.065 501.875 279.19 503.016 276.83 503.016C272.705 503.016 269.986 499.781 269.986 494.656V494.641C269.986 489.484 272.736 486.25 276.908 486.25C279.221 486.25 281.033 487.5 282.002 489.359H282.08V486.562H285.471V502.547C285.471 506.297 282.565 508.797 277.924 508.797ZM277.783 500.266C280.361 500.266 282.08 498.094 282.08 494.703V494.688C282.08 491.312 280.346 489.141 277.783 489.141C275.111 489.141 273.44 491.297 273.44 494.688V494.703C273.44 498.141 275.111 500.266 277.783 500.266ZM302.364 503.328C297.567 503.328 294.567 500.031 294.567 494.766V494.75C294.567 489.547 297.63 486.25 302.317 486.25C306.552 486.25 309.114 488.969 309.396 492.062L309.411 492.172H306.192L306.161 492.047C305.802 490.438 304.552 489.078 302.349 489.078C299.724 489.078 298.021 491.266 298.021 494.781V494.797C298.021 498.391 299.755 500.5 302.364 500.5C304.442 500.5 305.771 499.297 306.177 497.516L306.192 497.391H309.442L309.427 497.5C309.067 500.797 306.317 503.328 302.364 503.328ZM317.483 484.703V484.656C318.42 483.953 318.999 483.297 318.999 482.688C318.999 481.953 318.139 481.531 316.999 481.531C316.514 481.531 316.186 481.578 315.936 481.625V479.781C316.358 479.625 317.045 479.484 317.811 479.484C319.702 479.484 321.327 480.516 321.327 482.141C321.327 483.141 320.78 483.969 319.67 484.703H317.483ZM317.42 503.328C313.811 503.328 311.749 501 311.749 497.219V486.562H315.124V496.562C315.124 499.047 316.28 500.422 318.624 500.422C320.999 500.422 322.53 498.719 322.53 496.156V486.562C325.655 486.141 326.28 485.156 326.264 482.047H329.077C329.077 485.359 328.358 486.891 325.92 487.766V503H322.53V500.531H322.452C321.592 502.188 319.92 503.328 317.42 503.328ZM334.711 503.297C331.43 503.297 329.226 501.281 329.226 498.328V498.297C329.226 495.438 331.445 493.688 335.336 493.453L339.805 493.188V491.953C339.805 490.141 338.633 489.047 336.539 489.047C334.586 489.047 333.383 489.969 333.101 491.281L333.07 491.422H329.883L329.898 491.25C330.133 488.422 332.586 486.25 336.633 486.25C340.648 486.25 343.195 488.375 343.195 491.672V503H339.805V500.406H339.742C338.789 502.172 336.883 503.297 334.711 503.297ZM332.633 498.25C332.633 499.688 333.82 500.594 335.633 500.594C338.008 500.594 339.805 498.984 339.805 496.844V495.562L335.789 495.812C333.758 495.938 332.633 496.828 332.633 498.219V498.25ZM353.089 503V480.453H356.464V489.266H356.542C357.417 487.359 359.182 486.25 361.636 486.25C365.151 486.25 367.464 488.875 367.464 492.844V503H364.089V493.484C364.089 490.766 362.714 489.141 360.339 489.141C358.011 489.141 356.464 490.922 356.464 493.484V503H353.089ZM376.582 484.703L373.02 479.781H376.285L379.035 484.703H376.582ZM375.567 503.297C372.285 503.297 370.082 501.281 370.082 498.328V498.297C370.082 495.438 372.301 493.688 376.192 493.453L380.66 493.188V491.953C380.66 490.141 379.489 489.047 377.395 489.047C375.442 489.047 374.239 489.969 373.957 491.281L373.926 491.422H370.739L370.754 491.25C370.989 488.422 373.442 486.25 377.489 486.25C381.504 486.25 384.051 488.375 384.051 491.672V503H380.66V500.406H380.598C379.645 502.172 377.739 503.297 375.567 503.297ZM373.489 498.25C373.489 499.688 374.676 500.594 376.489 500.594C378.864 500.594 380.66 498.984 380.66 496.844V495.562L376.645 495.812C374.614 495.938 373.489 496.828 373.489 498.219V498.25ZM387.326 503V486.562H390.701V489.047H390.779C391.638 487.375 393.326 486.25 395.81 486.25C399.42 486.25 401.498 488.578 401.498 492.359V503H398.107V493C398.107 490.531 396.951 489.141 394.607 489.141C392.232 489.141 390.701 490.859 390.701 493.422V503H387.326ZM411.96 508.797C407.741 508.797 405.069 506.844 404.569 504.328L404.554 504.188H407.898L407.96 504.312C408.413 505.359 409.835 506.078 411.944 506.078C414.632 506.078 416.116 504.641 416.116 502.344V500.094H416.038C415.101 501.875 413.226 503.016 410.866 503.016C406.741 503.016 404.023 499.781 404.023 494.656V494.641C404.023 489.484 406.773 486.25 410.944 486.25C413.257 486.25 415.069 487.5 416.038 489.359H416.116V486.562H419.507V502.547C419.507 506.297 416.601 508.797 411.96 508.797ZM411.819 500.266C414.398 500.266 416.116 498.094 416.116 494.703V494.688C416.116 491.312 414.382 489.141 411.819 489.141C409.148 489.141 407.476 491.297 407.476 494.688V494.703C407.476 498.141 409.148 500.266 411.819 500.266ZM433.854 503L427.932 486.562H431.525L435.65 499.703H435.729L439.854 486.562H443.369L437.479 503H433.854ZM450.8 484.703L447.238 479.781H450.503L453.253 484.703H450.8ZM449.785 503.297C446.503 503.297 444.3 501.281 444.3 498.328V498.297C444.3 495.438 446.519 493.688 450.41 493.453L454.878 493.188V491.953C454.878 490.141 453.707 489.047 451.613 489.047C449.66 489.047 448.457 489.969 448.175 491.281L448.144 491.422H444.957L444.972 491.25C445.207 488.422 447.66 486.25 451.707 486.25C455.722 486.25 458.269 488.375 458.269 491.672V503H454.878V500.406H454.816C453.863 502.172 451.957 503.297 449.785 503.297ZM447.707 498.25C447.707 499.688 448.894 500.594 450.707 500.594C453.082 500.594 454.878 498.984 454.878 496.844V495.562L450.863 495.812C448.832 495.938 447.707 496.828 447.707 498.219V498.25ZM473.803 503.328C470.553 503.328 468.991 501.953 468.991 498.672V489.25H466.631V486.562H468.991V482.281H472.444V486.562H475.522V489.25H472.444V498.469C472.444 500.141 473.194 500.641 474.616 500.641C474.975 500.641 475.272 500.609 475.522 500.578V503.188C475.131 503.25 474.491 503.328 473.803 503.328ZM478.312 503V486.562H481.687V489.375H481.765C482.297 487.453 483.672 486.25 485.547 486.25C486.031 486.25 486.453 486.328 486.719 486.375V489.516C486.453 489.406 485.859 489.328 485.203 489.328C483.031 489.328 481.687 490.75 481.687 493.203V503H478.312ZM494.4 503.328C490.79 503.328 488.728 501 488.728 497.219V486.562H492.103V496.562C492.103 499.047 493.259 500.422 495.603 500.422C497.978 500.422 499.509 498.719 499.509 496.156V486.562H502.9V503H499.509V500.531H499.431C498.572 502.188 496.9 503.328 494.4 503.328ZM506.237 503V486.562H509.612V489.047H509.69C510.55 487.375 512.237 486.25 514.721 486.25C518.331 486.25 520.409 488.578 520.409 492.359V503H517.018V493C517.018 490.531 515.862 489.141 513.518 489.141C511.143 489.141 509.612 490.859 509.612 493.422V503H506.237ZM530.871 508.797C526.652 508.797 523.981 506.844 523.481 504.328L523.465 504.188H526.809L526.871 504.312C527.324 505.359 528.746 506.078 530.856 506.078C533.543 506.078 535.027 504.641 535.027 502.344V500.094H534.949C534.012 501.875 532.137 503.016 529.777 503.016C525.652 503.016 522.934 499.781 522.934 494.656V494.641C522.934 489.484 525.684 486.25 529.856 486.25C532.168 486.25 533.981 487.5 534.949 489.359H535.027V486.562H538.418V502.547C538.418 506.297 535.512 508.797 530.871 508.797ZM530.731 500.266C533.309 500.266 535.027 498.094 535.027 494.703V494.688C535.027 491.312 533.293 489.141 530.731 489.141C528.059 489.141 526.387 491.297 526.387 494.688V494.703C526.387 498.141 528.059 500.266 530.731 500.266ZM554.015 503.328C550.765 503.328 549.202 501.953 549.202 498.672V489.25H546.843V486.562H549.202V482.281H552.655V486.562H555.733V489.25H552.655V498.469C552.655 500.141 553.405 500.641 554.827 500.641C555.187 500.641 555.483 500.609 555.733 500.578V503.188C555.343 503.25 554.702 503.328 554.015 503.328ZM560.055 484.703L563.618 479.781H566.618L570.18 484.703H567.493L565.102 481.453L562.743 484.703H560.055ZM563.227 503.297C559.946 503.297 557.743 501.281 557.743 498.328V498.297C557.743 495.438 559.961 493.688 563.852 493.453L568.321 493.188V491.953C568.321 490.141 567.149 489.047 565.055 489.047C563.102 489.047 561.899 489.969 561.618 491.281L561.586 491.422H558.399L558.415 491.25C558.649 488.422 561.102 486.25 565.149 486.25C569.165 486.25 571.711 488.375 571.711 491.672V503H568.321V500.406H568.258C567.305 502.172 565.399 503.297 563.227 503.297ZM561.149 498.25C561.149 499.688 562.336 500.594 564.149 500.594C566.524 500.594 568.321 498.984 568.321 496.844V495.562L564.305 495.812C562.274 495.938 561.149 496.828 561.149 498.219V498.25ZM574.986 503V486.562H578.361V489.109H578.439C579.143 487.391 580.814 486.25 582.971 486.25C585.236 486.25 586.893 487.422 587.549 489.484H587.627C588.471 487.484 590.408 486.25 592.752 486.25C596.002 486.25 598.127 488.406 598.127 491.703V503H594.736V492.516C594.736 490.375 593.596 489.141 591.596 489.141C589.596 489.141 588.205 490.641 588.205 492.719V503H584.893V492.266C584.893 490.359 583.689 489.141 581.783 489.141C579.783 489.141 578.361 490.719 578.361 492.844V503H574.986ZM616.614 503.328C614.255 503.328 612.427 502.141 611.458 500.219H611.38V503H608.005V480.453H611.38V489.359H611.458C612.442 487.422 614.317 486.25 616.645 486.25C620.77 486.25 623.489 489.531 623.489 494.766V494.781C623.489 500.016 620.786 503.328 616.614 503.328ZM615.723 500.422C618.38 500.422 620.036 498.281 620.036 494.781V494.766C620.036 491.297 618.38 489.141 615.723 489.141C613.177 489.141 611.364 491.359 611.364 494.766V494.781C611.364 498.203 613.161 500.422 615.723 500.422ZM631.483 484.703V484.656C632.42 483.953 632.983 483.297 632.983 482.688C632.983 481.953 632.123 481.531 630.998 481.531C630.498 481.531 630.17 481.578 629.92 481.625V479.781C630.342 479.625 631.03 479.484 631.795 479.484C633.701 479.484 635.311 480.516 635.311 482.141C635.311 483.141 634.764 483.969 633.655 484.703H631.483ZM630.92 503.297C627.639 503.297 625.436 501.281 625.436 498.328V498.297C625.436 495.438 627.655 493.688 631.545 493.453L636.014 493.188V491.953C636.014 490.141 634.842 489.047 632.748 489.047C630.795 489.047 629.592 489.969 629.311 491.281L629.28 491.422H626.092L626.108 491.25C626.342 488.422 628.795 486.25 632.842 486.25C636.858 486.25 639.405 488.375 639.405 491.672V503H636.014V500.406H635.951C634.998 502.172 633.092 503.297 630.92 503.297ZM628.842 498.25C628.842 499.688 630.03 500.594 631.842 500.594C634.217 500.594 636.014 498.984 636.014 496.844V495.562L631.998 495.812C629.967 495.938 628.842 496.828 628.842 498.219V498.25ZM649.742 503.328C645.023 503.328 641.945 500.062 641.945 494.781V494.75C641.945 489.5 645.054 486.25 649.726 486.25C654.414 486.25 657.539 489.484 657.539 494.75V494.781C657.539 500.078 654.445 503.328 649.742 503.328ZM649.758 500.5C652.398 500.5 654.086 498.406 654.086 494.781V494.75C654.086 491.156 652.367 489.078 649.726 489.078C647.133 489.078 645.398 491.156 645.398 494.75V494.781C645.398 498.422 647.117 500.5 649.758 500.5ZM666.76 503V480.453H670.135V489.266H670.214C671.089 487.359 672.854 486.25 675.307 486.25C678.823 486.25 681.135 488.875 681.135 492.844V503H677.76V493.484C677.76 490.766 676.385 489.141 674.01 489.141C671.682 489.141 670.135 490.922 670.135 493.484V503H666.76ZM690.254 484.703L686.691 479.781H689.957L692.707 484.703H690.254ZM689.238 503.297C685.957 503.297 683.754 501.281 683.754 498.328V498.297C683.754 495.438 685.973 493.688 689.863 493.453L694.332 493.188V491.953C694.332 490.141 693.16 489.047 691.066 489.047C689.113 489.047 687.91 489.969 687.629 491.281L687.598 491.422H684.41L684.426 491.25C684.66 488.422 687.113 486.25 691.16 486.25C695.176 486.25 697.723 488.375 697.723 491.672V503H694.332V500.406H694.27C693.316 502.172 691.41 503.297 689.238 503.297ZM687.16 498.25C687.16 499.688 688.348 500.594 690.16 500.594C692.535 500.594 694.332 498.984 694.332 496.844V495.562L690.316 495.812C688.285 495.938 687.16 496.828 687.16 498.219V498.25ZM700.998 503V486.562H704.373V489.047H704.451C705.31 487.375 706.998 486.25 709.482 486.25C713.091 486.25 715.169 488.578 715.169 492.359V503H711.779V493C711.779 490.531 710.623 489.141 708.279 489.141C705.904 489.141 704.373 490.859 704.373 493.422V503H700.998ZM718.554 503V480.453H721.929V489.266H722.007C722.882 487.359 724.647 486.25 727.101 486.25C730.616 486.25 732.929 488.875 732.929 492.844V503H729.554V493.484C729.554 490.766 728.179 489.141 725.804 489.141C723.476 489.141 721.929 490.922 721.929 493.484V503H718.554ZM168.734 551.328C163.938 551.328 160.938 548.031 160.938 542.766V542.75C160.938 537.547 164 534.25 168.688 534.25C172.922 534.25 175.484 536.969 175.766 540.062L175.781 540.172H172.562L172.531 540.047C172.172 538.438 170.922 537.078 168.719 537.078C166.094 537.078 164.391 539.266 164.391 542.781V542.797C164.391 546.391 166.125 548.5 168.734 548.5C170.812 548.5 172.141 547.297 172.547 545.516L172.562 545.391H175.812L175.797 545.5C175.438 548.797 172.688 551.328 168.734 551.328ZM178.322 551V528.453H181.697V537.266H181.775C182.65 535.359 184.415 534.25 186.869 534.25C190.384 534.25 192.697 536.875 192.697 540.844V551H189.322V541.484C189.322 538.766 187.947 537.141 185.572 537.141C183.244 537.141 181.697 538.922 181.697 541.484V551H178.322ZM201.565 551.328C197.956 551.328 195.893 549 195.893 545.219V534.562H199.268V544.562C199.268 547.047 200.425 548.422 202.768 548.422C205.143 548.422 206.675 546.719 206.675 544.156V534.562H210.065V551H206.675V548.531H206.597C205.737 550.188 204.065 551.328 201.565 551.328ZM222.762 527.562V527.5C223.606 526.891 224.043 526.297 224.043 525.766C224.043 525.141 223.309 524.75 222.325 524.75C221.84 524.75 221.528 524.797 221.325 524.844V523.078C221.731 522.922 222.387 522.797 223.121 522.797C224.84 522.797 226.309 523.734 226.309 525.219C226.309 526.125 225.871 526.922 224.871 527.562H222.762ZM214.996 532.75L218.621 528H221.621L225.246 532.75H222.559L220.106 529.547L217.7 532.75H214.996ZM218.231 551.297C214.95 551.297 212.746 549.281 212.746 546.328V546.297C212.746 543.438 214.965 541.688 218.856 541.453L223.325 541.188V539.953C223.325 538.141 222.153 537.047 220.059 537.047C218.106 537.047 216.903 537.969 216.621 539.281L216.59 539.422H213.403L213.418 539.25C213.653 536.422 216.106 534.25 220.153 534.25C224.168 534.25 226.715 536.375 226.715 539.672V551H223.325V548.406H223.262C222.309 550.172 220.403 551.297 218.231 551.297ZM216.153 546.25C216.153 547.688 217.34 548.594 219.153 548.594C221.528 548.594 223.325 546.984 223.325 544.844V543.562L219.309 543.812C217.278 543.938 216.153 544.828 216.153 546.219V546.25ZM229.99 551V534.562H233.365V537.047H233.443C234.303 535.375 235.99 534.25 238.474 534.25C242.084 534.25 244.162 536.578 244.162 540.359V551H240.771V541C240.771 538.531 239.615 537.141 237.271 537.141C234.896 537.141 233.365 538.859 233.365 541.422V551H229.99ZM252.649 551L260.852 528.453H264.633L272.821 551H269.149L267.087 544.906H258.399L256.321 551H252.649ZM262.712 532.188L259.337 542.094H266.133L262.774 532.188H262.712ZM274.908 556.469V534.562H278.283V537.391H278.361C279.346 535.438 281.158 534.25 283.502 534.25C287.69 534.25 290.377 537.531 290.377 542.781V542.797C290.377 548.031 287.674 551.328 283.549 551.328C281.221 551.328 279.33 550.141 278.361 548.234H278.283V556.469H274.908ZM282.627 548.422C285.283 548.422 286.94 546.266 286.94 542.797V542.781C286.94 539.281 285.268 537.141 282.627 537.141C280.065 537.141 278.268 539.359 278.268 542.781V542.797C278.268 546.203 280.08 548.422 282.627 548.422ZM292.996 556.469V534.562H296.371V537.391H296.449C297.433 535.438 299.246 534.25 301.589 534.25C305.777 534.25 308.464 537.531 308.464 542.781V542.797C308.464 548.031 305.761 551.328 301.636 551.328C299.308 551.328 297.418 550.141 296.449 548.234H296.371V556.469H292.996ZM300.714 548.422C303.371 548.422 305.027 546.266 305.027 542.797V542.781C305.027 539.281 303.355 537.141 300.714 537.141C298.152 537.141 296.355 539.359 296.355 542.781V542.797C296.355 546.203 298.168 548.422 300.714 548.422ZM311.208 551V528.453H314.583V551H311.208ZM325.061 551.328C320.233 551.328 317.311 548.031 317.311 542.844V542.828C317.311 537.688 320.28 534.25 324.889 534.25C329.499 534.25 332.327 537.562 332.327 542.5V543.641H320.686C320.749 546.75 322.452 548.562 325.139 548.562C327.139 548.562 328.467 547.531 328.889 546.297L328.936 546.172H332.139L332.108 546.344C331.577 548.953 329.045 551.328 325.061 551.328ZM324.905 537.016C322.717 537.016 321.03 538.5 320.733 541.25H328.983C328.702 538.406 327.108 537.016 324.905 537.016Z" fill="#888888"/>
</g>
<rect x="1" y="1" width="846" height="590" rx="31" stroke="#D9D9D9" stroke-width="2"/>
<rect x="881" y="1" width="846" height="590" rx="31" fill="white"/>
<rect x="881" y="1" width="846" height="590" rx="31" stroke="#D9D9D9" stroke-width="2"/>
<rect width="848" height="128" transform="translate(880)" fill="#D9D9D9"/>
<path d="M932.362 81L921.041 47.1797H928.869L936.604 73.7578H936.744L944.455 47.1797H952.307L940.987 81H932.362ZM958.394 53.0625L952.651 45.0469H958.722L962.987 53.0625H958.394ZM956.636 81V55.875H963.479V81H956.636ZM987.91 81.5156C980.949 81.5156 977.082 78.3047 976.543 73.5469L976.52 73.3359H983.199L983.246 73.5469C983.692 75.5156 985.168 76.6641 987.91 76.6641C990.489 76.6641 992.059 75.6562 992.059 74.0391V74.0156C992.059 72.6797 991.215 71.9062 988.754 71.3672L984.489 70.4766C979.614 69.4453 977.153 67.0078 977.153 63.2578V63.2344C977.153 58.4531 981.278 55.3594 987.676 55.3594C994.356 55.3594 998.082 58.8984 998.246 63.3047V63.5391H991.942L991.918 63.3516C991.684 61.5469 990.207 60.1875 987.676 60.1875C985.309 60.1875 983.832 61.2422 983.832 62.8594V62.8828C983.832 64.1719 984.699 65.0156 987.231 65.5547L991.496 66.4688C996.746 67.5703 998.903 69.6328 998.903 73.3359V73.3594C998.903 78.2812 994.379 81.5156 987.91 81.5156ZM1009.75 81.3984C1004.71 81.3984 1001.31 78.2344 1001.31 73.8047V73.7578C1001.31 69.1875 1004.85 66.5156 1011.08 66.1172L1017.29 65.7422V64.1953C1017.29 61.9688 1015.84 60.5859 1013.17 60.5859C1010.61 60.5859 1009.07 61.7812 1008.74 63.3984L1008.69 63.6094H1002.43L1002.46 63.3281C1002.83 58.6875 1006.82 55.3594 1013.45 55.3594C1019.94 55.3594 1024.14 58.7109 1024.14 63.7734V81H1017.29V77.25H1017.15C1015.72 79.8281 1013.05 81.3984 1009.75 81.3984ZM1008.08 73.4531C1008.08 75.3047 1009.61 76.4062 1011.97 76.4062C1015.04 76.4062 1017.29 74.4375 1017.29 71.8125V70.0078L1012.11 70.3359C1009.47 70.5 1008.08 71.625 1008.08 73.4062V73.4531ZM1040.09 81.5156C1032.45 81.5156 1027.65 76.6172 1027.65 68.4375V68.3906C1027.65 60.3047 1032.57 55.3594 1040.07 55.3594C1047.59 55.3594 1052.54 60.2578 1052.54 68.3906V68.4375C1052.54 76.6406 1047.69 81.5156 1040.09 81.5156ZM1040.11 76.1484C1043.44 76.1484 1045.58 73.3359 1045.58 68.4375V68.3906C1045.58 63.5391 1043.4 60.7266 1040.07 60.7266C1036.76 60.7266 1034.61 63.5391 1034.61 68.3906V68.4375C1034.61 73.3594 1036.74 76.1484 1040.11 76.1484ZM1077.06 81.5156C1069.4 81.5156 1064.66 76.5234 1064.66 68.4141V68.3906C1064.66 60.3516 1069.47 55.3594 1076.99 55.3594C1083.81 55.3594 1088.15 59.5547 1088.41 64.9922V65.1562H1082.05L1082.01 64.9453C1081.58 62.5547 1079.92 60.7266 1077.08 60.7266C1073.73 60.7266 1071.62 63.6094 1071.62 68.4141V68.4375C1071.62 73.3594 1073.73 76.1484 1077.11 76.1484C1079.85 76.1484 1081.56 74.4609 1082.03 71.9297L1082.05 71.7188H1088.43V71.8594C1088.1 77.3438 1083.76 81.5156 1077.06 81.5156ZM1091.89 81V47.1797H1098.73V60.2109H1098.87C1100.16 57.0938 1102.81 55.3594 1106.59 55.3594C1112.02 55.3594 1115.4 59.1562 1115.4 65.2266V81H1108.55V66.6328C1108.55 63.1172 1106.82 61.0312 1103.7 61.0312C1100.68 61.0312 1098.73 63.3281 1098.73 66.6094V81H1091.89ZM1131.33 81.5156C1123.69 81.5156 1118.88 76.6172 1118.88 68.4375V68.3906C1118.88 60.3047 1123.8 55.3594 1131.3 55.3594C1138.83 55.3594 1143.77 60.2578 1143.77 68.3906V68.4375C1143.77 76.6406 1138.92 81.5156 1131.33 81.5156ZM1131.35 76.1484C1134.68 76.1484 1136.81 73.3359 1136.81 68.4375V68.3906C1136.81 63.5391 1134.63 60.7266 1131.3 60.7266C1128 60.7266 1125.84 63.5391 1125.84 68.3906V68.4375C1125.84 73.3594 1127.98 76.1484 1131.35 76.1484ZM1131.33 91.3359C1129.29 91.3359 1127.67 89.7188 1127.67 87.7734C1127.67 85.8281 1129.29 84.2109 1131.33 84.2109C1133.39 84.2109 1134.98 85.8281 1134.98 87.7734C1134.98 89.7188 1133.39 91.3359 1131.33 91.3359ZM1147.31 81V55.875H1154.15V60H1154.29C1155.58 57.1172 1158.16 55.3594 1161.95 55.3594C1167.48 55.3594 1170.63 58.8984 1170.63 64.7812V81H1163.78V66.1875C1163.78 62.9062 1162.23 61.0312 1159.16 61.0312C1156.09 61.0312 1154.15 63.2812 1154.15 66.5625V81H1147.31ZM1185.05 81V47.1797H1192.13V60.9141H1207.36V47.1797H1214.44V81H1207.36V66.75H1192.13V81H1185.05ZM1230.91 81.5156C1223.22 81.5156 1218.56 76.5234 1218.56 68.4844V68.4609C1218.56 60.4688 1223.27 55.3594 1230.63 55.3594C1237.99 55.3594 1242.6 60.3516 1242.6 67.9453V70.0547H1225.31C1225.38 74.0625 1227.56 76.4062 1231.05 76.4062C1233.86 76.4062 1235.57 74.8594 1236.06 73.4531L1236.11 73.3125H1242.39L1242.32 73.5703C1241.55 77.2734 1238.08 81.5156 1230.91 81.5156ZM1230.74 60.4688C1227.93 60.4688 1225.82 62.3438 1225.38 65.7422H1236.04C1235.62 62.2734 1233.58 60.4688 1230.74 60.4688ZM1256.47 81.5156C1249.51 81.5156 1245.64 78.3047 1245.1 73.5469L1245.08 73.3359H1251.76L1251.81 73.5469C1252.25 75.5156 1253.73 76.6641 1256.47 76.6641C1259.05 76.6641 1260.62 75.6562 1260.62 74.0391V74.0156C1260.62 72.6797 1259.78 71.9062 1257.32 71.3672L1253.05 70.4766C1248.17 69.4453 1245.71 67.0078 1245.71 63.2578V63.2344C1245.71 58.4531 1249.84 55.3594 1256.24 55.3594C1262.92 55.3594 1266.64 58.8984 1266.81 63.3047V63.5391H1260.5L1260.48 63.3516C1260.25 61.5469 1258.77 60.1875 1256.24 60.1875C1253.87 60.1875 1252.39 61.2422 1252.39 62.8594V62.8828C1252.39 64.1719 1253.26 65.0156 1255.79 65.5547L1260.06 66.4688C1265.31 67.5703 1267.46 69.6328 1267.46 73.3359V73.3594C1267.46 78.2812 1262.94 81.5156 1256.47 81.5156ZM1270.83 81V55.875H1277.68V60.0938H1277.82C1278.85 57.2344 1281.47 55.3594 1284.85 55.3594C1288.36 55.3594 1290.92 57.2344 1291.76 60.5391H1291.9C1293.03 57.375 1296.03 55.3594 1299.71 55.3594C1304.63 55.3594 1307.93 58.7578 1307.93 63.8203V81H1301.09V65.5312C1301.09 62.625 1299.64 61.0312 1296.99 61.0312C1294.39 61.0312 1292.68 62.9297 1292.68 65.7188V81H1286.09V65.3203C1286.09 62.625 1284.57 61.0312 1282.03 61.0312C1279.43 61.0312 1277.68 63 1277.68 65.8359V81H1270.83ZM1319.74 81.3984C1314.7 81.3984 1311.3 78.2344 1311.3 73.8047V73.7578C1311.3 69.1875 1314.84 66.5156 1321.07 66.1172L1327.29 65.7422V64.1953C1327.29 61.9688 1325.83 60.5859 1323.16 60.5859C1320.61 60.5859 1319.06 61.7812 1318.73 63.3984L1318.68 63.6094H1312.43L1312.45 63.3281C1312.82 58.6875 1316.81 55.3594 1323.44 55.3594C1329.93 55.3594 1334.13 58.7109 1334.13 63.7734V81H1327.29V77.25H1327.14C1325.72 79.8281 1323.04 81.3984 1319.74 81.3984ZM1318.07 73.4531C1318.07 75.3047 1319.6 76.4062 1321.97 76.4062C1325.04 76.4062 1327.29 74.4375 1327.29 71.8125V70.0078L1322.11 70.3359C1319.46 70.5 1318.07 71.625 1318.07 73.4062V73.4531ZM1338.55 81V55.875H1345.4V60H1345.54C1346.83 57.1172 1349.4 55.3594 1353.2 55.3594C1358.73 55.3594 1361.87 58.8984 1361.87 64.7812V81H1355.03V66.1875C1355.03 62.9062 1353.48 61.0312 1350.41 61.0312C1347.34 61.0312 1345.4 63.2812 1345.4 66.5625V81H1338.55ZM1372.53 70.0547L1372.51 68.6953C1372.27 65.3672 1373.49 63.2344 1376.72 61.3359C1379.75 59.5312 1380.66 58.3594 1380.66 56.1797V56.1562C1380.66 53.9062 1378.86 52.3125 1376.21 52.3125C1373.51 52.3125 1371.76 54.0703 1371.61 56.4844L1371.59 56.6719H1365.24V56.4375C1365.43 50.9297 1369.44 46.875 1376.63 46.875C1383.31 46.875 1387.76 50.5781 1387.76 55.9453V55.9688C1387.76 59.4844 1386.05 61.9453 1382.75 63.8906C1379.63 65.6953 1378.76 66.8672 1378.76 69.0938V70.0547H1372.53ZM1375.74 81.2812C1373.63 81.2812 1371.92 79.6641 1371.92 77.6016C1371.92 75.5391 1373.63 73.9219 1375.74 73.9219C1377.87 73.9219 1379.58 75.5391 1379.58 77.6016C1379.58 79.6641 1377.87 81.2812 1375.74 81.2812Z" fill="black"/>
<path d="M995 241C995.005 238.497 994.383 236.032 993.192 233.83C992 231.629 990.277 229.76 988.178 228.395C986.08 227.03 983.673 226.212 981.177 226.016C978.682 225.819 976.176 226.251 973.89 227.27C971.604 228.29 969.609 229.866 968.088 231.854C966.566 233.842 965.567 236.179 965.18 238.652C964.793 241.126 965.032 243.657 965.874 246.014C966.716 248.372 968.134 250.481 970 252.15V271L980 266.268L990 271V252.15C991.572 250.748 992.83 249.031 993.691 247.109C994.553 245.188 994.999 243.106 995 241ZM985 263.1L980 260.732L975 263.1V255.125C978.232 256.289 981.768 256.289 985 255.125V263.1ZM980 251C978.022 251 976.089 250.414 974.444 249.315C972.8 248.216 971.518 246.654 970.761 244.827C970.004 243 969.806 240.989 970.192 239.049C970.578 237.109 971.53 235.327 972.929 233.929C974.327 232.53 976.109 231.578 978.049 231.192C979.989 230.806 982 231.004 983.827 231.761C985.654 232.518 987.216 233.8 988.315 235.444C989.414 237.089 990 239.022 990 241C989.997 243.651 988.942 246.193 987.067 248.067C985.193 249.942 982.651 250.997 980 251ZM942.5 231H960V236H942.5V231ZM942.5 216H967.5V221H942.5V216Z" fill="#888888"/>
<path d="M935 271C933.674 271 932.402 270.473 931.464 269.536C930.527 268.598 930 267.326 930 266V206C930 204.674 930.527 203.402 931.464 202.464C932.402 201.527 933.674 201 935 201H975C976.326 201 977.598 201.527 978.536 202.464C979.473 203.402 980 204.674 980 206V216H975V206H935V266H960V271H935Z" fill="#888888"/>
<path d="M1051.72 247.375C1045.33 247.375 1041.27 242.875 1041.27 235.719V235.703C1041.27 228.547 1045.33 224.078 1051.72 224.078C1056.69 224.078 1060.42 227.141 1061.12 231.594L1061.16 231.734H1057.69L1057.59 231.422C1056.84 228.781 1054.75 227.172 1051.72 227.172C1047.53 227.172 1044.84 230.484 1044.84 235.703V235.719C1044.84 240.938 1047.55 244.281 1051.72 244.281C1054.72 244.281 1056.8 242.719 1057.64 239.859L1057.69 239.719H1061.16L1061.14 239.875C1060.44 244.359 1056.7 247.375 1051.72 247.375ZM1064.04 247V224.453H1067.42V233.266H1067.49C1068.37 231.359 1070.13 230.25 1072.59 230.25C1076.1 230.25 1078.42 232.875 1078.42 236.844V247H1075.04V237.484C1075.04 234.766 1073.67 233.141 1071.29 233.141C1068.96 233.141 1067.42 234.922 1067.42 237.484V247H1064.04ZM1084.39 228.703H1081.96L1084.69 223.781H1087.96L1084.39 228.703ZM1081.83 247V230.562H1085.21V247H1081.83ZM1088.68 247V230.562H1092.06V233.047H1092.14C1093 231.375 1094.68 230.25 1097.17 230.25C1100.78 230.25 1102.86 232.578 1102.86 236.359V247H1099.47V237C1099.47 234.531 1098.31 233.141 1095.97 233.141C1093.59 233.141 1092.06 234.859 1092.06 237.422V247H1088.68ZM1106.24 247V224.453H1109.62V233.266H1109.69C1110.57 231.359 1112.33 230.25 1114.79 230.25C1118.3 230.25 1120.62 232.875 1120.62 236.844V247H1117.24V237.484C1117.24 234.766 1115.87 233.141 1113.49 233.141C1111.16 233.141 1109.62 234.922 1109.62 237.484V247H1106.24ZM1136.54 247.328C1132.43 247.328 1130.02 245.297 1129.68 242.297L1129.66 242.156H1133.01L1133.04 242.312C1133.35 243.828 1134.48 244.719 1136.56 244.719C1138.59 244.719 1139.81 243.875 1139.81 242.547V242.531C1139.81 241.469 1139.21 240.859 1137.45 240.438L1134.76 239.828C1131.63 239.109 1130.09 237.609 1130.09 235.219V235.203C1130.09 232.266 1132.65 230.25 1136.43 230.25C1140.32 230.25 1142.66 232.422 1142.84 235.219L1142.85 235.406H1139.68L1139.66 235.297C1139.46 233.859 1138.34 232.859 1136.43 232.859C1134.62 232.859 1133.48 233.719 1133.48 235.031V235.047C1133.48 236.062 1134.15 236.75 1135.91 237.172L1138.59 237.781C1141.95 238.562 1143.23 239.891 1143.23 242.25V242.266C1143.23 245.266 1140.41 247.328 1136.54 247.328ZM1153.44 228.703H1151L1153.74 223.781H1157.02L1153.44 228.703ZM1150.67 247.297C1147.39 247.297 1145.19 245.281 1145.19 242.328V242.297C1145.19 239.438 1147.41 237.688 1151.3 237.453L1155.77 237.188V235.953C1155.77 234.141 1154.6 233.047 1152.5 233.047C1150.55 233.047 1149.35 233.969 1149.06 235.281L1149.03 235.422H1145.85L1145.86 235.25C1146.1 232.422 1148.55 230.25 1152.6 230.25C1156.61 230.25 1159.16 232.375 1159.16 235.672V247H1155.77V244.406H1155.71C1154.75 246.172 1152.85 247.297 1150.67 247.297ZM1148.6 242.25C1148.6 243.688 1149.78 244.594 1151.6 244.594C1153.97 244.594 1155.77 242.984 1155.77 240.844V239.562L1151.75 239.812C1149.72 239.938 1148.6 240.828 1148.6 242.219V242.25ZM1169.5 247.328C1164.7 247.328 1161.7 244.031 1161.7 238.766V238.75C1161.7 233.547 1164.76 230.25 1169.45 230.25C1173.68 230.25 1176.25 232.969 1176.53 236.062L1176.54 236.172H1173.32L1173.29 236.047C1172.93 234.438 1171.68 233.078 1169.48 233.078C1166.86 233.078 1165.15 235.266 1165.15 238.781V238.797C1165.15 242.391 1166.89 244.5 1169.5 244.5C1171.57 244.5 1172.9 243.297 1173.31 241.516L1173.32 241.391H1176.57L1176.56 241.5C1176.2 244.797 1173.45 247.328 1169.5 247.328ZM1179.08 247V224.453H1182.46V233.266H1182.54C1183.41 231.359 1185.18 230.25 1187.63 230.25C1191.15 230.25 1193.46 232.875 1193.46 236.844V247H1190.08V237.484C1190.08 234.766 1188.71 233.141 1186.33 233.141C1184 233.141 1182.46 234.922 1182.46 237.484V247H1179.08ZM1211.96 247.328C1209.6 247.328 1207.77 246.141 1206.8 244.219H1206.73V247H1203.35V224.453H1206.73V233.359H1206.8C1207.79 231.422 1209.66 230.25 1211.99 230.25C1216.12 230.25 1218.84 233.531 1218.84 238.766V238.781C1218.84 244.016 1216.13 247.328 1211.96 247.328ZM1211.07 244.422C1213.73 244.422 1215.38 242.281 1215.38 238.781V238.766C1215.38 235.297 1213.73 233.141 1211.07 233.141C1208.52 233.141 1206.71 235.359 1206.71 238.766V238.781C1206.71 242.203 1208.51 244.422 1211.07 244.422ZM1229.03 228.703H1226.6L1229.33 223.781H1232.61L1229.03 228.703ZM1226.27 247.297C1222.99 247.297 1220.78 245.281 1220.78 242.328V242.297C1220.78 239.438 1223 237.688 1226.89 237.453L1231.36 237.188V235.953C1231.36 234.141 1230.19 233.047 1228.1 233.047C1226.14 233.047 1224.94 233.969 1224.66 235.281L1224.63 235.422H1221.44L1221.45 235.25C1221.69 232.422 1224.14 230.25 1228.19 230.25C1232.2 230.25 1234.75 232.375 1234.75 235.672V247H1231.36V244.406H1231.3C1230.35 246.172 1228.44 247.297 1226.27 247.297ZM1224.19 242.25C1224.19 243.688 1225.38 244.594 1227.19 244.594C1229.56 244.594 1231.36 242.984 1231.36 240.844V239.562L1227.35 239.812C1225.31 239.938 1224.19 240.828 1224.19 242.219V242.25ZM1238.03 247V230.562H1241.4V233.047H1241.48C1242.34 231.375 1244.03 230.25 1246.51 230.25C1250.12 230.25 1252.2 232.578 1252.2 236.359V247H1248.81V237C1248.81 234.531 1247.65 233.141 1245.31 233.141C1242.93 233.141 1241.4 234.859 1241.4 237.422V247H1238.03ZM1262.08 247V224.453H1265.45V233.266H1265.53C1266.4 231.359 1268.17 230.25 1270.62 230.25C1274.14 230.25 1276.45 232.875 1276.45 236.844V247H1273.08V237.484C1273.08 234.766 1271.7 233.141 1269.33 233.141C1267 233.141 1265.45 234.922 1265.45 237.484V247H1262.08ZM1285.57 228.703L1282.01 223.781H1285.27L1288.02 228.703H1285.57ZM1284.55 247.297C1281.27 247.297 1279.07 245.281 1279.07 242.328V242.297C1279.07 239.438 1281.29 237.688 1285.18 237.453L1289.65 237.188V235.953C1289.65 234.141 1288.48 233.047 1286.38 233.047C1284.43 233.047 1283.23 233.969 1282.94 235.281L1282.91 235.422H1279.73L1279.74 235.25C1279.98 232.422 1282.43 230.25 1286.48 230.25C1290.49 230.25 1293.04 232.375 1293.04 235.672V247H1289.65V244.406H1289.59C1288.63 246.172 1286.73 247.297 1284.55 247.297ZM1282.48 242.25C1282.48 243.688 1283.66 244.594 1285.48 244.594C1287.85 244.594 1289.65 242.984 1289.65 240.844V239.562L1285.63 239.812C1283.6 239.938 1282.48 240.828 1282.48 242.219V242.25ZM1296.31 247V230.562H1299.69V233.047H1299.77C1300.63 231.375 1302.31 230.25 1304.8 230.25C1308.41 230.25 1310.48 232.578 1310.48 236.359V247H1307.09V237C1307.09 234.531 1305.94 233.141 1303.59 233.141C1301.22 233.141 1299.69 234.859 1299.69 237.422V247H1296.31ZM1320.95 252.797C1316.73 252.797 1314.06 250.844 1313.56 248.328L1313.54 248.188H1316.88L1316.95 248.312C1317.4 249.359 1318.82 250.078 1320.93 250.078C1323.62 250.078 1325.1 248.641 1325.1 246.344V244.094H1325.03C1324.09 245.875 1322.21 247.016 1319.85 247.016C1315.73 247.016 1313.01 243.781 1313.01 238.656V238.641C1313.01 233.484 1315.76 230.25 1319.93 230.25C1322.24 230.25 1324.06 231.5 1325.03 233.359H1325.1V230.562H1328.49V246.547C1328.49 250.297 1325.59 252.797 1320.95 252.797ZM1320.81 244.266C1323.38 244.266 1325.1 242.094 1325.1 238.703V238.688C1325.1 235.312 1323.37 233.141 1320.81 233.141C1318.13 233.141 1316.46 235.297 1316.46 238.688V238.703C1316.46 242.141 1318.13 244.266 1320.81 244.266ZM1338.45 247V224.453H1341.83V247H1338.45ZM1350.88 247.328C1347.27 247.328 1345.21 245 1345.21 241.219V230.562H1348.58V240.562C1348.58 243.047 1349.74 244.422 1352.08 244.422C1354.46 244.422 1355.99 242.719 1355.99 240.156V230.562H1359.38V247H1355.99V244.531H1355.91C1355.05 246.188 1353.38 247.328 1350.88 247.328ZM1364.72 228.703L1368.28 223.781H1371.28L1374.86 228.703H1372.17L1369.77 225.453L1367.41 228.703H1364.72ZM1369.78 247.328C1365.06 247.328 1361.98 244.062 1361.98 238.781V238.75C1361.98 233.5 1365.09 230.25 1369.77 230.25C1374.45 230.25 1377.58 233.484 1377.58 238.75V238.781C1377.58 244.078 1374.48 247.328 1369.78 247.328ZM1369.8 244.5C1372.44 244.5 1374.12 242.406 1374.12 238.781V238.75C1374.12 235.156 1372.41 233.078 1369.77 233.078C1367.17 233.078 1365.44 235.156 1365.44 238.75V238.781C1365.44 242.422 1367.16 244.5 1369.8 244.5ZM1380.18 247V230.562H1383.56V233.047H1383.63C1384.49 231.375 1386.18 230.25 1388.67 230.25C1392.27 230.25 1394.35 232.578 1394.35 236.359V247H1390.96V237C1390.96 234.531 1389.81 233.141 1387.46 233.141C1385.09 233.141 1383.56 234.859 1383.56 237.422V247H1380.18ZM1409.87 247.328C1406.62 247.328 1405.06 245.953 1405.06 242.672V233.25H1402.7V230.562H1405.06V226.281H1408.51V230.562H1411.59V233.25H1408.51V242.469C1408.51 244.141 1409.26 244.641 1410.68 244.641C1411.04 244.641 1411.34 244.609 1411.59 244.578V247.188C1411.2 247.25 1410.56 247.328 1409.87 247.328ZM1423.77 223.516L1426.29 219.016H1429.43L1425.94 223.516H1423.77ZM1415.91 228.75L1419.54 224H1422.54L1426.18 228.75H1423.47L1421.02 225.547L1418.61 228.75H1415.91ZM1421.04 247.328C1416.32 247.328 1413.24 244.062 1413.24 238.781V238.75C1413.24 233.5 1416.35 230.25 1421.02 230.25C1425.71 230.25 1428.83 233.484 1428.83 238.75V238.781C1428.83 244.078 1425.74 247.328 1421.04 247.328ZM1421.05 244.5C1423.69 244.5 1425.38 242.406 1425.38 238.781V238.75C1425.38 235.156 1423.66 233.078 1421.02 233.078C1418.43 233.078 1416.69 235.156 1416.69 238.75V238.781C1416.69 242.422 1418.41 244.5 1421.05 244.5ZM1437.2 247.328C1433.95 247.328 1432.39 245.953 1432.39 242.672V233.25H1430.03V230.562H1432.39V226.281H1435.84V230.562H1438.92V233.25H1435.84V242.469C1435.84 244.141 1436.59 244.641 1438.01 244.641C1438.37 244.641 1438.67 244.609 1438.92 244.578V247.188C1438.53 247.25 1437.89 247.328 1437.2 247.328ZM1448.21 247V230.562H1451.58V233.047H1451.66C1452.52 231.375 1454.21 230.25 1456.69 230.25C1460.3 230.25 1462.38 232.578 1462.38 236.359V247H1458.99V237C1458.99 234.531 1457.83 233.141 1455.49 233.141C1453.11 233.141 1451.58 234.859 1451.58 237.422V247H1448.21ZM1465.76 247V224.453H1469.14V233.266H1469.21C1470.09 231.359 1471.85 230.25 1474.31 230.25C1477.82 230.25 1480.14 232.875 1480.14 236.844V247H1476.76V237.484C1476.76 234.766 1475.39 233.141 1473.01 233.141C1470.68 233.141 1469.14 234.922 1469.14 237.484V247H1465.76ZM1492.86 223.516L1495.38 219.016H1498.52L1495.02 223.516H1492.86ZM1485 228.75L1488.63 224H1491.63L1495.25 228.75H1492.57L1490.11 225.547L1487.71 228.75H1485ZM1488.24 247.297C1484.96 247.297 1482.75 245.281 1482.75 242.328V242.297C1482.75 239.438 1484.97 237.688 1488.86 237.453L1493.33 237.188V235.953C1493.33 234.141 1492.16 233.047 1490.07 233.047C1488.11 233.047 1486.91 233.969 1486.63 235.281L1486.6 235.422H1483.41L1483.43 235.25C1483.66 232.422 1486.11 230.25 1490.16 230.25C1494.18 230.25 1496.72 232.375 1496.72 235.672V247H1493.33V244.406H1493.27C1492.32 246.172 1490.41 247.297 1488.24 247.297ZM1486.16 242.25C1486.16 243.688 1487.35 244.594 1489.16 244.594C1491.54 244.594 1493.33 242.984 1493.33 240.844V239.562L1489.32 239.812C1487.29 239.938 1486.16 240.828 1486.16 242.219V242.25ZM1505.76 247.328C1502.51 247.328 1500.95 245.953 1500.95 242.672V233.25H1498.59V230.562H1500.95V226.281H1504.4V230.562H1507.48V233.25H1504.4V242.469C1504.4 244.141 1505.15 244.641 1506.58 244.641C1506.94 244.641 1507.23 244.609 1507.48 244.578V247.188C1507.09 247.25 1506.45 247.328 1505.76 247.328ZM1512.2 247.234C1511.04 247.234 1510.13 246.328 1510.13 245.188C1510.13 244.031 1511.04 243.141 1512.2 243.141C1513.34 243.141 1514.24 244.031 1514.24 245.188C1514.24 246.328 1513.34 247.234 1512.2 247.234Z" fill="#888888"/>
<path d="M930 372H960V377H930V372ZM925 359.5H950V364.5H925V359.5Z" fill="#888888"/>
<path d="M994.797 373.515L987.297 356.015C987.105 355.565 986.784 355.182 986.376 354.913C985.967 354.644 985.489 354.5 985 354.5H977.5V349.5C977.5 348.837 977.236 348.201 976.768 347.732C976.299 347.263 975.663 347 975 347H935V352H972.5V383.39C971.361 384.052 970.365 384.933 969.568 385.982C968.771 387.03 968.189 388.226 967.855 389.5H952.145C951.536 387.143 950.089 385.09 948.075 383.723C946.06 382.357 943.617 381.773 941.202 382.08C938.788 382.386 936.568 383.563 934.959 385.389C933.35 387.216 932.462 389.566 932.462 392C932.462 394.434 933.35 396.784 934.959 398.611C936.568 400.437 938.788 401.614 941.202 401.92C943.617 402.227 946.06 401.643 948.075 400.277C950.089 398.91 951.536 396.857 952.145 394.5H967.855C968.399 396.646 969.642 398.549 971.389 399.908C973.136 401.267 975.286 402.005 977.5 402.005C979.713 402.005 981.864 401.267 983.61 399.908C985.357 398.549 986.601 396.646 987.145 394.5H992.5C993.163 394.5 993.799 394.237 994.268 393.768C994.736 393.299 995 392.663 995 392V374.5C995 374.161 994.931 373.826 994.797 373.515ZM942.5 397C941.511 397 940.544 396.707 939.722 396.157C938.9 395.608 938.259 394.827 937.88 393.913C937.502 393 937.403 391.994 937.596 391.025C937.789 390.055 938.265 389.164 938.964 388.464C939.664 387.765 940.555 387.289 941.524 387.096C942.494 386.903 943.5 387.002 944.413 387.381C945.327 387.759 946.108 388.4 946.657 389.222C947.207 390.044 947.5 391.011 947.5 392C947.5 393.326 946.973 394.598 946.035 395.536C945.098 396.473 943.826 397 942.5 397ZM977.5 359.5H983.35L988.71 372H977.5V359.5ZM977.5 397C976.511 397 975.544 396.707 974.722 396.157C973.9 395.608 973.259 394.827 972.88 393.913C972.502 393 972.403 391.994 972.596 391.025C972.789 390.055 973.265 389.164 973.964 388.464C974.664 387.765 975.555 387.289 976.524 387.096C977.494 386.903 978.5 387.002 979.413 387.381C980.327 387.759 981.108 388.4 981.657 389.222C982.207 390.044 982.5 391.011 982.5 392C982.5 393.326 981.973 394.598 981.035 395.536C980.098 396.473 978.826 397 977.5 397ZM990 389.5H987.145C986.594 387.359 985.348 385.46 983.603 384.103C981.857 382.746 979.711 382.006 977.5 382V377H990V389.5Z" fill="#888888"/>
<path d="M1051.78 383.375C1045.33 383.375 1041.27 378.875 1041.27 371.625V371.609C1041.27 364.5 1045.33 360.078 1051.73 360.078C1057.02 360.078 1060.33 363.125 1061.27 367.188L1061.33 367.469H1057.73L1057.69 367.297C1056.73 364.688 1054.69 363.172 1051.75 363.172C1047.44 363.172 1044.83 366.312 1044.83 371.594V371.609C1044.83 377 1047.52 380.281 1051.81 380.281C1055.47 380.281 1058 377.969 1058.05 374.547V374.172H1052.12V371.312H1061.5V373.625C1061.5 379.734 1057.89 383.375 1051.78 383.375ZM1066.34 364.031C1065.24 364.031 1064.37 363.156 1064.37 362.094C1064.37 361.016 1065.24 360.141 1066.34 360.141C1067.45 360.141 1068.31 361.016 1068.31 362.094C1068.31 363.156 1067.45 364.031 1066.34 364.031ZM1064.65 383V366.562H1068.02V383H1064.65ZM1076.33 383.297C1073.05 383.297 1070.85 381.281 1070.85 378.328V378.297C1070.85 375.438 1073.07 373.688 1076.96 373.453L1081.42 373.188V371.953C1081.42 370.141 1080.25 369.047 1078.16 369.047C1076.21 369.047 1075 369.969 1074.72 371.281L1074.69 371.422H1071.5L1071.52 371.25C1071.75 368.422 1074.21 366.25 1078.25 366.25C1082.27 366.25 1084.82 368.375 1084.82 371.672V383H1081.42V380.406H1081.36C1080.41 382.172 1078.5 383.297 1076.33 383.297ZM1074.25 378.25C1074.25 379.688 1075.44 380.594 1077.25 380.594C1079.63 380.594 1081.42 378.984 1081.42 376.844V375.562L1077.41 375.812C1075.38 375.938 1074.25 376.828 1074.25 378.219V378.25ZM1095.15 383.328C1090.43 383.328 1087.36 380.062 1087.36 374.781V374.75C1087.36 369.5 1090.47 366.25 1095.14 366.25C1099.82 366.25 1102.95 369.484 1102.95 374.75V374.781C1102.95 380.078 1099.86 383.328 1095.15 383.328ZM1095.17 380.5C1097.81 380.5 1099.5 378.406 1099.5 374.781V374.75C1099.5 371.156 1097.78 369.078 1095.14 369.078C1092.54 369.078 1090.81 371.156 1090.81 374.75V374.781C1090.81 378.422 1092.53 380.5 1095.17 380.5ZM1112.17 383V360.453H1115.55V369.266H1115.62C1116.5 367.359 1118.26 366.25 1120.72 366.25C1124.23 366.25 1126.55 368.875 1126.55 372.844V383H1123.17V373.484C1123.17 370.766 1121.8 369.141 1119.42 369.141C1117.09 369.141 1115.55 370.922 1115.55 373.484V383H1112.17ZM1135.66 364.703L1132.1 359.781H1135.37L1138.12 364.703H1135.66ZM1134.65 383.297C1131.37 383.297 1129.16 381.281 1129.16 378.328V378.297C1129.16 375.438 1131.38 373.688 1135.27 373.453L1139.74 373.188V371.953C1139.74 370.141 1138.57 369.047 1136.48 369.047C1134.52 369.047 1133.32 369.969 1133.04 371.281L1133.01 371.422H1129.82L1129.84 371.25C1130.07 368.422 1132.52 366.25 1136.57 366.25C1140.59 366.25 1143.13 368.375 1143.13 371.672V383H1139.74V380.406H1139.68C1138.73 382.172 1136.82 383.297 1134.65 383.297ZM1132.57 378.25C1132.57 379.688 1133.76 380.594 1135.57 380.594C1137.95 380.594 1139.74 378.984 1139.74 376.844V375.562L1135.73 375.812C1133.7 375.938 1132.57 376.828 1132.57 378.219V378.25ZM1146.41 383V366.562H1149.78V369.047H1149.86C1150.72 367.375 1152.41 366.25 1154.89 366.25C1158.5 366.25 1160.58 368.578 1160.58 372.359V383H1157.19V373C1157.19 370.531 1156.03 369.141 1153.69 369.141C1151.31 369.141 1149.78 370.859 1149.78 373.422V383H1146.41ZM1171.04 388.797C1166.82 388.797 1164.15 386.844 1163.65 384.328L1163.64 384.188H1166.98L1167.04 384.312C1167.5 385.359 1168.92 386.078 1171.03 386.078C1173.71 386.078 1175.2 384.641 1175.2 382.344V380.094H1175.12C1174.18 381.875 1172.31 383.016 1169.95 383.016C1165.82 383.016 1163.11 379.781 1163.11 374.656V374.641C1163.11 369.484 1165.86 366.25 1170.03 366.25C1172.34 366.25 1174.15 367.5 1175.12 369.359H1175.2V366.562H1178.59V382.547C1178.59 386.297 1175.68 388.797 1171.04 388.797ZM1170.9 380.266C1173.48 380.266 1175.2 378.094 1175.2 374.703V374.688C1175.2 371.312 1173.46 369.141 1170.9 369.141C1168.23 369.141 1166.56 371.297 1166.56 374.688V374.703C1166.56 378.141 1168.23 380.266 1170.9 380.266ZM1192.94 383L1187.01 366.562H1190.61L1194.73 379.703H1194.81L1198.94 366.562H1202.45L1196.56 383H1192.94ZM1209.88 364.703L1206.32 359.781H1209.59L1212.34 364.703H1209.88ZM1208.87 383.297C1205.59 383.297 1203.38 381.281 1203.38 378.328V378.297C1203.38 375.438 1205.6 373.688 1209.49 373.453L1213.96 373.188V371.953C1213.96 370.141 1212.79 369.047 1210.7 369.047C1208.74 369.047 1207.54 369.969 1207.26 371.281L1207.23 371.422H1204.04L1204.05 371.25C1204.29 368.422 1206.74 366.25 1210.79 366.25C1214.8 366.25 1217.35 368.375 1217.35 371.672V383H1213.96V380.406H1213.9C1212.95 382.172 1211.04 383.297 1208.87 383.297ZM1206.79 378.25C1206.79 379.688 1207.98 380.594 1209.79 380.594C1212.16 380.594 1213.96 378.984 1213.96 376.844V375.562L1209.95 375.812C1207.91 375.938 1206.79 376.828 1206.79 378.219V378.25ZM1227.24 383V360.453H1230.62V383H1227.24ZM1239.63 359L1242.14 354.5H1245.29L1241.79 359H1239.63ZM1240.8 364.812C1237.74 364.812 1235.79 362.922 1235.79 360.188V360.031H1238.05V360.094C1238.05 361.5 1239.08 362.688 1240.8 362.688C1242.52 362.688 1243.57 361.5 1243.57 360.094V360.031H1245.83V360.188C1245.83 362.922 1243.86 364.812 1240.8 364.812ZM1238.91 383.297C1235.63 383.297 1233.43 381.281 1233.43 378.328V378.297C1233.43 375.438 1235.64 373.688 1239.54 373.453L1244 373.188V371.953C1244 370.141 1242.83 369.047 1240.74 369.047C1238.79 369.047 1237.58 369.969 1237.3 371.281L1237.27 371.422H1234.08L1234.1 371.25C1234.33 368.422 1236.79 366.25 1240.83 366.25C1244.85 366.25 1247.39 368.375 1247.39 371.672V383H1244V380.406H1243.94C1242.99 382.172 1241.08 383.297 1238.91 383.297ZM1236.83 378.25C1236.83 379.688 1238.02 380.594 1239.83 380.594C1242.21 380.594 1244 378.984 1244 376.844V375.562L1239.99 375.812C1237.96 375.938 1236.83 376.828 1236.83 378.219V378.25ZM1250.67 388.469V366.562H1254.04V369.391H1254.12C1255.11 367.438 1256.92 366.25 1259.26 366.25C1263.45 366.25 1266.14 369.531 1266.14 374.781V374.797C1266.14 380.031 1263.44 383.328 1259.31 383.328C1256.98 383.328 1255.09 382.141 1254.12 380.234H1254.04V388.469H1250.67ZM1258.39 380.422C1261.04 380.422 1262.7 378.266 1262.7 374.797V374.781C1262.7 371.281 1261.03 369.141 1258.39 369.141C1255.83 369.141 1254.03 371.359 1254.03 374.781V374.797C1254.03 378.203 1255.84 380.422 1258.39 380.422ZM1281.39 383.328C1277.2 383.328 1274.52 380.016 1274.52 374.781V374.766C1274.52 369.531 1277.23 366.25 1281.36 366.25C1283.69 366.25 1285.56 367.422 1286.55 369.359H1286.61V364.688H1283.61V362.562H1286.61V360.453H1290V362.562H1291.78V364.688H1290V383H1286.61V380.219H1286.55C1285.56 382.141 1283.75 383.328 1281.39 383.328ZM1282.28 380.422C1284.83 380.422 1286.63 378.203 1286.63 374.781V374.766C1286.63 371.359 1284.81 369.141 1282.28 369.141C1279.63 369.141 1277.97 371.297 1277.97 374.766V374.781C1277.97 378.281 1279.61 380.422 1282.28 380.422ZM1300.74 364.75C1297.7 364.75 1295.74 362.828 1295.74 360.047V359.891H1298.04V359.969C1298.04 361.391 1299.06 362.609 1300.74 362.609C1302.45 362.609 1303.46 361.391 1303.46 359.969V359.891H1305.76V360.047C1305.76 362.828 1303.79 364.75 1300.74 364.75ZM1298.85 383.297C1295.57 383.297 1293.37 381.281 1293.37 378.328V378.297C1293.37 375.438 1295.59 373.688 1299.48 373.453L1303.95 373.188V371.953C1303.95 370.141 1302.78 369.047 1300.68 369.047C1298.73 369.047 1297.53 369.969 1297.24 371.281L1297.21 371.422H1294.03L1294.04 371.25C1294.28 368.422 1296.73 366.25 1300.78 366.25C1304.79 366.25 1307.34 368.375 1307.34 371.672V383H1303.95V380.406H1303.88C1302.93 382.172 1301.03 383.297 1298.85 383.297ZM1296.78 378.25C1296.78 379.688 1297.96 380.594 1299.78 380.594C1302.15 380.594 1303.95 378.984 1303.95 376.844V375.562L1299.93 375.812C1297.9 375.938 1296.78 376.828 1296.78 378.219V378.25ZM1300.74 389.422C1299.65 389.422 1298.78 388.547 1298.78 387.484C1298.78 386.406 1299.65 385.531 1300.74 385.531C1301.85 385.531 1302.71 386.406 1302.71 387.484C1302.71 388.547 1301.85 389.422 1300.74 389.422ZM1316.38 383.328C1313.13 383.328 1311.57 381.953 1311.57 378.672V369.25H1309.21V366.562H1311.57V362.281H1315.02V366.562H1318.1V369.25H1315.02V378.469C1315.02 380.141 1315.77 380.641 1317.19 380.641C1317.55 380.641 1317.85 380.609 1318.1 380.578V383.188C1317.71 383.25 1317.07 383.328 1316.38 383.328ZM1333.15 383.328C1329.9 383.328 1328.33 381.953 1328.33 378.672V369.25H1325.97V366.562H1328.33V362.281H1331.79V366.562H1334.87V369.25H1331.79V378.469C1331.79 380.141 1332.54 380.641 1333.96 380.641C1334.32 380.641 1334.62 380.609 1334.87 380.578V383.188C1334.47 383.25 1333.83 383.328 1333.15 383.328ZM1337.78 383V360.453H1341.16V369.266H1341.23C1342.11 367.359 1343.87 366.25 1346.33 366.25C1349.84 366.25 1352.16 368.875 1352.16 372.844V383H1348.78V373.484C1348.78 370.766 1347.41 369.141 1345.03 369.141C1342.7 369.141 1341.16 370.922 1341.16 373.484V383H1337.78ZM1362.45 383.328C1357.62 383.328 1354.7 380.031 1354.7 374.844V374.828C1354.7 369.688 1357.67 366.25 1362.27 366.25C1366.88 366.25 1369.71 369.562 1369.71 374.5V375.641H1358.07C1358.13 378.75 1359.84 380.562 1362.52 380.562C1364.52 380.562 1365.85 379.531 1366.27 378.297L1366.32 378.172H1369.52L1369.49 378.344C1368.96 380.953 1366.43 383.328 1362.45 383.328ZM1362.29 369.016C1360.1 369.016 1358.42 370.5 1358.12 373.25H1366.37C1366.09 370.406 1364.49 369.016 1362.29 369.016ZM1379.39 383.328C1374.67 383.328 1371.6 380.062 1371.6 374.781V374.75C1371.6 369.5 1374.71 366.25 1379.38 366.25C1384.07 366.25 1387.19 369.484 1387.19 374.75V374.781C1387.19 380.078 1384.1 383.328 1379.39 383.328ZM1379.41 380.5C1382.05 380.5 1383.74 378.406 1383.74 374.781V374.75C1383.74 371.156 1382.02 369.078 1379.38 369.078C1376.78 369.078 1375.05 371.156 1375.05 374.75V374.781C1375.05 378.422 1376.77 380.5 1379.41 380.5ZM1398.22 388.484C1397.57 388.484 1396.86 388.406 1396.46 388.328V385.688C1396.72 385.75 1397.11 385.812 1397.57 385.812C1399.16 385.812 1400.04 385.391 1400.6 383.797L1400.88 383.016L1394.9 366.562H1398.55L1402.69 379.938H1402.8L1406.94 366.562H1410.51L1404.38 383.766C1403.16 387.172 1401.44 388.484 1398.22 388.484ZM1413.87 364.703L1417.42 359.781H1420.44L1424 364.703H1421.31L1418.92 361.453L1416.56 364.703H1413.87ZM1419.01 383.328C1414.19 383.328 1411.26 380.031 1411.26 374.844V374.828C1411.26 369.688 1414.23 366.25 1418.84 366.25C1423.45 366.25 1426.28 369.562 1426.28 374.5V375.641H1414.64C1414.7 378.75 1416.41 380.562 1419.09 380.562C1421.09 380.562 1422.42 379.531 1422.84 378.297L1422.89 378.172H1426.09L1426.06 378.344C1425.53 380.953 1423 383.328 1419.01 383.328ZM1418.86 369.016C1416.67 369.016 1414.98 370.5 1414.69 373.25H1422.94C1422.66 370.406 1421.06 369.016 1418.86 369.016ZM1434.49 383.328C1430.88 383.328 1428.82 381 1428.82 377.219V366.562H1432.2V376.562C1432.2 379.047 1433.35 380.422 1435.7 380.422C1438.07 380.422 1439.6 378.719 1439.6 376.156V366.562H1442.99V383H1439.6V380.531H1439.52C1438.66 382.188 1436.99 383.328 1434.49 383.328ZM1459.89 383.328C1455.09 383.328 1452.09 380.031 1452.09 374.766V374.75C1452.09 369.547 1455.15 366.25 1459.84 366.25C1464.07 366.25 1466.64 368.969 1466.92 372.062L1466.93 372.172H1463.71L1463.68 372.047C1463.32 370.438 1462.07 369.078 1459.87 369.078C1457.25 369.078 1455.54 371.266 1455.54 374.781V374.797C1455.54 378.391 1457.28 380.5 1459.89 380.5C1461.96 380.5 1463.29 379.297 1463.7 377.516L1463.71 377.391H1466.96L1466.95 377.5C1466.59 380.797 1463.84 383.328 1459.89 383.328ZM1479 359.516L1475.5 355.016H1478.65L1481.16 359.516H1479ZM1470.43 364.75L1474.05 360H1477.05L1480.68 364.75H1477.99L1475.54 361.547L1473.13 364.75H1470.43ZM1474.18 383.297C1470.9 383.297 1468.69 381.281 1468.69 378.328V378.297C1468.69 375.438 1470.91 373.688 1474.8 373.453L1479.27 373.188V371.953C1479.27 370.141 1478.1 369.047 1476 369.047C1474.05 369.047 1472.85 369.969 1472.57 371.281L1472.54 371.422H1469.35L1469.36 371.25C1469.6 368.422 1472.05 366.25 1476.1 366.25C1480.11 366.25 1482.66 368.375 1482.66 371.672V383H1479.27V380.406H1479.21C1478.25 382.172 1476.35 383.297 1474.18 383.297ZM1472.1 378.25C1472.1 379.688 1473.29 380.594 1475.1 380.594C1477.47 380.594 1479.27 378.984 1479.27 376.844V375.562L1475.25 375.812C1473.22 375.938 1472.1 376.828 1472.1 378.219V378.25ZM1491.53 383.328C1487.92 383.328 1485.86 381 1485.86 377.219V366.562H1489.23V376.562C1489.23 379.047 1490.39 380.422 1492.73 380.422C1495.11 380.422 1496.64 378.719 1496.64 376.156V366.562H1500.03V383H1496.64V380.531H1496.56C1495.7 382.188 1494.03 383.328 1491.53 383.328ZM1505.29 383.234C1504.13 383.234 1503.23 382.328 1503.23 381.188C1503.23 380.031 1504.13 379.141 1505.29 379.141C1506.43 379.141 1507.34 380.031 1507.34 381.188C1507.34 382.328 1506.43 383.234 1505.29 383.234Z" fill="#888888"/>
<path d="M982.4 517.2C983.567 514.367 984.2 511.333 984.2 508C984.2 505.6 983.833 503.3 983.2 501.167C981.033 501.667 978.767 501.933 976.4 501.933C971.553 501.938 966.776 500.778 962.472 498.551C958.167 496.323 954.461 493.093 951.667 489.133C948.68 496.369 943.039 502.189 935.9 505.4C935.767 506.233 935.767 507.133 935.767 508C935.767 511.182 936.393 514.333 937.611 517.274C938.829 520.214 940.614 522.885 942.864 525.135C947.409 529.68 953.573 532.233 960 532.233C963.5 532.233 966.867 531.467 969.9 530.1C971.8 533.733 972.667 535.533 972.6 535.533C967.133 537.367 962.9 538.267 960 538.267C951.933 538.267 944.233 535.1 938.567 529.4C935.117 525.966 932.554 521.745 931.1 517.1H926.667V501.933H930.3C931.401 496.575 933.931 491.615 937.624 487.579C941.316 483.542 946.032 480.581 951.272 479.009C956.511 477.437 962.078 477.312 967.383 478.649C972.687 479.985 977.531 482.733 981.4 486.6C985.599 490.785 988.464 496.121 989.633 501.933H993.333V517.1H993.133L981.266 528L963.6 526V520.433H979.7L982.4 517.2ZM950.9 507.233C951.9 507.233 952.867 507.633 953.567 508.367C954.27 509.076 954.665 510.034 954.665 511.033C954.665 512.032 954.27 512.991 953.567 513.7C952.867 514.4 951.9 514.8 950.9 514.8C948.8 514.8 947.1 513.133 947.1 511.033C947.1 508.933 948.8 507.233 950.9 507.233ZM969.067 507.233C971.167 507.233 972.833 508.933 972.833 511.033C972.833 513.133 971.167 514.8 969.067 514.8C966.967 514.8 965.267 513.133 965.267 511.033C965.267 510.025 965.667 509.059 966.379 508.346C967.092 507.634 968.059 507.233 969.067 507.233Z" fill="#888888"/>
<path d="M1042.08 519V496.453H1045.58V505.984H1057.16V496.453H1060.66V519H1057.16V509.016H1045.58V519H1042.08ZM1073.88 494.812C1072.92 494.812 1072.15 494.453 1071.52 493.969L1070.93 493.516C1070.43 493.125 1069.93 492.812 1069.48 492.812C1068.82 492.812 1068.54 493.391 1068.54 494.641V494.781H1066.4V494.562C1066.4 491.906 1067.38 490.578 1069.04 490.578C1069.99 490.578 1070.81 490.938 1071.42 491.422L1072.01 491.859C1072.51 492.266 1072.98 492.578 1073.45 492.578C1074.07 492.578 1074.4 492 1074.4 490.75V490.609H1076.54V490.812C1076.54 493.484 1075.51 494.812 1073.88 494.812ZM1066.32 500.75L1069.95 496H1072.95L1076.59 500.75H1073.88L1071.43 497.547L1069.02 500.75H1066.32ZM1071.45 519.328C1066.73 519.328 1063.65 516.062 1063.65 510.781V510.75C1063.65 505.5 1066.76 502.25 1071.43 502.25C1076.12 502.25 1079.24 505.484 1079.24 510.75V510.781C1079.24 516.078 1076.15 519.328 1071.45 519.328ZM1071.46 516.5C1074.1 516.5 1075.79 514.406 1075.79 510.781V510.75C1075.79 507.156 1074.07 505.078 1071.43 505.078C1068.84 505.078 1067.1 507.156 1067.1 510.75V510.781C1067.1 514.422 1068.82 516.5 1071.46 516.5ZM1094.11 519.328C1090.86 519.328 1089.29 517.953 1089.29 514.672V505.25H1086.93V502.562H1089.29V498.281H1092.75V502.562H1095.82V505.25H1092.75V514.469C1092.75 516.141 1093.5 516.641 1094.92 516.641C1095.28 516.641 1095.57 516.609 1095.82 516.578V519.188C1095.43 519.25 1094.79 519.328 1094.11 519.328ZM1098.62 519V502.562H1101.99V505.375H1102.07C1102.6 503.453 1103.97 502.25 1105.85 502.25C1106.33 502.25 1106.76 502.328 1107.02 502.375V505.516C1106.76 505.406 1106.16 505.328 1105.51 505.328C1103.33 505.328 1101.99 506.75 1101.99 509.203V519H1098.62ZM1115.45 519.328C1110.73 519.328 1107.66 516.062 1107.66 510.781V510.75C1107.66 505.5 1110.76 502.25 1115.44 502.25H1115.45C1119.64 502 1120.67 501.016 1120.73 498.047H1123.55C1123.48 501.125 1122.64 502.672 1119.81 503.438C1121.97 504.828 1123.25 507.375 1123.25 510.75V510.781C1123.25 516.078 1120.16 519.328 1115.45 519.328ZM1115.47 516.5C1118.11 516.5 1119.8 514.406 1119.8 510.781V510.75C1119.8 507.156 1118.08 505.078 1115.44 505.078C1112.84 505.078 1111.11 507.156 1111.11 510.75V510.781C1111.11 514.422 1112.83 516.5 1115.47 516.5ZM1115.45 525.422C1114.37 525.422 1113.5 524.547 1113.5 523.484C1113.5 522.406 1114.37 521.531 1115.45 521.531C1116.56 521.531 1117.42 522.406 1117.42 523.484C1117.42 524.547 1116.56 525.422 1115.45 525.422ZM1132.53 519V496.453H1135.91V509.578H1135.99L1142.58 502.562H1146.55L1139.8 509.656L1146.81 519H1142.89L1137.31 511.688L1135.91 513.078V519H1132.53ZM1152.61 500.703C1151.7 500.703 1150.98 500.359 1150.39 499.891L1149.79 499.406C1149.28 499 1148.84 498.656 1148.39 498.656C1147.78 498.656 1147.5 499.266 1147.5 500.562V500.688H1145.37V500.484C1145.37 497.672 1146.4 496.281 1148.03 496.281C1148.92 496.281 1149.61 496.625 1150.2 497.109L1150.81 497.578C1151.32 498 1151.78 498.328 1152.25 498.328C1152.87 498.328 1153.14 497.719 1153.14 496.422V496.297H1155.26V496.5C1155.26 499.297 1154.28 500.703 1152.61 500.703ZM1148.64 519V502.562H1152.01V519H1148.64ZM1167.75 519.328C1164.5 519.328 1162.94 517.953 1162.94 514.672V505.25H1160.58V502.562H1162.94V498.281H1166.39V502.562H1169.47V505.25H1166.39V514.469C1166.39 516.141 1167.14 516.641 1168.56 516.641C1168.92 516.641 1169.22 516.609 1169.47 516.578V519.188C1169.08 519.25 1168.44 519.328 1167.75 519.328ZM1172.38 519V496.453H1175.76V505.266H1175.84C1176.71 503.359 1178.48 502.25 1180.93 502.25C1184.45 502.25 1186.76 504.875 1186.76 508.844V519H1183.38V509.484C1183.38 506.766 1182.01 505.141 1179.63 505.141C1177.3 505.141 1175.76 506.922 1175.76 509.484V519H1172.38ZM1195.63 519.328C1192.02 519.328 1189.95 517 1189.95 513.219V502.562H1193.33V512.562C1193.33 515.047 1194.49 516.422 1196.83 516.422C1199.2 516.422 1200.74 514.719 1200.74 512.156V502.562H1204.13V519H1200.74V516.531H1200.66C1199.8 518.188 1198.13 519.328 1195.63 519.328ZM1209.12 500.703L1212.68 495.781H1215.68L1219.24 500.703H1216.56L1214.17 497.453L1211.81 500.703H1209.12ZM1212.29 519.297C1209.01 519.297 1206.81 517.281 1206.81 514.328V514.297C1206.81 511.438 1209.03 509.688 1212.92 509.453L1217.39 509.188V507.953C1217.39 506.141 1216.21 505.047 1214.12 505.047C1212.17 505.047 1210.96 505.969 1210.68 507.281L1210.65 507.422H1207.46L1207.48 507.25C1207.71 504.422 1210.17 502.25 1214.21 502.25C1218.23 502.25 1220.78 504.375 1220.78 507.672V519H1217.39V516.406H1217.32C1216.37 518.172 1214.46 519.297 1212.29 519.297ZM1210.21 514.25C1210.21 515.688 1211.4 516.594 1213.21 516.594C1215.59 516.594 1217.39 514.984 1217.39 512.844V511.562L1213.37 511.812C1211.34 511.938 1210.21 512.828 1210.21 514.219V514.25ZM1214.18 525.422C1213.09 525.422 1212.21 524.547 1212.21 523.484C1212.21 522.406 1213.09 521.531 1214.18 521.531C1215.29 521.531 1216.15 522.406 1216.15 523.484C1216.15 524.547 1215.29 525.422 1214.18 525.422ZM1229.82 519.328C1226.57 519.328 1225 517.953 1225 514.672V505.25H1222.64V502.562H1225V498.281H1228.46V502.562H1231.54V505.25H1228.46V514.469C1228.46 516.141 1229.21 516.641 1230.63 516.641C1230.99 516.641 1231.29 516.609 1231.54 516.578V519.188C1231.14 519.25 1230.5 519.328 1229.82 519.328ZM1245.34 519L1239.41 502.562H1243.01L1247.13 515.703H1247.21L1251.34 502.562H1254.85L1248.96 519H1245.34ZM1262.28 500.703L1258.72 495.781H1261.98L1264.73 500.703H1262.28ZM1261.27 519.297C1257.98 519.297 1255.78 517.281 1255.78 514.328V514.297C1255.78 511.438 1258 509.688 1261.89 509.453L1266.36 509.188V507.953C1266.36 506.141 1265.19 505.047 1263.09 505.047C1261.14 505.047 1259.94 505.969 1259.66 507.281L1259.63 507.422H1256.44L1256.45 507.25C1256.69 504.422 1259.14 502.25 1263.19 502.25C1267.2 502.25 1269.75 504.375 1269.75 507.672V519H1266.36V516.406H1266.3C1265.34 518.172 1263.44 519.297 1261.27 519.297ZM1259.19 514.25C1259.19 515.688 1260.38 516.594 1262.19 516.594C1264.56 516.594 1266.36 514.984 1266.36 512.844V511.562L1262.34 511.812C1260.31 511.938 1259.19 512.828 1259.19 514.219V514.25ZM1288.25 519.328C1285.89 519.328 1284.07 518.141 1283.1 516.219H1283.02V519H1279.64V496.453H1283.02V505.359H1283.1C1284.08 503.422 1285.96 502.25 1288.28 502.25C1292.41 502.25 1295.13 505.531 1295.13 510.766V510.781C1295.13 516.016 1292.43 519.328 1288.25 519.328ZM1287.36 516.422C1290.02 516.422 1291.68 514.281 1291.68 510.781V510.766C1291.68 507.297 1290.02 505.141 1287.36 505.141C1284.82 505.141 1283 507.359 1283 510.766V510.781C1283 514.203 1284.8 516.422 1287.36 516.422ZM1303.12 500.703V500.656C1304.06 499.953 1304.62 499.297 1304.62 498.688C1304.62 497.953 1303.76 497.531 1302.64 497.531C1302.14 497.531 1301.81 497.578 1301.56 497.625V495.781C1301.98 495.625 1302.67 495.484 1303.43 495.484C1305.34 495.484 1306.95 496.516 1306.95 498.141C1306.95 499.141 1306.4 499.969 1305.29 500.703H1303.12ZM1302.56 519.297C1299.28 519.297 1297.08 517.281 1297.08 514.328V514.297C1297.08 511.438 1299.29 509.688 1303.18 509.453L1307.65 509.188V507.953C1307.65 506.141 1306.48 505.047 1304.39 505.047C1302.43 505.047 1301.23 505.969 1300.95 507.281L1300.92 507.422H1297.73L1297.75 507.25C1297.98 504.422 1300.43 502.25 1304.48 502.25C1308.5 502.25 1311.04 504.375 1311.04 507.672V519H1307.65V516.406H1307.59C1306.64 518.172 1304.73 519.297 1302.56 519.297ZM1300.48 514.25C1300.48 515.688 1301.67 516.594 1303.48 516.594C1305.86 516.594 1307.65 514.984 1307.65 512.844V511.562L1303.64 511.812C1301.61 511.938 1300.48 512.828 1300.48 514.219V514.25ZM1321.38 519.328C1316.66 519.328 1313.58 516.062 1313.58 510.781V510.75C1313.58 505.5 1316.69 502.25 1321.37 502.25C1326.05 502.25 1329.18 505.484 1329.18 510.75V510.781C1329.18 516.078 1326.08 519.328 1321.38 519.328ZM1321.4 516.5C1324.04 516.5 1325.72 514.406 1325.72 510.781V510.75C1325.72 507.156 1324.01 505.078 1321.37 505.078C1318.77 505.078 1317.04 507.156 1317.04 510.75V510.781C1317.04 514.422 1318.76 516.5 1321.4 516.5ZM1338.4 519V496.453H1341.77V505.266H1341.85C1342.73 503.359 1344.49 502.25 1346.95 502.25C1350.46 502.25 1352.77 504.875 1352.77 508.844V519H1349.4V509.484C1349.4 506.766 1348.02 505.141 1345.65 505.141C1343.32 505.141 1341.77 506.922 1341.77 509.484V519H1338.4ZM1361.89 500.703L1358.33 495.781H1361.6L1364.35 500.703H1361.89ZM1360.88 519.297C1357.6 519.297 1355.39 517.281 1355.39 514.328V514.297C1355.39 511.438 1357.61 509.688 1361.5 509.453L1365.97 509.188V507.953C1365.97 506.141 1364.8 505.047 1362.71 505.047C1360.75 505.047 1359.55 505.969 1359.27 507.281L1359.24 507.422H1356.05L1356.07 507.25C1356.3 504.422 1358.75 502.25 1362.8 502.25C1366.82 502.25 1369.36 504.375 1369.36 507.672V519H1365.97V516.406H1365.91C1364.96 518.172 1363.05 519.297 1360.88 519.297ZM1358.8 514.25C1358.8 515.688 1359.99 516.594 1361.8 516.594C1364.17 516.594 1365.97 514.984 1365.97 512.844V511.562L1361.96 511.812C1359.92 511.938 1358.8 512.828 1358.8 514.219V514.25ZM1372.64 519V502.562H1376.01V505.047H1376.09C1376.95 503.375 1378.64 502.25 1381.12 502.25C1384.73 502.25 1386.81 504.578 1386.81 508.359V519H1383.42V509C1383.42 506.531 1382.26 505.141 1379.92 505.141C1377.54 505.141 1376.01 506.859 1376.01 509.422V519H1372.64ZM1390.19 519V496.453H1393.57V505.266H1393.65C1394.52 503.359 1396.29 502.25 1398.74 502.25C1402.26 502.25 1404.57 504.875 1404.57 508.844V519H1401.19V509.484C1401.19 506.766 1399.82 505.141 1397.44 505.141C1395.11 505.141 1393.57 506.922 1393.57 509.484V519H1390.19ZM1420.1 519.328C1416.85 519.328 1415.29 517.953 1415.29 514.672V505.25H1412.93V502.562H1415.29V498.281H1418.74V502.562H1421.82V505.25H1418.74V514.469C1418.74 516.141 1419.49 516.641 1420.91 516.641C1421.27 516.641 1421.57 516.609 1421.82 516.578V519.188C1421.43 519.25 1420.79 519.328 1420.1 519.328ZM1424.61 519V502.562H1427.99V505.375H1428.06C1428.6 503.453 1429.97 502.25 1431.85 502.25C1432.33 502.25 1432.75 502.328 1433.02 502.375V505.516C1432.75 505.406 1432.16 505.328 1431.5 505.328C1429.33 505.328 1427.99 506.75 1427.99 509.203V519H1424.61ZM1441.45 519.328C1436.73 519.328 1433.65 516.062 1433.65 510.781V510.75C1433.65 505.5 1436.76 502.25 1441.43 502.25C1446.12 502.25 1449.25 505.484 1449.25 510.75V510.781C1449.25 516.078 1446.15 519.328 1441.45 519.328ZM1441.46 516.5C1444.1 516.5 1445.79 514.406 1445.79 510.781V510.75C1445.79 507.156 1444.07 505.078 1441.43 505.078C1438.84 505.078 1437.1 507.156 1437.1 510.75V510.781C1437.1 514.422 1438.82 516.5 1441.46 516.5ZM1441.45 525.422C1440.37 525.422 1439.5 524.547 1439.5 523.484C1439.5 522.406 1440.37 521.531 1441.45 521.531C1442.56 521.531 1443.42 522.406 1443.42 523.484C1443.42 524.547 1442.56 525.422 1441.45 525.422ZM1451.85 519V502.562H1455.22V505.047H1455.3C1456.16 503.375 1457.85 502.25 1460.33 502.25C1463.94 502.25 1466.02 504.578 1466.02 508.359V519H1462.63V509C1462.63 506.531 1461.47 505.141 1459.13 505.141C1456.75 505.141 1455.22 506.859 1455.22 509.422V519H1451.85ZM1482.98 524.797C1478.76 524.797 1476.09 522.844 1475.59 520.328L1475.57 520.188H1478.91L1478.98 520.312C1479.43 521.359 1480.85 522.078 1482.96 522.078C1485.65 522.078 1487.13 520.641 1487.13 518.344V516.094H1487.05C1486.12 517.875 1484.24 519.016 1481.88 519.016C1477.76 519.016 1475.04 515.781 1475.04 510.656V510.641C1475.04 505.484 1477.79 502.25 1481.96 502.25C1484.27 502.25 1486.09 503.5 1487.05 505.359H1487.13V502.562H1490.52V518.547C1490.52 522.297 1487.62 524.797 1482.98 524.797ZM1482.84 516.266C1485.41 516.266 1487.13 514.094 1487.13 510.703V510.688C1487.13 507.312 1485.4 505.141 1482.84 505.141C1480.16 505.141 1478.49 507.297 1478.49 510.688V510.703C1478.49 514.141 1480.16 516.266 1482.84 516.266ZM1501.81 500.703H1499.36L1502.09 495.781H1505.38L1501.81 500.703ZM1500.92 519.328C1496.2 519.328 1493.13 516.062 1493.13 510.781V510.75C1493.13 505.5 1496.24 502.25 1500.91 502.25C1505.59 502.25 1508.72 505.484 1508.72 510.75V510.781C1508.72 516.078 1505.63 519.328 1500.92 519.328ZM1500.94 516.5C1503.58 516.5 1505.27 514.406 1505.27 510.781V510.75C1505.27 507.156 1503.55 505.078 1500.91 505.078C1498.31 505.078 1496.58 507.156 1496.58 510.75V510.781C1496.58 514.422 1498.3 516.5 1500.94 516.5ZM1513.15 500.031C1512.06 500.031 1511.18 499.156 1511.18 498.094C1511.18 497.016 1512.06 496.141 1513.15 496.141C1514.26 496.141 1515.12 497.016 1515.12 498.094C1515.12 499.156 1514.26 500.031 1513.15 500.031ZM1511.46 519V502.562H1514.84V519H1511.46ZM1520.24 519.234C1519.08 519.234 1518.18 518.328 1518.18 517.188C1518.18 516.031 1519.08 515.141 1520.24 515.141C1521.38 515.141 1522.29 516.031 1522.29 517.188C1522.29 518.328 1521.38 519.234 1520.24 519.234Z" fill="#888888"/>
<defs>
<clipPath id="clip0_237_493">
<rect width="848" height="592" rx="32" fill="white"/>
</clipPath>
</defs>
</svg>
