<svg width="62" height="36" viewBox="0 0 62 36" fill="none" xmlns="http://www.w3.org/2000/svg">
<path fill-rule="evenodd" clip-rule="evenodd" d="M51.7699 25.8361L50.9796 26.4215V28.0568H50.0413V23.3096H50.9796V25.3348L53.5273 23.3096H54.771L52.4558 25.2307L54.771 28.0568H53.6203L51.7699 25.8361ZM44.5988 24.8062V28.0568H43.7446V23.3096H44.5922L47.7612 26.4907V23.3096H48.6154V28.0568H47.8524L44.5988 24.8062ZM42.4176 26.3378C42.4176 26.8391 42.328 27.2143 42.1489 27.4651C41.8202 27.9154 41.1334 28.1416 40.0879 28.1416C39.3303 28.1416 38.754 28.0202 38.3593 27.779C38.1329 27.6352 37.9772 27.4427 37.8933 27.2017C37.8043 26.96 37.7591 26.6718 37.7591 26.3378V23.3096H38.6974V26.0452C38.6974 26.319 38.714 26.5206 38.747 26.6512C38.7797 26.7811 38.8409 26.89 38.9303 26.9776C39.1712 27.2143 39.5712 27.3333 40.1313 27.3333C40.6901 27.3333 41.0901 27.2143 41.3308 26.9776C41.4204 26.89 41.4816 26.7811 41.5143 26.6512C41.5466 26.5206 41.5632 26.319 41.5632 26.0452V23.3096H42.4176V26.3378ZM32.7332 27.2773H34.1103C34.5423 27.2773 34.8705 27.2194 35.0914 27.1031C35.5618 26.8613 35.7964 26.3888 35.7964 25.6837C35.7964 25.1722 35.6707 24.7799 35.4165 24.5072C35.2742 24.3588 35.1029 24.2517 34.9006 24.1858C34.6986 24.1211 34.4345 24.0885 34.1103 24.0885H32.7332V27.2773V27.2773ZM31.7949 23.3096H34.2019C34.7799 23.3096 35.2247 23.3748 35.5356 23.5043C35.9739 23.6997 36.2982 24.0174 36.5106 24.4586C36.6746 24.8062 36.7569 25.214 36.7569 25.6837C36.7569 26.4995 36.5106 27.1242 36.0162 27.5555C35.8043 27.736 35.559 27.8654 35.2781 27.9416C34.9984 28.0189 34.6391 28.0568 34.2019 28.0568H31.7949V23.3096Z" fill="white"/>
<path fill-rule="evenodd" clip-rule="evenodd" d="M26.796 25.3493H28.4617C28.791 25.3493 29.0246 25.3149 29.1604 25.2451C29.2542 25.2031 29.3287 25.1333 29.3832 25.036C29.4361 24.9386 29.4639 24.8315 29.4639 24.7162C29.4639 24.6047 29.4361 24.4999 29.3832 24.4025C29.3287 24.3055 29.2542 24.2352 29.1604 24.1934C29.0246 24.1234 28.791 24.0892 28.4617 24.0892H26.796V25.3493ZM26.796 26.1288V28.0569H25.8572V23.3097H28.5825C28.9306 23.3097 29.2037 23.3336 29.4039 23.3795C29.6041 23.4258 29.7799 23.5044 29.93 23.6159C30.0857 23.7362 30.2075 23.8921 30.2965 24.0822C30.3817 24.2817 30.4238 24.4929 30.4238 24.7162C30.4238 25.036 30.3399 25.316 30.1696 25.5588C30.0289 25.7662 29.8383 25.9135 29.6013 26.001C29.3639 26.086 29.0246 26.1288 28.5825 26.1288H26.796V26.1288ZM22.0458 24.0274C21.5697 24.0274 21.175 24.1619 20.8596 24.4311C20.4836 24.7507 20.2939 25.1689 20.2939 25.6837C20.2939 26.1986 20.4836 26.6144 20.8596 26.9294C21.175 27.1989 21.5725 27.334 22.0515 27.334C22.5275 27.334 22.9229 27.1989 23.2383 26.9294C23.4263 26.7714 23.5698 26.5767 23.6688 26.3447C23.7578 26.1363 23.8033 25.9237 23.8033 25.705C23.8033 25.166 23.6142 24.7427 23.2383 24.4311C22.9179 24.1659 22.5202 24.0317 22.0458 24.0274ZM22.0386 23.2266C22.8662 23.2266 23.5203 23.4499 24.0008 23.8956C24.5079 24.3635 24.7621 24.9696 24.7621 25.7125C24.7621 26.1671 24.6408 26.5911 24.3962 26.9852C23.9201 27.7567 23.1376 28.1415 22.0458 28.1415C21.2267 28.1415 20.5776 27.9177 20.0971 27.4725C19.8429 27.2315 19.6471 26.9439 19.5114 26.6101C19.393 26.3173 19.3358 26.0085 19.3358 25.6837C19.3358 25.2061 19.4569 24.7697 19.7017 24.3755C20.1583 23.6234 20.938 23.2408 22.0386 23.2266ZM17.3079 25.9823H14.4148V28.0569H13.4766V23.3097H14.4148V25.2031H17.3079V23.3097H18.248V28.0569H17.3079V25.9823ZM12.2836 23.9368L11.8682 24.6887C11.4115 24.2804 10.8299 24.0593 10.1252 24.0274C9.87107 24.0274 9.64468 24.0571 9.44662 24.1172C9.29653 24.1635 9.17475 24.2341 9.08289 24.3269C8.99173 24.4197 8.94553 24.5216 8.94553 24.6333C8.94553 24.8085 9.06837 24.9301 9.31316 24.9948C9.42503 25.0274 9.6707 25.0622 10.0474 25.0985L10.604 25.1545C10.9283 25.1911 11.1913 25.2411 11.3915 25.3005C11.5912 25.3612 11.7669 25.4443 11.9177 25.5508C12.0728 25.6678 12.1935 25.8184 12.2815 26.004C12.3677 26.1895 12.411 26.3866 12.411 26.5957C12.411 26.9295 12.308 27.2262 12.1006 27.4864C11.9076 27.723 11.609 27.9 11.2046 28.0166C10.8987 28.0998 10.5718 28.1415 10.2242 28.1415C9.59229 28.1415 8.85155 27.9177 8 27.4725L8.31648 26.6644C8.50109 26.8179 8.79526 26.9674 9.19971 27.1141C9.60451 27.2601 9.9532 27.334 10.2442 27.334C10.5695 27.334 10.8442 27.2824 11.0706 27.1799C11.2019 27.1198 11.3081 27.0425 11.3876 26.9473C11.4683 26.8523 11.5078 26.7514 11.5078 26.6449C11.5078 26.4863 11.4094 26.3746 11.2113 26.3109C11.089 26.2641 10.8416 26.2205 10.4706 26.1775L9.92665 26.1214C9.5645 26.0847 9.31033 26.0504 9.16519 26.0182C9.01899 25.985 8.87226 25.9312 8.72641 25.8579C8.51896 25.7515 8.35772 25.5933 8.23983 25.3836C8.13629 25.1986 8.08407 24.982 8.08407 24.7365C8.08407 24.3384 8.21806 24.006 8.48675 23.7421C8.83987 23.3988 9.37547 23.2266 10.0962 23.2266C10.4021 23.2266 10.7286 23.2707 11.0779 23.3584C11.426 23.4477 11.8287 23.6395 12.2836 23.9368Z" fill="white"/>
<path d="M33.3876 9.37143V9.37034C33.3871 8.97969 33.2324 8.62513 32.9821 8.36901C32.7323 8.1118 32.3865 7.95138 32.0072 7.95138H32.0054H32.0049C31.624 7.95138 31.2792 8.11125 31.0294 8.36737C30.7797 8.6244 30.6234 8.97969 30.6234 9.36961V9.37143C30.6234 12.2668 30.614 15.1348 30.614 18.0268V18.0285C30.614 18.505 30.4232 18.9392 30.1173 19.2536C29.8097 19.5699 29.3865 19.7659 28.9221 19.7659H28.921H28.9199C28.4555 19.7659 28.0328 19.5705 27.727 19.256C27.4193 18.9397 27.2282 18.505 27.2282 18.0274V18.0268V11.7215V11.721C27.2282 11.5039 27.1425 11.3068 27.0034 11.1654H27.0023C26.8632 11.0228 26.672 10.934 26.4628 10.934H26.4612H26.4605C26.2504 10.934 26.0586 11.0228 25.9194 11.1659L25.9184 11.1648C25.7803 11.3074 25.6948 11.5044 25.6943 11.7199V11.7215V15.5043V15.5059C25.6936 15.9837 25.5035 16.4185 25.1976 16.7329L25.1964 16.7316C24.8895 17.0466 24.4663 17.2432 24.0018 17.2432H24.0013H24C23.5358 17.2426 23.1131 17.0474 22.8078 16.7335H22.8055C22.4991 16.4185 22.3083 15.9837 22.3083 15.5048V15.5043V13.609V13.6077C22.3083 13.5647 22.2911 13.5259 22.2633 13.4972C22.2371 13.4703 22.1994 13.4531 22.1576 13.4531H22.1564H22.1553C22.1136 13.4531 22.0752 13.4708 22.0476 13.4989C22.0214 13.5264 22.0045 13.5647 22.0045 13.6077V13.609V14.2406H21.0781V13.609V13.6077C21.0787 13.3047 21.2004 13.0275 21.3962 12.8259C21.5914 12.6266 21.8596 12.5023 22.1553 12.5017H22.1564H22.1576C22.4529 12.5017 22.7226 12.6277 22.9184 12.8288C23.1126 13.0286 23.2338 13.3042 23.2343 13.6077V13.609V15.5043V15.5048C23.2343 15.7208 23.3211 15.9179 23.4602 16.0604L23.459 16.0615C23.5981 16.2035 23.7892 16.2918 24 16.2918H24.0013H24.0018C24.2132 16.2918 24.405 16.2041 24.5429 16.0621V16.0604C24.682 15.9172 24.7677 15.7208 24.7682 15.5059V15.5043V11.7215V11.7199C24.7688 11.2434 24.9589 10.8097 25.2654 10.4947V10.4929C25.5707 10.1779 25.9945 9.98211 26.4605 9.98211H26.4612H26.4628C26.9278 9.98266 27.351 10.1779 27.6569 10.4923L27.6558 10.4934C27.9633 10.8092 28.1541 11.2438 28.1541 11.721V11.7215V18.0268V18.0274C28.1541 18.2445 28.2403 18.4415 28.3783 18.583C28.5173 18.7261 28.7091 18.8143 28.9199 18.8143H28.921H28.9221C29.1329 18.8143 29.3242 18.7266 29.4621 18.5848C29.6012 18.4421 29.6879 18.245 29.6879 18.0285V18.0268C29.6879 15.1348 29.6975 12.2668 29.6975 9.37143V9.36961C29.6975 8.71956 29.9572 8.12784 30.3749 7.69836C30.7937 7.26815 31.3709 7 32.0049 7H32.0054H32.0072C32.64 7.00073 33.2157 7.26706 33.6335 7.69599C34.0528 8.12675 34.3135 8.71956 34.3135 9.37034V9.37143V15.5043V15.5059C34.3135 15.7225 34.3997 15.9195 34.5388 16.0621C34.6767 16.2041 34.8686 16.2918 35.0794 16.2918H35.0804H35.0822C35.2925 16.2918 35.4843 16.203 35.6233 16.0604C35.7619 15.9188 35.8474 15.7219 35.8474 15.5048V15.5043V12.9857V12.9852C35.8474 12.5079 36.0389 12.0732 36.3451 11.7576L36.3442 11.7565C36.6506 11.4421 37.0733 11.2467 37.5388 11.2461H37.5398H37.5409C38.007 11.2461 38.4296 11.4421 38.7367 11.7571V11.7587C39.042 12.0739 39.2327 12.5074 39.2334 12.9845V12.9857V15.5043V15.5059C39.2334 15.7208 39.3196 15.9172 39.4585 16.0604V16.0621C39.5966 16.2041 39.7885 16.2918 39.9993 16.2918H40.0003H40.0019C40.2117 16.2918 40.403 16.2035 40.5419 16.0615L40.5409 16.0604C40.68 15.9179 40.7666 15.7208 40.7666 15.5048V15.5043V14.2452H41.6932V15.5043V15.5048C41.6932 15.9837 41.5025 16.419 41.1954 16.7335H41.1938C40.8875 17.0474 40.4658 17.2426 40.0019 17.2432H40.0003H39.9993C39.5353 17.2432 39.1121 17.0466 38.8045 16.7316L38.8034 16.7329C38.4976 16.4185 38.3078 15.9837 38.3073 15.5059V15.5043V12.9857V12.9845C38.3068 12.7681 38.2206 12.5716 38.082 12.4288L38.0816 12.4296C37.9425 12.287 37.7512 12.198 37.5409 12.198H37.5398H37.5388C37.3296 12.198 37.1382 12.287 36.9988 12.4296H36.9977C36.8591 12.571 36.7734 12.7681 36.7734 12.9852V12.9857V15.5043V15.5048C36.7734 15.9826 36.5816 16.4172 36.2739 16.7335C35.9681 17.0474 35.5459 17.2426 35.0822 17.2432H35.0804H35.0794C34.6144 17.2432 34.1912 17.0466 33.8843 16.7313C33.5784 16.4166 33.3876 15.9826 33.3876 15.5059V15.5043V9.37143V9.37143Z" fill="white"/>
</svg>
