<svg width="69" height="36" viewBox="0 0 69 36" fill="none" xmlns="http://www.w3.org/2000/svg">
<path d="M21.5134 21.8543C21.4926 21.9164 21.1567 23.1118 20.3352 24.346C19.6263 25.4134 18.8896 26.4782 17.7305 26.4999C16.5913 26.5213 16.2245 25.8034 14.9234 25.8034C13.6197 25.8034 13.2123 26.4782 12.1354 26.5213C11.0155 26.5646 10.163 25.3672 9.44835 24.3043C7.98685 22.1278 6.87132 18.1553 8.37084 15.4752C9.11431 14.1428 10.4461 13.2997 11.8907 13.2781C12.9906 13.2566 14.0268 14.0389 14.6991 14.0389C15.371 14.0389 16.6307 13.0979 17.9556 13.2355C18.51 13.2596 20.0671 13.4659 21.0678 14.9737C20.988 15.0259 19.2096 16.0918 19.2291 18.3089C19.2516 20.9615 21.4875 21.8426 21.5134 21.8543ZM17.0876 11.7976C17.6834 11.056 18.083 10.0258 17.9729 9C17.1172 9.03212 16.0804 9.58706 15.4667 10.3275C14.9163 10.9833 14.4338 12.0326 14.5642 13.0367C15.5176 13.1129 16.4937 12.5371 17.0876 11.7976Z" fill="#EBEBEB"/>
<path d="M26.6614 18.0683L28.4715 12.8779H29.011L30.8217 18.0683H30.2304L29.6947 16.4516H27.7622L27.2267 18.0683H26.6614ZM28.723 13.5783L27.921 15.9832H29.5396L28.7376 13.5783H28.723Z" fill="#EBEBEB"/>
<path d="M34.557 18.068H34.0145V17.5237H33.992C33.8517 17.8476 33.4861 18.1327 32.8582 18.1327C32.0601 18.1327 31.4834 17.6643 31.4834 16.755V14.084H32.03V16.5949C32.03 17.3486 32.4549 17.6186 32.998 17.6186C33.608 17.6186 34.0106 17.208 34.0106 16.5532V14.084H34.557V18.068Z" fill="#EBEBEB"/>
<path d="M35.8944 13.083H36.4374V14.0836H37.2394V14.5591H36.4374V17.0093C36.4374 17.5003 36.5963 17.6222 37.0878 17.6222C37.1545 17.6222 37.2173 17.6222 37.2726 17.6143V18.0746C37.2173 18.0866 37.0839 18.1018 36.9585 18.1018C36.0678 18.1018 35.8944 17.7478 35.8944 16.9751V14.5591H35.3518V14.0836H35.8944V13.083Z" fill="#EBEBEB"/>
<path d="M38.1191 12.6006H38.6623V14.6245H38.6803C38.7993 14.3549 39.1391 14.02 39.7775 14.02C40.6464 14.02 41.2189 14.6626 41.2189 15.5723V18.0687H40.6717V15.6829C40.6717 15.0166 40.3465 14.5335 39.6967 14.5335C39.0392 14.5335 38.6623 14.9784 38.6623 15.6979V18.0687H38.1191V12.6006Z" fill="#EBEBEB"/>
<path d="M45.4497 15.8963V16.2537C45.4497 17.3687 44.9216 18.1334 43.8164 18.1334C42.7118 18.1334 42.1799 17.3757 42.1799 16.2537V15.8963C42.1799 14.8193 42.7085 14.0205 43.8164 14.0205C44.9216 14.0205 45.4497 14.7846 45.4497 15.8963ZM42.7192 15.9605V16.193C42.7192 16.9993 43.0112 17.6349 43.8164 17.6349C44.6184 17.6349 44.9027 17.0033 44.9027 16.193V15.9605C44.9027 15.1692 44.6184 14.5111 43.8164 14.5111C43.0145 14.5111 42.7192 15.1657 42.7192 15.9605Z" fill="#EBEBEB"/>
<path d="M46.4915 14.0837H47.0306V14.5777H47.0457C47.1603 14.3267 47.3528 14.0225 48.0285 14.0225C48.1095 14.0225 48.1908 14.0305 48.265 14.0375V14.5592C48.206 14.5475 48.0842 14.544 47.9657 14.544C47.2823 14.544 47.0306 14.9734 47.0306 15.5563V18.0676H46.4915V14.0837Z" fill="#EBEBEB"/>
<path d="M49.3261 12.7246C49.5407 12.7246 49.7035 12.8884 49.7035 13.1052C49.7035 13.3262 49.5407 13.4898 49.3261 13.4898C49.1268 13.4898 48.9604 13.3262 48.9604 13.1052C48.9604 12.8884 49.1268 12.7246 49.3261 12.7246ZM49.0599 14.0833H49.6029V18.0673H49.0599V14.0833Z" fill="#EBEBEB"/>
<path d="M50.6552 17.6683L52.7871 14.5787V14.5445H50.6406V14.084H53.4671V14.4831L51.3313 17.5694V17.5996H53.4819V18.068H50.6552V17.6683Z" fill="#EBEBEB"/>
<path d="M54.218 16.2879V15.9079C54.218 14.8193 54.7314 14.0205 55.7844 14.0205C56.8374 14.0205 57.3511 14.7928 57.3511 15.8998V16.2155H54.7646V16.3261C54.7646 17.0149 55.0828 17.6349 55.8286 17.6349C56.4128 17.6349 56.6525 17.3081 56.7228 17.0109H57.2956C57.2107 17.5055 56.8154 18.1334 55.8325 18.1334C54.7426 18.1334 54.218 17.3609 54.218 16.2879ZM56.8042 15.7326V15.7216C56.8042 15.0131 56.4239 14.5111 55.7844 14.5111C55.1491 14.5111 54.7646 15.0171 54.7646 15.7216V15.7326H56.8042Z" fill="#EBEBEB"/>
<path d="M60.783 14.6556H60.7977V12.6006H61.3408V18.0687H60.8269V17.4481H60.8122C60.7274 17.764 60.3137 18.1294 59.6414 18.1294C58.6512 18.1294 58.1194 17.3949 58.1194 16.3486V15.8008C58.1194 14.762 58.6545 14.016 59.6414 14.016C60.2839 14.016 60.6612 14.3277 60.783 14.6556ZM58.6624 15.9072V16.2381C58.6624 17.0681 59.0135 17.6384 59.7295 17.6384C60.4097 17.6384 60.7977 17.1056 60.7977 16.2497V15.8801C60.7977 15.0588 60.3988 14.5145 59.7115 14.5145C59.0095 14.5145 58.6624 15.0853 58.6624 15.9072Z" fill="#EBEBEB"/>
<path d="M30.5441 22.1937C30.5441 23.0382 30.0599 23.4685 29.5871 23.6321L30.6327 25.8618H30.0009L29.0362 23.7495H27.736V25.8618H27.186V20.6719H28.9591C30.0493 20.6719 30.5441 21.3868 30.5441 22.1937ZM28.8632 23.2365C29.5983 23.2365 29.9789 22.8674 29.9789 22.2317C29.9789 21.5469 29.5539 21.1814 28.889 21.1814H27.736V23.2365H28.8632Z" fill="#EBEBEB"/>
<path d="M31.3831 24.0805V23.6999C31.3831 22.6119 31.8969 21.8125 32.9494 21.8125C34.0024 21.8125 34.5161 22.5852 34.5161 23.6922V24.0081H31.9301V24.1186C31.9301 24.8074 32.2479 25.4275 32.9943 25.4275C33.5778 25.4275 33.8177 25.1001 33.8884 24.8034H34.4611C34.3757 25.2979 33.9804 25.9256 32.9975 25.9256C31.9081 25.9256 31.3831 25.1533 31.3831 24.0805ZM33.9697 23.5251V23.5136C33.9697 22.8057 33.589 22.303 32.9494 22.303C32.3141 22.303 31.9301 22.8097 31.9301 23.5136V23.5251H33.9697Z" fill="#EBEBEB"/>
<path d="M36.6855 21.8125C37.5981 21.8125 38.0344 22.3649 38.0344 22.9884H37.5207C37.5022 22.6766 37.3061 22.2728 36.6598 22.2728C36.1794 22.2728 35.8213 22.5093 35.8213 22.9352C35.8213 23.4262 36.3122 23.5061 36.7816 23.6013C37.506 23.7379 38.1304 23.9282 38.1304 24.7085C38.1304 25.4958 37.506 25.9256 36.6306 25.9256C35.7807 25.9256 35.2119 25.4883 35.2119 24.8034H35.7433C35.7954 25.1688 36.0797 25.4581 36.6523 25.4581C37.295 25.4581 37.5904 25.1648 37.5904 24.7727C37.5904 24.2972 37.1511 24.2024 36.5969 24.0879C35.869 23.9282 35.2855 23.7646 35.2855 22.9924C35.2855 22.1781 35.9504 21.8125 36.6855 21.8125Z" fill="#EBEBEB"/>
<path d="M38.8799 24.0805V23.6999C38.8799 22.6119 39.3939 21.8125 40.4467 21.8125C41.4997 21.8125 42.0136 22.5852 42.0136 23.6922V24.0081H39.4269V24.1186C39.4269 24.8074 39.7451 25.4275 40.4911 25.4275C41.0748 25.4275 41.3149 25.1001 41.3852 24.8034H41.958C41.8732 25.2979 41.4772 25.9256 40.495 25.9256C39.4051 25.9256 38.8799 25.1533 38.8799 24.0805ZM41.4667 23.5251V23.5136C41.4667 22.8057 41.0864 22.303 40.4467 22.303C39.8111 22.303 39.4269 22.8097 39.4269 23.5136V23.5251H41.4667Z" fill="#EBEBEB"/>
<path d="M43.543 20.3945H43V25.8626H43.543V20.3945Z" fill="#EBEBEB"/>
<path d="M45.309 20.3945H44.7659V25.8626H45.309V20.3945Z" fill="#EBEBEB"/>
<path d="M46.3145 24.0805V23.6999C46.3145 22.6119 46.8278 21.8125 47.8808 21.8125C48.9338 21.8125 49.4475 22.5852 49.4475 23.6922V24.0081H46.861V24.1186C46.861 24.8074 47.1793 25.4275 47.9252 25.4275C48.5087 25.4275 48.7489 25.1001 48.8193 24.8034H49.392C49.3073 25.2979 48.9118 25.9256 47.9289 25.9256C46.839 25.9256 46.3145 25.1533 46.3145 24.0805ZM48.9006 23.5251V23.5136C48.9006 22.8057 48.5204 22.303 47.8808 22.303C47.2457 22.303 46.861 22.8097 46.861 23.5136V23.5251H48.9006Z" fill="#EBEBEB"/>
<path d="M50.4678 21.8781H51.0069V22.3726H51.0215C51.1362 22.1216 51.3287 21.8174 52.0044 21.8174C52.0854 21.8174 52.1666 21.8254 52.2413 21.8324V22.3536C52.1819 22.3424 52.0599 22.3385 51.9414 22.3385C51.2579 22.3385 51.0069 22.7683 51.0069 23.3512V25.8626H50.4678V21.8781Z" fill="#EBEBEB"/>
</svg>
